<svg width="149" height="45" viewBox="0 0 149 45" fill="none" xmlns="http://www.w3.org/2000/svg">
<rect x="0.5" y="0.762695" width="147.5" height="43" fill="#101010"/>
<rect x="0.5" y="0.762695" width="147.5" height="43" stroke="#A6A6A6"/>
<path d="M74.9496 24.189C72.3624 24.189 70.2537 26.157 70.2537 28.8674C70.2537 31.5613 72.3624 33.5456 74.9496 33.5456C77.5379 33.5456 79.6466 31.5613 79.6466 28.8674C79.6455 26.157 77.5368 24.189 74.9496 24.189ZM74.9496 31.7042C73.5317 31.7042 72.3096 30.535 72.3096 28.8685C72.3096 27.1844 73.5328 26.0326 74.9496 26.0326C76.3675 26.0326 77.5896 27.1844 77.5896 28.8685C77.5896 30.5338 76.3675 31.7042 74.9496 31.7042ZM64.7042 24.189C62.117 24.189 60.0083 26.157 60.0083 28.8674C60.0083 31.5613 62.117 33.5456 64.7042 33.5456C67.2925 33.5456 69.4012 31.5613 69.4012 28.8674C69.4012 26.157 67.2925 24.189 64.7042 24.189ZM64.7042 31.7042C63.2863 31.7042 62.0642 30.535 62.0642 28.8685C62.0642 27.1844 63.2874 26.0326 64.7042 26.0326C66.1221 26.0326 67.3442 27.1844 67.3442 28.8685C67.3453 30.5338 66.1221 31.7042 64.7042 31.7042ZM52.5184 25.6256V27.61H57.2682C57.1263 28.7265 56.7545 29.5416 56.1869 30.1081C55.4961 30.7989 54.4148 31.5612 52.5184 31.5612C49.5946 31.5612 47.3088 29.2039 47.3088 26.2801C47.3088 23.3563 49.5946 20.999 52.5184 20.999C54.0958 20.999 55.2475 21.6194 56.0978 22.4169L57.4981 21.0166C56.3101 19.8825 54.7338 19.0146 52.5184 19.0146C48.5133 19.0146 45.1462 22.275 45.1462 26.2801C45.1462 30.2852 48.5133 33.5456 52.5184 33.5456C54.6799 33.5456 56.3112 32.8361 57.5861 31.5073C58.8973 30.1961 59.3054 28.3525 59.3054 26.8642C59.3054 26.4044 59.2702 25.9787 59.1987 25.6245H52.5184V25.6256ZM102.357 27.1667C101.968 26.1217 100.78 24.189 98.3521 24.189C95.942 24.189 93.9389 26.0855 93.9389 28.8674C93.9389 31.4898 95.9244 33.5456 98.582 33.5456C100.726 33.5456 101.967 32.2345 102.481 31.4722L100.886 30.4084C100.355 31.1883 99.6281 31.7021 98.582 31.7021C97.537 31.7021 96.7923 31.2235 96.3138 30.2841L102.569 27.6969L102.357 27.1667ZM95.9772 28.7265C95.9244 26.9181 97.3775 25.9974 98.4236 25.9974C99.2387 25.9974 99.9295 26.4055 100.16 26.9896L95.9772 28.7265ZM90.8919 33.2629H92.9467V19.5118H90.8919V33.2629ZM87.5237 25.2351H87.4533C86.9924 24.6851 86.1058 24.189 84.9904 24.189C82.6507 24.189 80.5068 26.2449 80.5068 28.886C80.5068 31.5084 82.6507 33.5467 84.9904 33.5467C86.1069 33.5467 86.9924 33.0506 87.4533 32.4841H87.5237V33.1573C87.5237 34.947 86.5667 35.9041 85.0256 35.9041C83.7672 35.9041 82.9873 35.0009 82.6683 34.2387L80.8786 34.9833C81.3923 36.223 82.7563 37.7476 85.0256 37.7476C87.4357 37.7476 89.474 36.3297 89.474 32.8735V24.4739H87.5248V25.2351H87.5237ZM85.1675 31.7042C83.7496 31.7042 82.5627 30.5162 82.5627 28.886C82.5627 27.2371 83.7496 26.0326 85.1675 26.0326C86.5667 26.0326 87.6656 27.2371 87.6656 28.886C87.6656 30.5162 86.5667 31.7042 85.1675 31.7042ZM111.987 19.5118H107.068V33.2629H109.12V28.0533H111.985C114.26 28.0533 116.498 26.4066 116.498 23.7831C116.498 21.1596 114.261 19.5118 111.987 19.5118ZM112.039 26.1393H109.12V21.4258H112.039C113.574 21.4258 114.445 22.6963 114.445 23.7831C114.445 24.8479 113.574 26.1393 112.039 26.1393ZM124.725 24.1648C123.238 24.1648 121.7 24.8194 121.063 26.2703L122.884 27.0303C123.274 26.2702 124 26.0216 124.76 26.0216C125.821 26.0216 126.9 26.6586 126.918 27.7905V27.9323C126.546 27.72 125.75 27.4021 124.777 27.4021C122.814 27.4021 120.814 28.4812 120.814 30.4975C120.814 32.3378 122.424 33.5225 124.228 33.5225C125.608 33.5225 126.369 32.9032 126.846 32.1772H126.917V33.2387H128.899V27.9665C128.9 25.5267 127.076 24.1648 124.725 24.1648ZM124.476 31.701C123.805 31.701 122.867 31.3644 122.867 30.5328C122.867 29.4713 124.035 29.0642 125.044 29.0642C125.944 29.0642 126.37 29.259 126.918 29.5241C126.758 30.799 125.662 31.701 124.476 31.701ZM136.117 24.4651L133.764 30.4271H133.694L131.252 24.4651H129.041L132.703 32.7976L130.615 37.433H132.756L138.4 24.4651H136.117ZM117.631 33.2629H119.682V19.5118H117.631V33.2629Z" fill="white"/>
<path d="M52.1598 11.5297C52.1598 12.4515 51.887 13.1852 51.3403 13.733C50.7199 14.3842 49.9103 14.7098 48.9159 14.7098C47.9633 14.7098 47.1526 14.3798 46.4871 13.7198C45.8205 13.0587 45.4872 12.2403 45.4872 11.2635C45.4872 10.2856 45.8205 9.46721 46.4871 8.80721C47.1526 8.14611 47.9633 7.81611 48.9159 7.81611C49.3889 7.81611 49.841 7.90851 50.27 8.09221C50.7001 8.27701 51.0444 8.52231 51.3018 8.82921L50.7221 9.41001C50.2854 8.88751 49.6837 8.62681 48.9148 8.62681C48.2196 8.62681 47.619 8.87101 47.1119 9.35941C46.6048 9.84781 46.3518 10.4825 46.3518 11.2624C46.3518 12.0423 46.6048 12.677 47.1119 13.1654C47.619 13.6538 48.2196 13.898 48.9148 13.898C49.6518 13.898 50.2667 13.6527 50.7584 13.161C51.0774 12.8409 51.2622 12.3954 51.3117 11.8245H48.9148V11.0314H52.1125C52.1455 11.2041 52.1598 11.3702 52.1598 11.5297Z" fill="white"/>
<path d="M57.2309 8.77318H54.2257V10.8654H56.9361V11.6585H54.2257V13.7507H57.2309V14.5625H53.3776V7.96248H57.2309V8.77318Z" fill="white"/>
<path d="M60.8069 14.5625H59.9588V8.77318H58.1152V7.96248H62.6505V8.77318H60.8069V14.5625Z" fill="white"/>
<path d="M65.9318 14.5625V7.96248H66.7799V14.5625H65.9318Z" fill="white"/>
<path d="M70.541 14.5625H69.6929V8.77318H67.8493V7.96248H72.3846V8.77318H70.541V14.5625Z" fill="white"/>
<path d="M80.9698 13.71C80.3208 14.3766 79.5145 14.7099 78.5498 14.7099C77.5851 14.7099 76.7788 14.3766 76.1309 13.71C75.4819 13.0434 75.1585 12.2272 75.1585 11.2625C75.1585 10.2978 75.4819 9.48156 76.1309 8.81496C76.7788 8.14836 77.5851 7.81396 78.5498 7.81396C79.509 7.81396 80.3142 8.14946 80.9654 8.81936C81.6166 9.48926 81.9422 10.3033 81.9422 11.2625C81.9422 12.2272 81.6177 13.0434 80.9698 13.71ZM76.7568 13.1567C77.2452 13.6517 77.8425 13.8981 78.5498 13.8981C79.2571 13.8981 79.8555 13.6506 80.3428 13.1567C80.8312 12.6617 81.0765 12.0303 81.0765 11.2625C81.0765 10.4947 80.8312 9.86326 80.3428 9.36826C79.8555 8.87326 79.2571 8.62687 78.5498 8.62687C77.8425 8.62687 77.2452 8.87436 76.7568 9.36826C76.2695 9.86326 76.0242 10.4947 76.0242 11.2625C76.0242 12.0303 76.2695 12.6617 76.7568 13.1567Z" fill="white"/>
<path d="M83.1324 14.5625V7.96248H84.1642L87.3718 13.0962H87.4081L87.3718 11.8246V7.96248H88.2199V14.5625H87.3344L83.9783 9.17908H83.942L83.9783 10.4507V14.5625H83.1324Z" fill="white"/>
<path d="M52.1598 11.5297C52.1598 12.4515 51.887 13.1852 51.3403 13.733C50.7199 14.3842 49.9103 14.7098 48.9159 14.7098C47.9633 14.7098 47.1526 14.3798 46.4871 13.7198C45.8205 13.0587 45.4872 12.2403 45.4872 11.2635C45.4872 10.2856 45.8205 9.46721 46.4871 8.80721C47.1526 8.14611 47.9633 7.81611 48.9159 7.81611C49.3889 7.81611 49.841 7.90851 50.27 8.09221C50.7001 8.27701 51.0444 8.52231 51.3018 8.82921L50.7221 9.41001C50.2854 8.88751 49.6837 8.62681 48.9148 8.62681C48.2196 8.62681 47.619 8.87101 47.1119 9.35941C46.6048 9.84781 46.3518 10.4825 46.3518 11.2624C46.3518 12.0423 46.6048 12.677 47.1119 13.1654C47.619 13.6538 48.2196 13.898 48.9148 13.898C49.6518 13.898 50.2667 13.6527 50.7584 13.161C51.0774 12.8409 51.2622 12.3954 51.3117 11.8245H48.9148V11.0314H52.1125C52.1455 11.2041 52.1598 11.3702 52.1598 11.5297Z" stroke="white" stroke-width="0.2" stroke-miterlimit="10"/>
<path d="M57.2309 8.77318H54.2257V10.8654H56.9361V11.6585H54.2257V13.7507H57.2309V14.5625H53.3776V7.96248H57.2309V8.77318Z" stroke="white" stroke-width="0.2" stroke-miterlimit="10"/>
<path d="M60.8069 14.5625H59.9588V8.77318H58.1152V7.96248H62.6505V8.77318H60.8069V14.5625Z" stroke="white" stroke-width="0.2" stroke-miterlimit="10"/>
<path d="M65.9318 14.5625V7.96248H66.7799V14.5625H65.9318Z" stroke="white" stroke-width="0.2" stroke-miterlimit="10"/>
<path d="M70.541 14.5625H69.6929V8.77318H67.8493V7.96248H72.3846V8.77318H70.541V14.5625Z" stroke="white" stroke-width="0.2" stroke-miterlimit="10"/>
<path d="M80.9698 13.71C80.3208 14.3766 79.5145 14.7099 78.5498 14.7099C77.5851 14.7099 76.7788 14.3766 76.1309 13.71C75.4819 13.0434 75.1585 12.2272 75.1585 11.2625C75.1585 10.2978 75.4819 9.48156 76.1309 8.81496C76.7788 8.14836 77.5851 7.81396 78.5498 7.81396C79.509 7.81396 80.3142 8.14946 80.9654 8.81936C81.6166 9.48926 81.9422 10.3033 81.9422 11.2625C81.9422 12.2272 81.6177 13.0434 80.9698 13.71ZM76.7568 13.1567C77.2452 13.6517 77.8425 13.8981 78.5498 13.8981C79.2571 13.8981 79.8555 13.6506 80.3428 13.1567C80.8312 12.6617 81.0765 12.0303 81.0765 11.2625C81.0765 10.4947 80.8312 9.86326 80.3428 9.36826C79.8555 8.87326 79.2571 8.62687 78.5498 8.62687C77.8425 8.62687 77.2452 8.87436 76.7568 9.36826C76.2695 9.86326 76.0242 10.4947 76.0242 11.2625C76.0242 12.0303 76.2695 12.6617 76.7568 13.1567Z" stroke="white" stroke-width="0.2" stroke-miterlimit="10"/>
<path d="M83.1324 14.5625V7.96248H84.1642L87.3718 13.0962H87.4081L87.3718 11.8246V7.96248H88.2199V14.5625H87.3344L83.9783 9.17908H83.942L83.9783 10.4507V14.5625H83.1324Z" stroke="white" stroke-width="0.2" stroke-miterlimit="10"/>
<g filter="url(#filter0_ii_1_5896)">
<path d="M11.4796 8.55442C11.1595 8.89322 10.9703 9.41902 10.9703 10.0999V34.4275C10.9703 35.1095 11.1595 35.6342 11.4796 35.973L11.561 36.0522L25.1889 22.4243V22.2637V22.1031L11.561 8.47412L11.4796 8.55442Z" fill="url(#paint0_linear_1_5896)"/>
<path d="M29.7308 26.9684L25.1889 22.4243V22.2637V22.1031L29.7319 17.5601L29.8342 17.6184L35.2165 20.6764C36.7532 21.5498 36.7532 22.9787 35.2165 23.8532L29.8342 26.9112L29.7308 26.9684Z" fill="url(#paint1_linear_1_5896)"/>
<g filter="url(#filter1_i_1_5896)">
<path d="M29.8342 26.9101L25.1878 22.2637L11.4796 35.973C11.9856 36.5098 12.8227 36.5758 13.7654 36.0412L29.8342 26.9101Z" fill="url(#paint2_linear_1_5896)"/>
</g>
<path d="M29.8342 17.6174L13.7654 8.48736C12.8227 7.95166 11.9856 8.01876 11.4796 8.55556L25.1889 22.2649L29.8342 17.6174Z" fill="url(#paint3_linear_1_5896)"/>
</g>
<defs>
<filter id="filter0_ii_1_5896" x="10.9703" y="8.11768" width="25.3987" height="28.293" filterUnits="userSpaceOnUse" color-interpolation-filters="sRGB">
<feFlood flood-opacity="0" result="BackgroundImageFix"/>
<feBlend mode="normal" in="SourceGraphic" in2="BackgroundImageFix" result="shape"/>
<feColorMatrix in="SourceAlpha" type="matrix" values="0 0 0 0 0 0 0 0 0 0 0 0 0 0 0 0 0 0 127 0" result="hardAlpha"/>
<feOffset dy="-0.15"/>
<feComposite in2="hardAlpha" operator="arithmetic" k2="-1" k3="1"/>
<feColorMatrix type="matrix" values="0 0 0 0 0 0 0 0 0 0 0 0 0 0 0 0 0 0 0.12 0"/>
<feBlend mode="normal" in2="shape" result="effect1_innerShadow_1_5896"/>
<feColorMatrix in="SourceAlpha" type="matrix" values="0 0 0 0 0 0 0 0 0 0 0 0 0 0 0 0 0 0 127 0" result="hardAlpha"/>
<feOffset dy="0.15"/>
<feComposite in2="hardAlpha" operator="arithmetic" k2="-1" k3="1"/>
<feColorMatrix type="matrix" values="0 0 0 0 1 0 0 0 0 1 0 0 0 0 1 0 0 0 0.25 0"/>
<feBlend mode="normal" in2="effect1_innerShadow_1_5896" result="effect2_innerShadow_1_5896"/>
</filter>
<filter id="filter1_i_1_5896" x="11.4796" y="22.2637" width="18.3546" height="14.147" filterUnits="userSpaceOnUse" color-interpolation-filters="sRGB">
<feFlood flood-opacity="0" result="BackgroundImageFix"/>
<feBlend mode="normal" in="SourceGraphic" in2="BackgroundImageFix" result="shape"/>
<feColorMatrix in="SourceAlpha" type="matrix" values="0 0 0 0 0 0 0 0 0 0 0 0 0 0 0 0 0 0 127 0" result="hardAlpha"/>
<feOffset dy="-0.15"/>
<feComposite in2="hardAlpha" operator="arithmetic" k2="-1" k3="1"/>
<feColorMatrix type="matrix" values="0 0 0 0 0 0 0 0 0 0 0 0 0 0 0 0 0 0 0.08 0"/>
<feBlend mode="normal" in2="shape" result="effect1_innerShadow_1_5896"/>
</filter>
<linearGradient id="paint0_linear_1_5896" x1="23.9809" y1="9.84252" x2="5.52069" y2="28.3027" gradientUnits="userSpaceOnUse">
<stop stop-color="#00A0FF"/>
<stop offset="0.0066" stop-color="#00A1FF"/>
<stop offset="0.2601" stop-color="#00BEFF"/>
<stop offset="0.5122" stop-color="#00D2FF"/>
<stop offset="0.7604" stop-color="#00DFFF"/>
<stop offset="1" stop-color="#00E3FF"/>
</linearGradient>
<linearGradient id="paint1_linear_1_5896" x1="37.2168" y1="22.2637" x2="10.6013" y2="22.2637" gradientUnits="userSpaceOnUse">
<stop stop-color="#FFE000"/>
<stop offset="0.4087" stop-color="#FFBD00"/>
<stop offset="0.7754" stop-color="#FFA500"/>
<stop offset="1" stop-color="#FF9C00"/>
</linearGradient>
<linearGradient id="paint2_linear_1_5896" x1="27.3109" y1="24.787" x2="2.27655" y2="49.8213" gradientUnits="userSpaceOnUse">
<stop stop-color="#FF3A44"/>
<stop offset="1" stop-color="#C31162"/>
</linearGradient>
<linearGradient id="paint3_linear_1_5896" x1="8.02712" y1="0.457138" x2="19.2057" y2="11.6357" gradientUnits="userSpaceOnUse">
<stop stop-color="#32A071"/>
<stop offset="0.0685" stop-color="#2DA771"/>
<stop offset="0.4762" stop-color="#15CF74"/>
<stop offset="0.8009" stop-color="#06E775"/>
<stop offset="1" stop-color="#00F076"/>
</linearGradient>
</defs>
</svg>
