<svg width="132" height="45" viewBox="0 0 132 45" fill="none" xmlns="http://www.w3.org/2000/svg">
<rect x="0.5" y="0.762695" width="131" height="43" fill="#101010"/>
<rect x="0.5" y="0.762695" width="131" height="43" stroke="#A6A6A6"/>
<path d="M89.6785 21.3836V23.9037H88.0988V25.5564H89.6785V31.1719C89.6785 33.0894 90.5459 33.8563 92.7282 33.8563C93.1117 33.8563 93.4769 33.8107 93.7965 33.7559V32.1215C93.5226 32.1489 93.3491 32.1671 93.0478 32.1671C92.0708 32.1671 91.6416 31.7106 91.6416 30.6697V25.5564H93.7965V23.9037H91.6416V21.3836H89.6785Z" fill="white"/>
<path d="M99.3557 33.9933C102.259 33.9933 104.04 32.0484 104.04 28.8252C104.04 25.6203 102.25 23.6663 99.3557 23.6663C96.4521 23.6663 94.6625 25.6203 94.6625 28.8252C94.6625 32.0484 96.443 33.9933 99.3557 33.9933ZM99.3557 32.2493C97.6483 32.2493 96.6895 30.9984 96.6895 28.8252C96.6895 26.6704 97.6483 25.4103 99.3557 25.4103C101.054 25.4103 102.022 26.6704 102.022 28.8252C102.022 30.9893 101.054 32.2493 99.3557 32.2493Z" fill="white"/>
<path d="M105.563 33.8016H107.526V27.9304C107.526 26.5334 108.576 25.5929 110.065 25.5929C110.412 25.5929 110.996 25.6568 111.16 25.7116V23.7759C110.95 23.7211 110.576 23.6937 110.284 23.6937C108.987 23.6937 107.882 24.4059 107.599 25.3829H107.453V23.8581H105.563V33.8016Z" fill="white"/>
<path d="M116.035 25.3373C117.487 25.3373 118.436 26.3508 118.482 27.9122H113.46C113.57 26.3599 114.583 25.3373 116.035 25.3373ZM118.473 31.1171C118.108 31.8932 117.295 32.3224 116.108 32.3224C114.537 32.3224 113.524 31.2175 113.46 29.4735V29.364H120.482V28.6791C120.482 25.5564 118.811 23.6663 116.044 23.6663C113.241 23.6663 111.46 25.6842 111.46 28.8618C111.46 32.0393 113.204 33.9933 116.053 33.9933C118.327 33.9933 119.915 32.8976 120.363 31.1171H118.473Z" fill="white"/>
<path d="M76.8045 30.1296C76.956 32.5713 78.9907 34.1328 82.0191 34.1328C85.2558 34.1328 87.281 32.4955 87.281 29.8835C87.281 27.8299 86.1264 26.6942 83.3251 26.0412L81.8204 25.6721C80.0412 25.2557 79.3219 24.6973 79.3219 23.7225C79.3219 22.4922 80.4387 21.6878 82.1138 21.6878C83.7037 21.6878 84.8015 22.4733 85.0002 23.732H87.0634C86.9403 21.4323 84.9151 19.814 82.1422 19.814C79.161 19.814 77.1736 21.4323 77.1736 23.8645C77.1736 25.8708 78.2998 27.0633 80.7699 27.6406L82.5302 28.0665C84.3378 28.4923 85.1327 29.1169 85.1327 30.158C85.1327 31.3693 83.8835 32.2495 82.18 32.2495C80.3535 32.2495 79.0853 31.4261 78.9055 30.1296H76.8045Z" fill="white"/>
<path d="M56.4685 23.6937C55.1171 23.6937 53.9483 24.3694 53.3457 25.5016H53.1996V23.8581H51.3095V37.1069H53.2727V32.295H53.4279C53.9483 33.345 55.0714 33.9659 56.4867 33.9659C58.9977 33.9659 60.5956 31.9845 60.5956 28.8252C60.5956 25.666 58.9977 23.6937 56.4685 23.6937ZM55.9115 32.2037C54.2679 32.2037 53.2361 30.9071 53.2361 28.8344C53.2361 26.7525 54.2679 25.456 55.9206 25.456C57.5824 25.456 58.5777 26.7251 58.5777 28.8252C58.5777 30.9345 57.5824 32.2037 55.9115 32.2037Z" fill="white"/>
<path d="M67.4649 23.6937C66.1136 23.6937 64.9448 24.3694 64.3422 25.5016H64.1961V23.8581H62.306V37.1069H64.2691V32.295H64.4244C64.9448 33.345 66.0679 33.9659 67.4832 33.9659C69.9942 33.9659 71.5921 31.9845 71.5921 28.8252C71.5921 25.666 69.9942 23.6937 67.4649 23.6937ZM66.908 32.2037C65.2644 32.2037 64.2326 30.9071 64.2326 28.8344C64.2326 26.7525 65.2644 25.456 66.9171 25.456C68.5789 25.456 69.5742 26.7251 69.5742 28.8252C69.5742 30.9345 68.5789 32.2037 66.908 32.2037Z" fill="white"/>
<path d="M47.7873 33.8016H50.0397L45.1091 20.1452H42.8283L37.8976 33.8016H40.0743L41.333 30.1769H46.5381L47.7873 33.8016ZM43.8598 22.6247H44.0207L45.9987 28.3977H41.8724L43.8598 22.6247Z" fill="white"/>
<path d="M39.2162 9.84465V16.4326H41.5948C43.558 16.4326 44.6948 15.2227 44.6948 13.1181C44.6948 11.0454 43.5488 9.84465 41.5948 9.84465H39.2162ZM40.2389 10.776H41.4807C42.8458 10.776 43.6538 11.6434 43.6538 13.1318C43.6538 14.6429 42.8595 15.5012 41.4807 15.5012H40.2389V10.776Z" fill="white"/>
<path d="M48.1764 16.5284C49.6282 16.5284 50.5184 15.556 50.5184 13.9444C50.5184 12.3419 49.6236 11.3649 48.1764 11.3649C46.7246 11.3649 45.8297 12.3419 45.8297 13.9444C45.8297 15.556 46.72 16.5284 48.1764 16.5284ZM48.1764 15.6564C47.3226 15.6564 46.8433 15.031 46.8433 13.9444C46.8433 12.867 47.3226 12.2369 48.1764 12.2369C49.0255 12.2369 49.5095 12.867 49.5095 13.9444C49.5095 15.0264 49.0255 15.6564 48.1764 15.6564Z" fill="white"/>
<path d="M58.0998 11.4608H57.1182L56.2325 15.2547H56.1549L55.1322 11.4608H54.1918L53.1691 15.2547H53.0961L52.2058 11.4608H51.2105L52.5802 16.4326H53.5891L54.6118 12.7711H54.6894L55.7166 16.4326H56.7347L58.0998 11.4608Z" fill="white"/>
<path d="M59.2302 16.4326H60.2117V13.5244C60.2117 12.7483 60.6729 12.2643 61.3988 12.2643C62.1247 12.2643 62.4716 12.6615 62.4716 13.4605V16.4326H63.4532V13.2139C63.4532 12.0315 62.8414 11.3649 61.732 11.3649C60.9833 11.3649 60.4902 11.6982 60.2483 12.2506H60.1752V11.4608H59.2302V16.4326Z" fill="white"/>
<path d="M64.9991 16.4326H65.9806V9.52051H64.9991V16.4326Z" fill="white"/>
<path d="M69.6722 16.5284C71.124 16.5284 72.0143 15.556 72.0143 13.9444C72.0143 12.3419 71.1195 11.3649 69.6722 11.3649C68.2204 11.3649 67.3256 12.3419 67.3256 13.9444C67.3256 15.556 68.2159 16.5284 69.6722 16.5284ZM69.6722 15.6564C68.8185 15.6564 68.3391 15.031 68.3391 13.9444C68.3391 12.867 68.8185 12.2369 69.6722 12.2369C70.5214 12.2369 71.0053 12.867 71.0053 13.9444C71.0053 15.0264 70.5214 15.6564 69.6722 15.6564Z" fill="white"/>
<path d="M74.9389 15.6884C74.4048 15.6884 74.0167 15.4282 74.0167 14.9808C74.0167 14.5425 74.3271 14.3096 75.012 14.264L76.2264 14.1864V14.6018C76.2264 15.2182 75.6785 15.6884 74.9389 15.6884ZM74.6878 16.5147C75.3407 16.5147 75.884 16.2317 76.1807 15.7341H76.2583V16.4326H77.2034V13.0359C77.2034 11.9858 76.5003 11.3649 75.2539 11.3649C74.1263 11.3649 73.3228 11.9128 73.2223 12.7665H74.1719C74.2815 12.415 74.6604 12.2141 75.2083 12.2141C75.8794 12.2141 76.2264 12.5109 76.2264 13.0359V13.465L74.8796 13.5427C73.6971 13.6157 73.0306 14.1316 73.0306 15.0264C73.0306 15.9349 73.7291 16.5147 74.6878 16.5147Z" fill="white"/>
<path d="M80.5343 16.5147C81.2191 16.5147 81.7989 16.1906 82.0957 15.6473H82.1733V16.4326H83.1138V9.52051H82.1322V12.2506H82.0592C81.7898 11.7028 81.2146 11.3786 80.5343 11.3786C79.2788 11.3786 78.4707 12.3739 78.4707 13.9444C78.4707 15.5195 79.2697 16.5147 80.5343 16.5147ZM80.8128 12.2598C81.6346 12.2598 82.1505 12.9126 82.1505 13.949C82.1505 14.9899 81.6391 15.6336 80.8128 15.6336C79.9819 15.6336 79.4843 14.999 79.4843 13.9444C79.4843 12.8989 79.9865 12.2598 80.8128 12.2598Z" fill="white"/>
<path d="M89.4789 16.5284C90.9307 16.5284 91.821 15.556 91.821 13.9444C91.821 12.3419 90.9261 11.3649 89.4789 11.3649C88.0271 11.3649 87.1323 12.3419 87.1323 13.9444C87.1323 15.556 88.0225 16.5284 89.4789 16.5284ZM89.4789 15.6564C88.6252 15.6564 88.1458 15.031 88.1458 13.9444C88.1458 12.867 88.6252 12.2369 89.4789 12.2369C90.3281 12.2369 90.812 12.867 90.812 13.9444C90.812 15.0264 90.3281 15.6564 89.4789 15.6564Z" fill="white"/>
<path d="M93.1203 16.4326H94.1018V13.5244C94.1018 12.7483 94.563 12.2643 95.2889 12.2643C96.0148 12.2643 96.3617 12.6615 96.3617 13.4605V16.4326H97.3433V13.2139C97.3433 12.0315 96.7315 11.3649 95.6221 11.3649C94.8734 11.3649 94.3803 11.6982 94.1384 12.2506H94.0653V11.4608H93.1203V16.4326Z" fill="white"/>
<path d="M101.864 10.2236V11.4836H101.074V12.31H101.864V15.1177C101.864 16.0765 102.298 16.46 103.389 16.46C103.581 16.46 103.763 16.4371 103.923 16.4097V15.5925C103.786 15.6062 103.699 15.6154 103.549 15.6154C103.06 15.6154 102.846 15.3871 102.846 14.8666V12.31H103.923V11.4836H102.846V10.2236H101.864Z" fill="white"/>
<path d="M105.241 16.4326H106.222V13.529C106.222 12.7757 106.67 12.2689 107.473 12.2689C108.167 12.2689 108.537 12.6707 108.537 13.465V16.4326H109.518V13.2231C109.518 12.0406 108.866 11.3695 107.806 11.3695C107.058 11.3695 106.533 11.7028 106.291 12.2598H106.213V9.52051H105.241V16.4326Z" fill="white"/>
<path d="M113.059 12.2004C113.785 12.2004 114.26 12.7072 114.283 13.4879H111.772C111.827 12.7117 112.333 12.2004 113.059 12.2004ZM114.278 15.0903C114.096 15.4784 113.689 15.693 113.096 15.693C112.311 15.693 111.804 15.1406 111.772 14.2686V14.2138H115.283V13.8714C115.283 12.31 114.447 11.3649 113.064 11.3649C111.662 11.3649 110.772 12.3739 110.772 13.9627C110.772 15.5514 111.644 16.5284 113.068 16.5284C114.205 16.5284 115 15.9806 115.223 15.0903H114.278Z" fill="white"/>
<path d="M27.2459 22.5934C27.2697 20.7443 28.2628 18.9946 29.8381 18.0261C28.8443 16.6068 27.1797 15.7068 25.4479 15.6527C23.6007 15.4588 21.8099 16.758 20.8687 16.758C19.9092 16.758 18.4599 15.6719 16.8993 15.704C14.8651 15.7697 12.9688 16.9263 11.9791 18.7047C9.8517 22.3879 11.4386 27.8011 13.4764 30.7784C14.496 32.2362 15.6876 33.8647 17.2468 33.807C18.7726 33.7437 19.3424 32.8341 21.1842 32.8341C23.0088 32.8341 23.5434 33.807 25.1343 33.7703C26.7715 33.7437 27.803 32.3059 28.7868 30.8342C29.5194 29.7954 30.0831 28.6473 30.4571 27.4325C28.533 26.6187 27.2482 24.6824 27.2459 22.5934Z" fill="white"/>
<path d="M24.2411 13.6947C25.1338 12.623 25.5736 11.2456 25.4671 9.85498C24.1032 9.99822 22.8435 10.65 21.9387 11.6806C21.054 12.6874 20.5936 14.0406 20.6806 15.3781C22.0449 15.3921 23.3862 14.758 24.2411 13.6947Z" fill="white"/>
</svg>
