<svg width="60" height="60" viewBox="0 0 60 60" fill="none" xmlns="http://www.w3.org/2000/svg">
<rect opacity="0.2" width="60" height="60" rx="8" fill="#F64D00"/>
<path d="M35.9375 19.45V17.5C35.9375 16.9875 35.5125 16.5625 35 16.5625C34.4875 16.5625 34.0625 16.9875 34.0625 17.5V19.375H25.9375V17.5C25.9375 16.9875 25.5125 16.5625 25 16.5625C24.4875 16.5625 24.0625 16.9875 24.0625 17.5V19.45C20.6875 19.7625 19.05 21.775 18.8 24.7625C18.775 25.125 19.075 25.425 19.425 25.425H40.575C40.9375 25.425 41.2375 25.1125 41.2 24.7625C40.95 21.775 39.3125 19.7625 35.9375 19.45Z" fill="#F64D00"/>
<path d="M40 27.3H20C19.3125 27.3 18.75 27.8625 18.75 28.55V36.25C18.75 40 20.625 42.5 25 42.5H35C39.375 42.5 41.25 40 41.25 36.25V28.55C41.25 27.8625 40.6875 27.3 40 27.3ZM26.5125 37.7625C26.45 37.8125 26.3875 37.875 26.325 37.9125C26.25 37.9625 26.175 38 26.1 38.025C26.025 38.0625 25.95 38.0875 25.875 38.1C25.7875 38.1125 25.7125 38.125 25.625 38.125C25.4625 38.125 25.3 38.0875 25.15 38.025C24.9875 37.9625 24.8625 37.875 24.7375 37.7625C24.5125 37.525 24.375 37.2 24.375 36.875C24.375 36.55 24.5125 36.225 24.7375 35.9875C24.8625 35.875 24.9875 35.7875 25.15 35.725C25.375 35.625 25.625 35.6 25.875 35.65C25.95 35.6625 26.025 35.6875 26.1 35.725C26.175 35.75 26.25 35.7875 26.325 35.8375C26.3875 35.8875 26.45 35.9375 26.5125 35.9875C26.7375 36.225 26.875 36.55 26.875 36.875C26.875 37.2 26.7375 37.525 26.5125 37.7625ZM26.5125 33.3875C26.275 33.6125 25.95 33.75 25.625 33.75C25.3 33.75 24.975 33.6125 24.7375 33.3875C24.5125 33.15 24.375 32.825 24.375 32.5C24.375 32.175 24.5125 31.85 24.7375 31.6125C25.0875 31.2625 25.6375 31.15 26.1 31.35C26.2625 31.4125 26.4 31.5 26.5125 31.6125C26.7375 31.85 26.875 32.175 26.875 32.5C26.875 32.825 26.7375 33.15 26.5125 33.3875ZM30.8875 37.7625C30.65 37.9875 30.325 38.125 30 38.125C29.675 38.125 29.35 37.9875 29.1125 37.7625C28.8875 37.525 28.75 37.2 28.75 36.875C28.75 36.55 28.8875 36.225 29.1125 35.9875C29.575 35.5251 30.425 35.5251 30.8875 35.9875C31.1125 36.225 31.25 36.55 31.25 36.875C31.25 37.2 31.1125 37.525 30.8875 37.7625ZM30.8875 33.3875C30.825 33.4375 30.7625 33.4875 30.7 33.5375C30.625 33.5875 30.55 33.625 30.475 33.65C30.4 33.6875 30.325 33.7125 30.25 33.725C30.1625 33.7375 30.0875 33.75 30 33.75C29.675 33.75 29.35 33.6125 29.1125 33.3875C28.8875 33.15 28.75 32.825 28.75 32.5C28.75 32.175 28.8875 31.85 29.1125 31.6125C29.225 31.5 29.3625 31.4125 29.525 31.35C29.9875 31.15 30.5375 31.2625 30.8875 31.6125C31.1125 31.85 31.25 32.175 31.25 32.5C31.25 32.825 31.1125 33.15 30.8875 33.3875ZM35.2625 37.7625C35.025 37.9875 34.7 38.125 34.375 38.125C34.05 38.125 33.725 37.9875 33.4875 37.7625C33.2625 37.525 33.125 37.2 33.125 36.875C33.125 36.55 33.2625 36.225 33.4875 35.9875C33.95 35.5251 34.8 35.5251 35.2625 35.9875C35.4875 36.225 35.625 36.55 35.625 36.875C35.625 37.2 35.4875 37.525 35.2625 37.7625ZM35.2625 33.3875C35.2 33.4375 35.1375 33.4875 35.075 33.5375C35 33.5875 34.925 33.625 34.85 33.65C34.775 33.6875 34.7 33.7125 34.625 33.725C34.5375 33.7375 34.45 33.75 34.375 33.75C34.05 33.75 33.725 33.6125 33.4875 33.3875C33.2625 33.15 33.125 32.825 33.125 32.5C33.125 32.175 33.2625 31.85 33.4875 31.6125C33.6125 31.5 33.7375 31.4125 33.9 31.35C34.125 31.25 34.375 31.225 34.625 31.275C34.7 31.2875 34.775 31.3125 34.85 31.35C34.925 31.375 35 31.4125 35.075 31.4625C35.1375 31.5125 35.2 31.5625 35.2625 31.6125C35.4875 31.85 35.625 32.175 35.625 32.5C35.625 32.825 35.4875 33.15 35.2625 33.3875Z" fill="#F64D00"/>
</svg>
