<svg width="61" height="60" viewBox="0 0 61 60" fill="none" xmlns="http://www.w3.org/2000/svg">
<rect opacity="0.2" x="0.333374" width="60" height="60" rx="8" fill="#563FEB"/>
<path d="M30.9374 34.8999H31.7499C32.5624 34.8999 33.2374 34.1749 33.2374 33.2999C33.2374 32.2124 32.8499 31.9999 32.2124 31.7749L30.9499 31.3374V34.8999H30.9374Z" fill="#563FEB"/>
<path d="M29.9624 17.375C23.0624 17.4 17.4749 23.0125 17.4999 29.9125C17.5249 36.8125 23.1374 42.4 30.0374 42.375C36.9374 42.35 42.5249 36.7375 42.4999 29.8375C42.4749 22.9375 36.8624 17.3625 29.9624 17.375ZM32.8249 30C33.7999 30.3375 35.1124 31.0625 35.1124 33.3C35.1124 35.225 33.5999 36.775 31.7499 36.775H30.9374V37.5C30.9374 38.0125 30.5124 38.4375 29.9999 38.4375C29.4874 38.4375 29.0624 38.0125 29.0624 37.5V36.775H28.6124C26.5624 36.775 24.8999 35.05 24.8999 32.925C24.8999 32.4125 25.3249 31.9875 25.8374 31.9875C26.3499 31.9875 26.7749 32.4125 26.7749 32.925C26.7749 34.0125 27.5999 34.9 28.6124 34.9H29.0624V30.675L27.1749 30C26.1999 29.6625 24.8874 28.9375 24.8874 26.7C24.8874 24.775 26.3999 23.225 28.2499 23.225H29.0624V22.5C29.0624 21.9875 29.4874 21.5625 29.9999 21.5625C30.5124 21.5625 30.9374 21.9875 30.9374 22.5V23.225H31.3874C33.4374 23.225 35.0999 24.95 35.0999 27.075C35.0999 27.5875 34.6749 28.0125 34.1624 28.0125C33.6499 28.0125 33.2249 27.5875 33.2249 27.075C33.2249 25.9875 32.3999 25.1 31.3874 25.1H30.9374V29.325L32.8249 30Z" fill="#563FEB"/>
<path d="M26.7749 26.7126C26.7749 27.8001 27.1624 28.0126 27.7999 28.2376L29.0624 28.6751V25.1001H28.2499C27.4374 25.1001 26.7749 25.8251 26.7749 26.7126Z" fill="#563FEB"/>
</svg>
