<svg width="60" height="60" viewBox="0 0 60 60" fill="none" xmlns="http://www.w3.org/2000/svg">
<rect opacity="0.2" width="60" height="60" rx="8" fill="#45C646"/>
<path d="M30 17.5C23.1125 17.5 17.5 23.1125 17.5 30C17.5 36.8875 23.1125 42.5 30 42.5C36.8875 42.5 42.5 36.8875 42.5 30C42.5 23.1125 36.8875 17.5 30 17.5ZM35.4375 34.4625C35.2625 34.7625 34.95 34.925 34.625 34.925C34.4625 34.925 34.3 34.8875 34.15 34.7875L30.275 32.475C29.3125 31.9 28.6 30.6375 28.6 29.525V24.4C28.6 23.8875 29.025 23.4625 29.5375 23.4625C30.05 23.4625 30.475 23.8875 30.475 24.4V29.525C30.475 29.975 30.85 30.6375 31.2375 30.8625L35.1125 33.175C35.5625 33.4375 35.7125 34.0125 35.4375 34.4625Z" fill="#45C646"/>
</svg>
