<svg width="61" height="60" viewBox="0 0 61 60" fill="none" xmlns="http://www.w3.org/2000/svg">
<rect opacity="0.2" x="0.333374" width="60" height="60" rx="8" fill="#FFC046"/>
<path d="M34.7249 17.5H25.2749C20.5499 17.5 19.3749 18.7625 19.3749 23.8V37.875C19.3749 41.2 21.1999 41.9875 23.4124 39.6125L23.4249 39.6C24.4499 38.5125 26.0124 38.6 26.8999 39.7875L28.1624 41.475C29.1749 42.8125 30.8124 42.8125 31.8249 41.475L33.0874 39.7875C33.9874 38.5875 35.5499 38.5 36.5749 39.6C38.7999 41.975 40.6124 41.1875 40.6124 37.8625V23.8C40.6249 18.7625 39.4499 17.5 34.7249 17.5ZM24.7249 30C24.0374 30 23.4749 29.4375 23.4749 28.75C23.4749 28.0625 24.0374 27.5 24.7249 27.5C25.4124 27.5 25.9749 28.0625 25.9749 28.75C25.9749 29.4375 25.4124 30 24.7249 30ZM24.7249 25C24.0374 25 23.4749 24.4375 23.4749 23.75C23.4749 23.0625 24.0374 22.5 24.7249 22.5C25.4124 22.5 25.9749 23.0625 25.9749 23.75C25.9749 24.4375 25.4124 25 24.7249 25ZM35.2874 29.6875H28.4124C27.8999 29.6875 27.4749 29.2625 27.4749 28.75C27.4749 28.2375 27.8999 27.8125 28.4124 27.8125H35.2874C35.7999 27.8125 36.2249 28.2375 36.2249 28.75C36.2249 29.2625 35.7999 29.6875 35.2874 29.6875ZM35.2874 24.6875H28.4124C27.8999 24.6875 27.4749 24.2625 27.4749 23.75C27.4749 23.2375 27.8999 22.8125 28.4124 22.8125H35.2874C35.7999 22.8125 36.2249 23.2375 36.2249 23.75C36.2249 24.2625 35.7999 24.6875 35.2874 24.6875Z" fill="#F4AC1F"/>
</svg>
