<svg width="61" height="60" viewBox="0 0 61 60" fill="none" xmlns="http://www.w3.org/2000/svg">
<rect opacity="0.2" x="0.666656" width="60" height="60" rx="8" fill="#008EFF"/>
<path d="M36.2374 17.5H25.7624C21.2124 17.5 18.4999 20.2125 18.4999 24.7625V35.225C18.4999 39.7875 21.2124 42.5 25.7624 42.5H36.2249C40.7749 42.5 43.4874 39.7875 43.4874 35.2375V24.7625C43.4999 20.2125 40.7874 17.5 36.2374 17.5ZM26.6249 22.975C27.9124 22.975 28.9749 24.025 28.9749 25.325C28.9749 26.625 27.9249 27.675 26.6249 27.675C25.3249 27.675 24.2749 26.6 24.2749 25.3125C24.2749 24.025 25.3374 22.975 26.6249 22.975ZM30.9999 38.85C27.6374 38.85 24.8999 36.1125 24.8999 32.75C24.8999 31.875 25.6124 31.15 26.4874 31.15H35.4874C36.3624 31.15 37.0749 31.8625 37.0749 32.75C37.0999 36.1125 34.3624 38.85 30.9999 38.85ZM35.3749 27.65C34.0874 27.65 33.0249 26.6 33.0249 25.3C33.0249 24 34.0749 22.95 35.3749 22.95C36.6749 22.95 37.7249 24 37.7249 25.3C37.7249 26.6 36.6624 27.65 35.3749 27.65Z" fill="#008EFF"/>
</svg>
