<svg width="61" height="60" viewBox="0 0 61 60" fill="none" xmlns="http://www.w3.org/2000/svg">
<rect opacity="0.2" x="0.666656" width="60" height="60" rx="8" fill="#FFC046"/>
<g clip-path="url(#clip0_1_6043)">
<path d="M25.8317 39.0758C26.2272 38.5803 26.1499 37.8531 25.6544 37.4576C25.4181 37.2667 25.1635 37.1758 24.8999 37.1758C24.8544 37.1758 24.809 37.1803 24.7635 37.1849C24.4544 37.2212 24.1817 37.3758 23.9953 37.6212L22.4726 39.5894C22.2999 39.8076 22.2135 40.0531 22.2135 40.3076C22.2135 40.6576 22.3726 40.9849 22.6454 41.2076C23.1363 41.6031 23.8635 41.5212 24.2635 41.0303L25.8317 39.0758Z" fill="#FFC046"/>
<path d="M21.8104 38.9511L23.3422 36.9784C23.5149 36.7511 23.6104 36.483 23.6104 36.2011C23.6104 35.8102 23.4331 35.4466 23.124 35.2011C22.9058 35.0284 22.6377 34.9375 22.3604 34.9375C22.3058 34.9375 22.2513 34.942 22.1967 34.9466C21.8604 34.9875 21.5649 35.1602 21.3604 35.4239L19.8286 37.3966C19.4058 37.9466 19.5013 38.7375 20.0467 39.1602C20.3149 39.3693 20.6422 39.4602 20.974 39.4193C21.3104 39.383 21.6058 39.2148 21.8104 38.9511Z" fill="#FFC046"/>
<path d="M18.8932 32.912L20.2613 31.0575L20.7568 30.3848C20.7613 30.3802 20.7613 30.3802 20.7659 30.3757L23.7386 26.3439L23.7523 26.3302L23.8204 26.2393C23.8795 26.162 23.8659 26.0348 23.7795 25.9711L21.625 24.2711C21.5795 24.2348 21.5341 24.2302 21.5023 24.2302C21.4932 24.2302 21.4841 24.2302 21.475 24.2302C21.4432 24.2348 21.3841 24.2484 21.3386 24.3075L16.1613 31.3348C16.0932 31.4257 16.1113 31.5484 16.1977 31.6211L18.3341 33.3075C18.3795 33.3439 18.4341 33.3575 18.4932 33.3484C18.5295 33.3439 18.5841 33.3257 18.6295 33.2666L18.8886 32.9166C18.8886 32.9166 18.8886 32.912 18.8932 32.912Z" fill="#FFC046"/>
<path d="M27.9364 41.1149L27.9546 41.0876C27.9592 41.0831 27.9637 41.0786 27.9637 41.074C27.9683 41.0649 27.9774 41.0513 27.9819 41.0422C28.0955 40.8786 28.1546 40.6831 28.1546 40.4831C28.1546 40.1649 28.0092 39.874 27.7592 39.6876C27.5819 39.5558 27.3774 39.4922 27.1683 39.4922C26.8774 39.4922 26.5864 39.6195 26.3955 39.8604L25.2364 41.2967C25.0637 41.5104 24.991 41.7786 25.0274 42.0513C25.0637 42.3195 25.2001 42.5513 25.4183 42.7149L25.5001 42.7831C25.6819 42.9195 25.9455 42.9831 26.2092 42.9467C26.4728 42.9104 26.7001 42.7695 26.8592 42.5604L27.9364 41.1149Z" fill="#FFC046"/>
<path d="M30.6627 23.7258C32.8809 23.7258 34.6854 21.9212 34.6854 19.7031C34.6854 17.4849 32.8809 15.6758 30.6627 15.6758C28.4445 15.6758 26.6354 17.4803 26.6354 19.7031C26.6354 21.9212 28.4445 23.7258 30.6627 23.7258ZM28.6581 19.6031C28.8354 19.4258 29.1218 19.4258 29.299 19.6031L29.949 20.2531L32.0218 18.1803C32.199 18.0031 32.4854 18.0031 32.6627 18.1803C32.84 18.3576 32.84 18.644 32.6627 18.8212L30.2718 21.2121C30.1854 21.2985 30.0718 21.344 29.949 21.344C29.8263 21.344 29.7127 21.294 29.6263 21.2121L28.6536 20.2394C28.4809 20.0667 28.4809 19.7803 28.6581 19.6031Z" fill="#FFC046"/>
<path d="M38.8715 29.1977L37.8806 26.7522L37.2942 27.0795C36.8851 27.3113 36.3897 27.4068 35.9078 27.3386L30.7806 26.5795C30.1533 26.4886 29.5033 26.6977 29.0488 27.1341L28.5624 27.6022C28.5624 27.6022 28.5624 27.6022 28.5579 27.6068L26.676 29.4113C26.5533 29.5295 26.526 29.6659 26.526 29.7613C26.526 29.9113 26.5988 30.1113 26.8033 30.2068C27.7306 30.6522 28.8215 30.6295 29.7306 30.1522L30.226 29.8932C30.5442 29.725 30.8942 29.6432 31.2442 29.6432C31.7351 29.6432 32.2215 29.8068 32.6169 30.1295L32.8624 30.325L37.4397 33.9932C37.6624 34.1659 37.8942 34.3113 38.1306 34.4113C38.2078 34.4432 38.2988 34.4795 38.3851 34.5113C38.4442 34.5341 38.5078 34.5568 38.5715 34.5704C38.6579 34.5977 38.7215 34.6113 38.7851 34.6204C38.8851 34.6386 38.976 34.6568 39.0669 34.6613C39.176 34.675 39.2533 34.6795 39.3306 34.6795C39.526 34.6841 39.6942 34.6795 39.8488 34.6568L41.0124 34.4932L38.8715 29.1977Z" fill="#FFC046"/>
<path d="M41.6303 24.3747C41.6031 24.3065 41.5576 24.2747 41.5212 24.261C41.494 24.2474 41.4303 24.2338 41.3622 24.2656L38.5758 25.5019C38.4712 25.5474 38.4212 25.6656 38.4622 25.7656L38.6576 26.2474L39.0667 27.2519L42.0349 34.5792C42.1031 34.6974 42.2122 34.7247 42.2985 34.6838L45.0894 33.4519C45.1894 33.4065 45.2349 33.2929 45.194 33.1883L41.6303 24.3747Z" fill="#FFC046"/>
<path d="M38.9841 35.5559C38.8887 35.5513 38.7659 35.5286 38.6432 35.5059C38.5523 35.4923 38.4432 35.4695 38.3341 35.4332C38.2614 35.415 38.1705 35.3832 38.0841 35.3559C37.9841 35.3195 37.8796 35.2786 37.775 35.2332C37.4659 35.0968 37.1705 34.915 36.8841 34.6923L32.0569 30.8286C31.6569 30.5059 31.1069 30.4513 30.6523 30.6877L30.1569 30.9468C29.0023 31.5559 27.6023 31.5832 26.4205 31.0195C25.9296 30.7877 25.6205 30.3014 25.6205 29.7559C25.6205 29.3741 25.7705 29.0195 26.0478 28.7513L27.1069 27.7377H25.2296C24.8887 27.7377 24.5614 27.615 24.3114 27.3923L24.1796 27.2695L21.4932 30.9195C21.4796 30.9332 21.4705 30.9513 21.4569 30.965L21.2159 31.2923L20.4705 32.3059L19.8932 33.0877L20.1705 33.2968C20.5659 33.5832 20.8069 34.0604 20.8069 34.5695V34.7013C21.1478 34.3468 21.5932 34.115 22.0887 34.0513C22.6659 33.9786 23.2341 34.1332 23.6887 34.4877C24.2205 34.9059 24.5205 35.5286 24.5205 36.2014C24.5205 36.2377 24.5114 36.2741 24.5114 36.3104C24.5614 36.3013 24.6114 36.2832 24.6614 36.2786C25.2159 36.215 25.7614 36.3695 26.1978 36.7241C26.7841 37.2013 27.0478 37.9104 26.975 38.5923C27.4341 38.5423 27.9114 38.6604 28.3114 38.9604C28.7932 39.3195 29.075 39.8741 29.075 40.4832C29.075 40.4968 29.0705 40.5104 29.0705 40.5286C29.5341 40.4559 30.0205 40.5468 30.425 40.8059C30.9796 41.165 31.3114 41.7741 31.3114 42.4377C31.3114 42.8195 31.2023 43.1832 31.0023 43.4923L31.0159 43.5014C31.4296 43.815 32.0614 43.7786 32.4296 43.4059C32.6523 43.1832 32.7659 42.8832 32.7432 42.5695C32.725 42.2604 32.5705 41.9741 32.3205 41.7832L29.6159 39.6741C29.4205 39.5195 29.3841 39.2332 29.5387 39.0377C29.6932 38.8423 29.9796 38.8059 30.175 38.9604L33.2659 41.3695C33.6523 41.665 34.1978 41.6286 34.5432 41.2832C34.7478 41.0786 34.8478 40.8013 34.825 40.515C34.8023 40.2286 34.6569 39.9695 34.4205 39.8059C34.1841 39.6423 34.4205 39.8059 34.4159 39.8059L31.2841 37.565C31.0796 37.4195 31.0341 37.1332 31.1796 36.9286C31.325 36.7241 31.6069 36.6786 31.8159 36.8241L35.0932 39.1695C35.5932 39.5241 36.2887 39.4377 36.6841 38.9695C36.8978 38.715 36.9932 38.3923 36.9523 38.065C36.9114 37.7377 36.7432 37.4468 36.475 37.2513L34.9023 36.0832L33.0341 34.6968C32.8341 34.5468 32.7887 34.265 32.9387 34.0604C32.975 34.0104 33.0205 33.9741 33.0659 33.9468L33.0705 33.9423C33.225 33.8513 33.4205 33.8559 33.575 33.965L37.375 36.7741C37.7887 37.0786 38.3978 37.0332 38.775 36.665C39.0614 36.3786 39.1569 35.9513 39.0341 35.5695C39.0159 35.5604 38.9978 35.5604 38.9841 35.5559Z" fill="#FFC046"/>
<path d="M30.0218 43.3313L30.2354 42.9994C30.3445 42.8358 30.3991 42.6404 30.3991 42.4358C30.3991 42.0813 30.2218 41.754 29.9309 41.5676C29.5991 41.354 29.1673 41.354 28.8263 41.5585C28.79 41.5767 28.7763 41.5949 28.7536 41.6131C28.7491 41.6176 28.74 41.6222 28.7354 41.6267C28.7309 41.6267 28.7309 41.6313 28.7263 41.6358C28.7082 41.6494 28.6854 41.6767 28.6673 41.6949C28.54 41.854 28.2173 42.2722 27.9309 42.6495C27.7673 42.8813 27.7036 43.1585 27.7536 43.4358C27.8082 43.7176 27.9673 43.954 28.2082 44.1085L28.2718 44.1494C28.4945 44.2949 28.7718 44.3495 29.0354 44.2904C29.3082 44.2313 29.54 44.0722 29.69 43.8404L30.0218 43.3313C30.0173 43.3358 30.0173 43.3358 30.0218 43.3313Z" fill="#FFC046"/>
</g>
<defs>
<clipPath id="clip0_1_6043">
<rect width="30" height="30" fill="white" transform="translate(15.6667 15)"/>
</clipPath>
</defs>
</svg>
