<svg width="183" height="54" viewBox="0 0 183 54" fill="none" xmlns="http://www.w3.org/2000/svg">
<path d="M44.7959 38.7548V38.73C44.7959 38.226 44.9611 37.7386 45.2627 37.3338L55.1769 24.1479L56.8045 26.0522H45.5105V21.7437H57.767C59.0476 21.7437 60.0886 22.7846 60.0886 24.0652C60.0886 24.5651 59.9275 25.0525 59.6259 25.4532L49.7613 38.6681L48.1048 36.9579H60.3901V41.0723H47.1133C45.8327 41.0723 44.7917 40.0313 44.7917 38.7507L44.7959 38.7548Z" fill="white"/>
<path d="M67.57 41.378C66.4836 41.378 65.5583 41.1425 64.794 40.6757C64.0298 40.2048 63.4391 39.5314 63.026 38.6474C62.6129 37.7634 62.4064 36.7059 62.4064 35.4707V26.4157H66.8512V34.8635C66.8512 35.4542 66.9421 35.9582 67.128 36.3837C67.3139 36.8092 67.5865 37.1355 67.9583 37.3627C68.326 37.594 68.768 37.7056 69.2844 37.7056C69.6727 37.7056 70.0238 37.6395 70.346 37.5114C70.6682 37.3834 70.945 37.2057 71.1763 36.9744C71.4077 36.7431 71.5853 36.4787 71.7133 36.173C71.8414 35.8714 71.9075 35.5327 71.9075 35.1651V26.4116H76.3524V41.0723H72.1843L71.9901 38.0608L72.8204 37.7304C72.5974 38.4285 72.2297 39.0523 71.7175 39.5934C71.2011 40.1346 70.5856 40.5683 69.8668 40.8905C69.148 41.2127 68.3838 41.3738 67.5742 41.3738L67.57 41.378Z" fill="white"/>
<path d="M79.0621 49.1112V26.4159H83.2591L83.4243 29.7L82.594 29.4522C82.7221 28.8449 83.036 28.2914 83.5317 27.7957C84.0274 27.3 84.6595 26.8993 85.4237 26.5936C86.1879 26.292 86.9934 26.1392 87.8403 26.1392C89.092 26.1392 90.2073 26.4655 91.1822 27.1182C92.1571 27.7709 92.9255 28.6632 93.4873 29.795C94.0491 30.9269 94.33 32.2364 94.33 33.7277C94.33 35.2189 94.0491 36.5078 93.4873 37.6479C92.9255 38.7881 92.153 39.6886 91.1698 40.3413C90.1867 40.994 89.0589 41.3203 87.7866 41.3203C86.9563 41.3203 86.1673 41.1633 85.4113 40.8494C84.6553 40.5354 84.0192 40.1141 83.5069 39.5771C82.9906 39.0442 82.6518 38.4617 82.4866 37.8379L83.5069 37.4496V49.103H79.0621V49.1112ZM86.7084 37.5983C87.3694 37.5983 87.9518 37.4372 88.4475 37.115C88.9432 36.7928 89.3316 36.3467 89.6083 35.7766C89.8851 35.2065 90.0214 34.5249 90.0214 33.7318C90.0214 32.9387 89.8851 32.2818 89.6083 31.7035C89.3316 31.1252 88.9515 30.6708 88.4641 30.3527C87.9766 30.0305 87.39 29.8694 86.7125 29.8694C86.0351 29.8694 85.4443 30.0264 84.9445 30.3403C84.4488 30.6543 84.0605 31.1045 83.7837 31.6953C83.5069 32.286 83.3706 32.9634 83.3706 33.7359C83.3706 34.5084 83.5069 35.2107 83.7837 35.7807C84.0605 36.3508 84.4447 36.7969 84.9445 37.1192C85.4402 37.4414 86.0309 37.6025 86.7125 37.6025L86.7084 37.5983Z" fill="white"/>
<path d="M104.24 41.3532C102.621 41.3532 101.212 41.0269 100.014 40.3742C98.8162 39.7215 97.8867 38.8292 97.2258 37.6974C96.5648 36.5655 96.2302 35.2725 96.2302 33.8184C96.2302 32.6948 96.4161 31.6662 96.7838 30.7244C97.1514 29.7867 97.6678 28.9729 98.3287 28.283C98.9897 27.5931 99.7787 27.0602 100.687 26.6802C101.6 26.3043 102.596 26.1143 103.682 26.1143C104.769 26.1143 105.657 26.3001 106.512 26.6678C107.367 27.0355 108.111 27.5518 108.735 28.2128C109.358 28.8737 109.837 29.6586 110.172 30.5591C110.503 31.4597 110.651 32.447 110.614 33.5127L110.585 34.6983H98.9071L98.2709 32.2115H106.995L106.524 32.7361V32.1826C106.487 31.7241 106.343 31.311 106.095 30.9516C105.847 30.5922 105.521 30.3113 105.116 30.1089C104.711 29.9064 104.252 29.8032 103.736 29.8032C103.017 29.8032 102.406 29.9478 101.898 30.2328C101.39 30.5178 101.01 30.9309 100.754 31.4762C100.497 32.0173 100.365 32.6866 100.365 33.4797C100.365 34.2728 100.535 34.9957 100.878 35.5906C101.216 36.1896 101.716 36.6523 102.369 36.9869C103.021 37.3173 103.798 37.4826 104.703 37.4826C105.327 37.4826 105.884 37.3917 106.372 37.2058C106.859 37.024 107.388 36.7101 107.958 36.2681L110.028 39.1969C109.457 39.6926 108.85 40.0974 108.206 40.4114C107.561 40.7253 106.905 40.9608 106.231 41.1136C105.558 41.2706 104.893 41.3491 104.228 41.3491L104.24 41.3532Z" fill="white"/>
<path d="M113.436 41.0764V26.4158H117.633L117.827 31.1911L116.996 30.2782C117.215 29.4851 117.579 28.7787 118.087 28.1508C118.591 27.527 119.186 27.0272 119.867 26.6595C120.549 26.2919 121.276 26.106 122.049 26.106C122.379 26.106 122.689 26.1349 122.974 26.1886C123.259 26.2423 123.523 26.3084 123.759 26.3827L122.544 31.2696C122.342 31.1416 122.069 31.0342 121.73 30.9515C121.388 30.8689 121.036 30.8276 120.669 30.8276C120.264 30.8276 119.888 30.8978 119.537 31.0342C119.186 31.1705 118.893 31.3688 118.653 31.629C118.413 31.8851 118.223 32.1908 118.087 32.5419C117.951 32.8931 117.88 33.2855 117.88 33.7275V41.0723H113.436V41.0764Z" fill="white"/>
<path d="M126.465 41.0762V21.7476H134.801C136.015 21.7476 137.098 22.0243 138.044 22.5779C138.99 23.1314 139.745 23.8874 140.307 24.8416C140.869 25.8 141.15 26.874 141.15 28.072C141.15 29.27 140.869 30.4432 140.307 31.4263C139.745 32.4095 138.99 33.1902 138.044 33.7603C137.093 34.3304 136.015 34.6154 134.801 34.6154H131.157V41.0762H126.465ZM131.075 30.501H134.14C134.545 30.501 134.912 30.4018 135.243 30.1994C135.573 29.997 135.842 29.7202 136.044 29.3691C136.247 29.018 136.35 28.6132 136.35 28.1546C136.35 27.6961 136.247 27.2706 136.044 26.9401C135.842 26.6097 135.573 26.3494 135.243 26.1676C134.912 25.9859 134.545 25.8909 134.14 25.8909H131.075V30.501Z" fill="white"/>
<path d="M149.66 41.3535C148.131 41.3535 146.776 41.023 145.587 40.3579C144.401 39.697 143.459 38.7923 142.769 37.6522C142.079 36.512 141.732 35.2025 141.732 33.7319C141.732 32.2613 142.079 30.9518 142.769 29.8117C143.459 28.6715 144.397 27.771 145.587 27.1059C146.772 26.445 148.131 26.1104 149.66 26.1104C151.188 26.1104 152.543 26.4408 153.733 27.1059C154.918 27.7668 155.852 28.6715 156.534 29.8117C157.215 30.9518 157.554 32.2613 157.554 33.7319C157.554 35.2025 157.211 36.512 156.534 37.6522C155.852 38.7923 154.918 39.697 153.733 40.3579C152.547 41.0189 151.188 41.3535 149.66 41.3535ZM149.66 37.5406C150.321 37.5406 150.911 37.3754 151.428 37.0449C151.944 36.7144 152.349 36.2642 152.642 35.6941C152.936 35.124 153.076 34.4713 153.055 33.7319C153.072 32.9966 152.936 32.3357 152.642 31.7573C152.349 31.179 151.944 30.7205 151.428 30.39C150.911 30.0595 150.325 29.8943 149.66 29.8943C148.995 29.8943 148.404 30.0595 147.879 30.39C147.355 30.7205 146.946 31.1749 146.652 31.7573C146.359 32.3357 146.219 32.9966 146.239 33.7319C146.223 34.4672 146.359 35.124 146.652 35.6941C146.946 36.2642 147.355 36.7144 147.879 37.0449C148.404 37.3754 148.999 37.5406 149.66 37.5406Z" fill="white"/>
<path d="M165.399 41.353C163.961 41.353 162.697 41.1217 161.602 40.6632C160.508 40.2046 159.636 39.585 158.992 38.8125L161.668 36.4951C162.238 37.0651 162.883 37.4865 163.602 37.7509C164.32 38.0194 165.002 38.1516 165.646 38.1516C165.903 38.1516 166.134 38.1226 166.336 38.0689C166.539 38.0152 166.708 37.9367 166.849 37.8335C166.985 37.7343 167.092 37.6145 167.167 37.4741C167.241 37.3378 167.278 37.1767 167.278 36.9908C167.278 36.6231 167.113 36.3381 166.782 36.1357C166.617 36.0448 166.34 35.9332 165.952 35.8052C165.564 35.6771 165.068 35.5284 164.461 35.3632C163.597 35.1442 162.846 34.8799 162.21 34.5783C161.573 34.2767 161.053 33.9215 160.648 33.5167C160.28 33.1283 159.995 32.7029 159.793 32.2319C159.591 31.761 159.487 31.2323 159.487 30.6457C159.487 29.9641 159.648 29.3486 159.971 28.795C160.293 28.2415 160.727 27.7664 161.268 27.3616C161.809 26.9567 162.437 26.6469 163.143 26.4362C163.854 26.2256 164.585 26.1182 165.337 26.1182C166.146 26.1182 166.919 26.209 167.654 26.3949C168.389 26.5808 169.075 26.8369 169.711 27.1674C170.347 27.4979 170.913 27.8945 171.409 28.353L169.092 30.9472C168.761 30.6333 168.389 30.3524 167.972 30.1045C167.555 29.8567 167.129 29.6584 166.687 29.5097C166.245 29.3609 165.841 29.2907 165.473 29.2907C165.196 29.2907 164.952 29.3155 164.742 29.3609C164.531 29.4064 164.349 29.4807 164.205 29.5799C164.056 29.6832 163.949 29.8029 163.874 29.9393C163.8 30.0756 163.763 30.2367 163.763 30.4226C163.763 30.6085 163.812 30.782 163.916 30.9472C164.015 31.1125 164.159 31.2488 164.345 31.3603C164.531 31.4718 164.824 31.5958 165.229 31.7321C165.634 31.8684 166.188 32.0419 166.886 32.2443C167.749 32.4839 168.497 32.7483 169.121 33.0457C169.744 33.339 170.244 33.6902 170.612 34.095C170.905 34.4089 171.128 34.7725 171.273 35.1855C171.421 35.5986 171.492 36.0448 171.492 36.524C171.492 37.4617 171.227 38.2961 170.707 39.0232C170.186 39.7502 169.459 40.3203 168.538 40.7334C167.617 41.1465 166.568 41.353 165.39 41.353H165.399Z" fill="white"/>
<path d="M172.743 29.3154V25.4489H182.6V29.3154H172.743ZM175.337 41.0762V21.7476H179.753V41.0762H175.337Z" fill="white"/>
<path d="M24.5663 39.9447C25.219 39.5316 25.8634 39.2052 26.5119 38.9656C26.6689 38.9119 26.8259 38.8582 26.987 38.8128C27.1853 38.7591 27.3877 38.7137 27.5942 38.6765C27.9289 38.6145 28.2717 38.5691 28.6187 38.5484C28.6187 38.5484 29.2879 38.5112 30.1761 38.631C30.8412 38.7384 31.5434 38.9367 32.2994 39.2259C36.1907 40.9774 34.939 46.7979 30.6718 46.7979H23.0502C25.7105 45.8189 26.5202 42.0432 24.5663 39.9405V39.9447Z" fill="#F58345"/>
<path d="M1.9949 43.1212C2.13949 44.0672 2.44517 44.9925 2.89544 45.8311C5.721 49.8257 10.013 50.718 12.8221 50.8254C13.1484 50.8378 13.45 50.8378 13.7309 50.8337C14.3381 50.7634 14.8214 50.499 14.2885 49.8092C14.177 49.7307 14.0737 49.6522 13.9663 49.5737C13.545 49.2639 13.1567 48.9541 12.8097 48.6484C12.7312 48.5823 12.661 48.5121 12.5866 48.446C12.5246 48.3881 12.4627 48.3344 12.4048 48.2766C12.3057 48.1816 12.2107 48.0866 12.1198 47.9916C12.0909 47.9627 12.0578 47.9296 12.0289 47.9007C11.9546 47.8222 11.8843 47.7437 11.8141 47.6652C11.7687 47.6157 11.7232 47.5661 11.6819 47.5207C11.6324 47.4669 11.591 47.4091 11.5415 47.3554C11.4795 47.2811 11.4175 47.2067 11.3597 47.1323C11.3308 47.0952 11.3019 47.058 11.2771 47.0208C11.2193 46.9465 11.1614 46.8762 11.1119 46.8019C11.0953 46.7771 11.0788 46.7523 11.0623 46.7275C8.68287 43.8565 10.232 39.7586 11.7521 38.5359C10.8062 40.4237 10.9136 42.39 11.4795 44.1746C11.5332 44.3357 11.5869 44.4927 11.6406 44.6538C11.653 44.6868 11.6654 44.7158 11.6778 44.7488C11.81 45.0958 11.9546 45.4345 12.1115 45.7609C12.1115 45.7691 12.1198 45.7774 12.1239 45.7857C12.2437 46.0046 12.3801 46.2111 12.5453 46.3764C12.5577 46.3888 12.5742 46.397 12.5866 46.4094C12.6527 46.4714 12.7229 46.5251 12.7973 46.5747C13.0369 46.7192 13.3178 46.8019 13.6069 46.8019C13.6069 46.8019 13.9457 46.8019 14.4786 46.8019H20.7245C27.9908 45.7196 24.6324 36.4498 16.8208 38.8787V37.6353V37.5073C16.1144 37.3834 15.3956 37.1851 14.6727 36.8959C12.1942 35.9045 11.211 34.5702 11.116 33.3227C11.525 34.343 12.6155 35.3303 14.7016 36.0284C15.4204 36.268 16.1309 36.4209 16.8208 36.5076C16.9984 36.5283 17.1761 36.5448 17.3496 36.5572C17.3702 36.5572 17.3909 36.5572 17.4115 36.5613C17.4983 36.5654 17.585 36.5696 17.6883 36.5737C18.626 36.5985 20.2577 36.52 22.2695 35.9004C22.2984 35.8921 22.3273 35.8838 22.3562 35.8714C22.3686 35.8714 22.3769 35.8632 22.3893 35.859C22.5132 35.8177 22.6371 35.7723 22.7569 35.7269C22.7776 35.7186 22.7982 35.7103 22.823 35.7021C22.9428 35.6566 23.0585 35.6112 23.17 35.5658C23.1783 35.5658 23.1866 35.5575 23.1989 35.5534C23.3064 35.5079 23.4096 35.4666 23.5129 35.4212C23.5294 35.4129 23.5459 35.4046 23.5666 35.4005C23.6699 35.3551 23.769 35.3096 23.8682 35.2642C23.8888 35.2559 23.9053 35.2477 23.926 35.2353C24.0251 35.1898 24.1201 35.1444 24.211 35.099C24.4465 34.9833 24.6489 34.8057 24.81 34.5826C24.8885 34.4711 24.9587 34.3513 25.0207 34.2232C25.0826 34.0951 25.1281 33.9547 25.1653 33.8142C25.314 33.24 25.2851 32.5667 25.0372 31.9388C24.8554 31.4803 24.5828 31.1085 24.2647 30.8482C24.1284 30.7367 23.9797 30.6458 23.831 30.5797C23.7814 30.5591 23.7277 30.5384 23.6781 30.5219C23.5253 30.4723 23.3642 30.4434 23.2072 30.4434C23.1122 30.4434 23.0131 30.4558 22.918 30.4764C22.9098 30.4764 22.9015 30.4765 22.8891 30.4806C22.0712 30.6706 21.3111 30.7904 20.613 30.8565C20.3321 30.8813 20.0636 30.8978 19.8033 30.9061C19.0184 30.9309 18.3203 30.8813 17.7007 30.7863C17.3909 30.7367 17.1017 30.6789 16.8291 30.6086V30.2203C16.8291 29.1917 16.9654 28.1962 17.2132 27.2461H17.205C13.3632 26.1803 10.4096 21.9007 12.1942 17.84L12.3429 17.8813C11.3886 22.9995 16.9158 27.5476 21.6912 25.2921C25.4296 23.173 27.4497 25.9696 30.8866 26.5727C42.858 28.2168 46.4561 10.3258 34.6994 7.23587C28.9038 6.30228 23.2857 2.69598 17.3082 3.90634C10.5914 4.81928 6.77851 12.6722 7.85668 17.6045C8.1789 19.294 8.2987 21.0125 8.19129 22.7268C8.19129 22.7764 8.18303 22.826 8.18303 22.8756C8.15824 23.2556 8.12107 23.6356 8.07149 24.0116C7.46012 28.791 5.81601 33.4218 3.24657 37.5156C2.87479 38.1104 2.56084 38.73 2.32951 39.391C1.9949 40.4072 1.87097 41.4895 1.94946 42.5594C1.95772 42.6792 1.97012 42.8031 1.98664 42.9229C1.9949 42.989 2.00317 43.0551 2.01143 43.1171L1.9949 43.1212ZM24.0045 12.697C24.0045 13.5397 23.7236 14.3204 23.2526 14.9442C22.3769 14.5187 21.3566 14.3287 20.2949 14.4609C19.3241 14.5807 18.4566 14.9524 17.7461 15.4936C16.9778 14.8037 16.4903 13.8082 16.4903 12.697C16.4903 10.6232 18.1716 8.93781 20.2495 8.93781C22.3273 8.93781 24.0086 10.6191 24.0086 12.697H24.0045ZM35.1786 12.9076C35.9015 12.9076 36.4923 13.4942 36.4923 14.2213C36.4923 14.9483 35.9057 15.5349 35.1786 15.5349C34.4516 15.5349 33.865 14.9483 33.865 14.2213C33.865 13.4942 34.4516 12.9076 35.1786 12.9076Z" fill="#F58345"/>
<path d="M28.9036 34.0706C29.5068 34.4052 30.0851 34.62 30.5519 34.5828V37.8504C29.9777 37.6975 29.3085 37.6975 28.6227 37.7843V33.9219C28.7136 33.9714 28.8086 34.0169 28.9036 34.0623V34.0706Z" fill="#F58345"/>
<path d="M30.5521 33.2816C29.854 33.1783 28.3256 32.6041 26.2642 31.5507C26.0164 31.3896 25.7437 31.2657 25.4711 31.1046C25.0828 30.865 24.7275 30.6295 24.4177 30.4065C24.3557 30.3652 24.2979 30.3156 24.2442 30.266C24.1327 30.1669 24.0335 30.0595 23.9468 29.9397C23.86 29.8199 23.7857 29.6918 23.7237 29.5596C23.5667 29.225 23.4924 28.845 23.4965 28.4608C23.5048 28.0023 23.6328 27.5313 23.8889 27.1182C23.9592 27.0026 24.0376 26.8993 24.1244 26.8002C24.2029 26.7093 24.2896 26.6267 24.3805 26.5523C24.5581 26.4036 24.7523 26.2921 24.9588 26.2094C25.0456 26.1764 25.1365 26.1475 25.2315 26.1227C25.4463 26.0731 25.6694 26.0566 25.8924 26.0855C25.9213 26.0855 25.9544 26.0979 25.9833 26.1062C27.2969 26.5317 28.5445 27.4322 30.5521 27.7007C33.2042 27.9279 32.8407 33.4799 30.5521 33.2733V33.2816Z" fill="#F58345"/>
<path d="M35.1787 12.9077C35.9016 12.9077 36.4923 13.4943 36.4923 14.2214C36.4923 14.9484 35.9057 15.535 35.1787 15.535C34.4516 15.535 33.8651 14.9484 33.8651 14.2214C33.8651 13.4943 34.4516 12.9077 35.1787 12.9077Z" fill="#33475B"/>
<path d="M14.6932 36.0282C15.412 36.2678 16.1225 36.4207 16.8124 36.5074C16.8124 36.5074 17.0272 36.5405 17.4031 36.5611H17.4114C17.5023 36.5653 17.589 36.5694 17.6758 36.5735C18.6135 36.5983 20.2452 36.5198 22.257 35.9002C22.2693 35.9002 22.2817 35.8919 22.2941 35.8878C22.2941 35.8878 19.7412 37.5402 16.8083 37.503C16.1019 37.3791 15.3831 37.1808 14.6602 36.8916C12.1816 35.9002 11.1985 34.5659 11.1035 33.3184C11.5124 34.3387 12.603 35.326 14.6891 36.0241L14.6932 36.0282Z" fill="#33475B"/>
<path d="M4.91987 50.8293C6.94816 52.0851 9.71588 52.9154 13.4668 52.903C15.7099 53.279 17.2218 50.3749 15.4331 48.8713H30.6721C33.4191 48.8713 35.6498 47.066 36.2282 44.3809C36.8974 41.4149 35.1335 38.61 32.2666 37.7178V34.8674C33.9768 33.7232 34.5717 30.7489 33.8322 28.6091C46.13 26.8493 47.1875 9.07391 35.1169 5.92202C29.4989 4.9843 24.2196 1.76631 18.4032 2.3529C18.2173 2.36943 18.0356 2.39008 17.8497 2.40247C17.5564 2.42313 16.978 2.47683 16.2221 2.63793C15.4537 1.72087 14.3012 1.13428 13.0082 1.13428C10.6866 1.13428 8.80707 3.01385 8.80707 5.33543C8.80707 5.65764 8.84838 5.97572 8.91861 6.27728C8.50552 6.15748 8.06764 6.09139 7.61737 6.09139C5.0562 6.09139 2.98247 8.16511 2.98247 10.7263C2.98247 12.4737 3.94911 13.9939 5.37428 14.7829C3.01965 15.0059 1.17725 16.9846 1.17725 19.3971C1.17725 21.4667 2.5322 23.2182 4.40351 23.8131C2.49089 24.189 1.04506 25.8785 1.04506 27.9027C1.04506 29.6501 2.11911 31.1413 3.64342 31.7651C1.69362 31.7651 0.115607 33.3472 0.115607 35.297C0.115607 36.0819 0.375856 36.8089 0.813734 37.3955C0.644366 37.7962 0.503915 38.2093 0.400641 38.6307C-0.210736 41.1671 -0.817981 46.9669 4.91987 50.8417V50.8293ZM23.0546 46.8058C25.715 45.8268 26.5246 42.0511 24.5707 39.9485C25.2234 39.5354 25.8678 39.209 26.5164 38.9694C27.673 38.5481 28.8545 38.42 30.1805 38.6348C30.8456 38.7422 31.5478 38.9405 32.3038 39.2297C36.1951 40.9812 34.9434 46.8017 30.6762 46.8017H23.0546V46.8058ZM2.30913 39.3908C2.52807 38.7298 2.82962 38.0978 3.22619 37.5153C5.79563 33.4216 7.43974 28.7908 8.05111 24.0113C8.10069 23.6313 8.13373 23.2554 8.16265 22.8753C8.16265 22.8258 8.17091 22.7762 8.17091 22.7266C8.27832 21.0164 8.15852 19.2938 7.83631 17.6043C6.75814 12.672 10.571 4.81907 17.2879 3.90613C23.2653 2.69577 28.8792 6.30207 34.6791 7.23566C46.4357 10.3256 42.8376 28.2208 30.8662 26.5725C27.4293 25.9694 25.4093 23.1728 21.6708 25.2919C16.8954 27.5474 11.3682 22.9993 12.3225 17.8811L12.1738 17.8397C10.3892 21.9046 13.3428 26.1801 17.1846 27.2459C17.197 27.2459 17.2135 27.2541 17.2259 27.2583C18.6552 27.6466 20.2043 27.5929 21.679 26.9113C22.2615 26.5436 22.7779 26.2999 23.2571 26.1346C24.3187 25.767 25.1655 25.8413 25.9793 26.1057C27.293 26.5312 28.5405 27.4317 30.5481 27.7003C33.2002 27.9275 32.8367 33.4794 30.5481 33.2729C29.85 33.1696 28.3216 32.5954 26.2602 31.542C25.9752 31.3974 25.6984 31.2446 25.4382 31.0959C25.4341 31.0959 25.4258 31.0876 25.4217 31.0876C25.434 31.1744 25.7356 31.5255 26.19 31.9716C26.8757 32.6409 27.9167 33.5166 28.904 34.066C29.5071 34.4006 30.0855 34.6154 30.5523 34.5783V37.8458C29.9781 37.693 29.3089 37.693 28.6231 37.7797C28.5198 37.7921 28.4207 37.8086 28.3174 37.8252C27.2888 37.9987 26.252 38.3704 25.4795 38.7753C24.9012 39.0768 24.4633 39.3949 24.2939 39.6634C22.9514 38.3746 21.5758 37.9367 20.3737 37.8913C20.1878 37.883 20.0143 37.8913 19.8408 37.8954C19.7003 37.8995 19.5599 37.9078 19.4277 37.9202C19.2583 37.9367 19.0889 37.9532 18.932 37.978C18.9237 37.978 18.9154 37.978 18.9072 37.978C18.0975 38.1143 17.4944 38.3663 17.1474 38.577C16.9409 38.7009 16.8211 38.8125 16.8169 38.8703C24.6327 36.4413 27.9911 45.7111 20.7207 46.7934H14.4747C13.9418 46.7934 13.6031 46.7934 13.6031 46.7934C13.2809 46.8017 13.0165 46.7108 12.7934 46.5662C12.7191 46.5166 12.6488 46.4629 12.5827 46.401C12.5703 46.3886 12.5538 46.3803 12.5414 46.3679C12.3762 46.2027 12.2399 46.0003 12.1201 45.7772C11.9218 45.4137 11.7772 45.0088 11.6368 44.6453C11.5789 44.4883 11.5252 44.3272 11.4757 44.1661C10.9097 42.3816 10.8023 40.4152 11.7483 38.5274C10.2281 39.7502 8.67901 43.848 11.0584 46.719C11.1287 46.8182 11.203 46.9132 11.2774 47.0123C11.3063 47.0495 11.3311 47.0867 11.36 47.1239C11.4178 47.1982 11.4798 47.2726 11.5417 47.3469C11.5872 47.4006 11.6326 47.4585 11.6822 47.5122C11.7235 47.5618 11.7731 47.6113 11.8144 47.6568C11.8846 47.7352 11.9548 47.8137 12.0292 47.8922C12.0581 47.9211 12.0912 47.9542 12.1201 47.9831C12.211 48.0781 12.306 48.1731 12.4051 48.2681C12.4629 48.326 12.529 48.3797 12.5869 48.4375C12.6612 48.5036 12.7315 48.5738 12.8099 48.6399C13.1569 48.9456 13.5452 49.2513 13.9666 49.5653C14.074 49.6437 14.1773 49.7222 14.2888 49.8007C14.8217 50.4906 14.3384 50.755 13.7311 50.8252C13.4172 50.8624 13.0743 50.85 12.8223 50.8169C10.0133 50.7095 5.72127 49.8172 2.89572 45.8226C2.42893 44.9799 2.1315 44.0546 1.99518 43.1127C1.98692 43.0466 1.97865 42.9806 1.97039 42.9186C1.95387 42.7988 1.94148 42.6749 1.93321 42.5551C1.8506 41.4852 1.97452 40.4029 2.31326 39.3867L2.30913 39.3908Z" fill="#33475B"/>
<path d="M16.4861 12.6966C16.4861 13.8079 16.9735 14.8075 17.7419 15.4933C18.4524 14.9521 19.324 14.5803 20.2906 14.4606C21.3523 14.3284 22.3726 14.5184 23.2484 14.9439C23.7193 14.316 24.0002 13.5394 24.0002 12.6966C24.0002 10.6229 22.3189 8.9375 20.2411 8.9375C18.1632 8.9375 16.4819 10.6188 16.4819 12.6966H16.4861Z" fill="#33475B"/>
<path d="M16.8129 37.507C19.7459 37.5401 22.2988 35.8918 22.2988 35.8918C22.2864 35.8918 22.274 35.9001 22.2616 35.9042C22.2905 35.896 22.3195 35.8877 22.3484 35.8753C22.3608 35.8753 22.369 35.8671 22.3814 35.8629C22.5053 35.8216 22.6293 35.7762 22.7491 35.7307C22.7697 35.7225 22.7904 35.7142 22.8152 35.7059C22.935 35.6605 23.0506 35.6151 23.1622 35.5696C23.1704 35.5696 23.1787 35.5614 23.1911 35.5572C23.2985 35.5118 23.4018 35.4705 23.505 35.425C23.5215 35.4168 23.5381 35.4085 23.5587 35.4044C23.662 35.3589 23.7611 35.3135 23.8603 35.2681C23.8809 35.2598 23.8975 35.2515 23.9181 35.2391C24.0173 35.1937 24.1123 35.1483 24.2032 35.1028C24.4386 34.9872 24.641 34.8095 24.8021 34.5865C24.8806 34.4749 24.9509 34.3551 25.0128 34.2271C25.0748 34.099 25.1202 33.9586 25.1574 33.8181C25.3061 33.2439 25.2772 32.5706 25.0293 31.9427C24.8476 31.4841 24.5749 31.1124 24.2569 30.8521C24.1205 30.7406 23.9718 30.6497 23.8231 30.5836C23.7735 30.5629 23.7198 30.5423 23.6703 30.5258C23.5174 30.4762 23.3563 30.4473 23.1993 30.4473C23.1043 30.4473 23.0052 30.4597 22.9102 30.4803C22.9019 30.4803 22.8937 30.4803 22.8813 30.4845C22.0633 30.6745 21.3032 30.7943 20.6051 30.8604C20.3242 30.8852 20.0557 30.9017 19.7955 30.9099C19.0106 30.9347 18.3125 30.8852 17.6928 30.7901C17.383 30.7406 17.0938 30.6827 16.8212 30.6125V30.2242C16.8212 29.1956 16.9575 28.2001 17.2054 27.2499C17.2178 27.2499 17.226 27.2541 17.2384 27.2582C18.6677 27.6465 20.2168 27.5928 21.6915 26.9112C21.9105 26.8203 22.1212 26.7212 22.3277 26.6138L22.8771 26.3081C23.0011 26.242 23.1332 26.1883 23.2654 26.1346C24.3271 25.7669 25.1739 25.8413 25.9877 26.1057C25.9588 26.1015 25.9258 26.0892 25.8968 26.085C25.6779 26.0561 25.4548 26.0685 25.2359 26.1222C25.145 26.1429 25.0541 26.1718 24.9632 26.2089C24.7567 26.2874 24.5625 26.4031 24.3849 26.5518C24.294 26.6262 24.2073 26.7088 24.1288 26.7997C24.0421 26.8947 23.9636 27.0021 23.8933 27.1178C23.6331 27.5308 23.505 27.9976 23.5009 28.4603C23.4926 28.8445 23.5711 29.2204 23.7281 29.5591C23.7901 29.6954 23.8644 29.8194 23.9512 29.9392C24.0379 30.059 24.1371 30.1664 24.2486 30.2655C24.3023 30.3151 24.3601 30.3605 24.4221 30.406C24.736 30.629 25.0913 30.8645 25.4755 31.1041C25.459 31.0958 25.4424 31.0876 25.4259 31.0752C25.4259 31.0752 25.4342 31.0834 25.4466 31.1C25.4424 31.1 25.4342 31.0917 25.43 31.0917C25.4424 31.1784 25.744 31.5296 26.1984 31.9757C26.7726 32.583 27.6236 33.372 28.6274 33.9296V37.7921C28.5241 37.8045 28.425 37.821 28.3217 37.8375C27.1237 37.9862 26.1777 38.3745 25.4837 38.7876C24.9054 39.0892 24.4675 39.4073 24.2982 39.6758C22.9556 38.3869 21.58 37.949 20.3779 37.9036C20.3531 37.9036 20.3325 37.9036 20.3077 37.9036C20.159 37.9036 20.0103 37.9036 19.8657 37.9077C19.8574 37.9077 19.8492 37.9077 19.845 37.9077C19.7046 37.9119 19.5641 37.9201 19.4319 37.9325C19.2543 37.9449 19.0932 37.9656 18.9362 37.9903C18.928 37.9903 18.9197 37.9903 18.9114 37.9903C17.9985 38.1267 17.4532 38.3828 17.1517 38.5893C16.9451 38.7133 16.8253 38.8248 16.8212 38.8826V37.6392V37.5112L16.8129 37.507Z" fill="white"/>
<path d="M17.3417 36.5574C17.3417 36.5574 17.383 36.5574 17.4036 36.5615C17.0277 36.5409 16.8129 36.5078 16.8129 36.5078C16.9906 36.5285 17.1682 36.545 17.3417 36.5574Z" fill="white"/>
<path d="M17.4037 36.5615C17.4905 36.5657 17.5772 36.5698 17.6805 36.5739C17.5938 36.5739 17.5029 36.5698 17.4161 36.5615C17.4161 36.5615 17.4079 36.5615 17.4037 36.5615Z" fill="white"/>
<path d="M19.853 12.2755C20.4231 12.197 20.8238 11.6724 20.7453 11.1023C20.6668 10.5322 20.1422 10.1315 19.5721 10.21C19.0021 10.2885 18.6014 10.8131 18.6799 11.3832C18.7584 11.9533 19.283 12.354 19.853 12.2755Z" fill="white"/>
<path d="M21.679 13.3002C22.026 13.2547 22.2656 12.9366 22.2201 12.5896C22.1747 12.2426 21.8566 12.0031 21.5096 12.0485C21.1626 12.0939 20.923 12.412 20.9685 12.759C21.0139 13.106 21.332 13.3456 21.679 13.3002Z" fill="white"/>
</svg>
