<svg width="34" height="10" viewBox="0 0 34 10" fill="none" xmlns="http://www.w3.org/2000/svg">
<path d="M8.96952 5.35907C8.96952 7.62424 7.15449 9.45159 4.9265 9.45159C2.69852 9.45159 0.883486 7.62424 0.883486 5.35907C0.883486 3.09389 2.69852 1.26654 4.9265 1.26654C7.15449 1.26654 8.96952 3.09389 8.96952 5.35907Z" fill="white" stroke="black" stroke-width="0.959355"/>
<path d="M21.0752 5.35907C21.0752 7.62424 19.2602 9.45159 17.0322 9.45159C14.8042 9.45159 12.9892 7.62424 12.9892 5.35907C12.9892 3.09389 14.8042 1.26654 17.0322 1.26654C19.2602 1.26654 21.0752 3.09389 21.0752 5.35907Z" fill="white" stroke="black" stroke-width="0.959355"/>
<path d="M33.1812 5.35907C33.1812 7.62424 31.3662 9.45159 29.1382 9.45159C26.9102 9.45159 25.0952 7.62424 25.0952 5.35907C25.0952 3.09389 26.9102 1.26654 29.1382 1.26654C31.3662 1.26654 33.1812 3.09389 33.1812 5.35907Z" fill="white" stroke="black" stroke-width="0.959355"/>
</svg>
