<svg width="31" height="29" viewBox="0 0 31 29" fill="none" xmlns="http://www.w3.org/2000/svg">
<path d="M17.0056 4.43014C16.063 4.9257 14.937 4.9257 13.9944 4.43014L8.48611 1.53429C7.37437 0.949814 6.07502 1.89385 6.28734 3.13179L7.33932 9.2653C7.51935 10.3149 7.17136 11.3859 6.40878 12.1292L1.95252 16.473C1.05311 17.3497 1.54942 18.8772 2.79238 19.0578L8.95078 19.9527C10.0046 20.1058 10.9157 20.7677 11.387 21.7227L14.1411 27.3031C14.697 28.4294 16.303 28.4294 16.8589 27.3031L19.613 21.7227C20.0843 20.7677 20.9954 20.1058 22.0492 19.9527L28.2076 19.0578C29.4506 18.8772 29.9469 17.3497 29.0475 16.473L24.5912 12.1292C23.8286 11.3859 23.4807 10.3149 23.6607 9.2653L24.7127 3.13178C24.925 1.89385 23.6256 0.949814 22.5139 1.53429L17.0056 4.43014Z" fill="white" stroke="#212121" stroke-width="1.72018"/>
</svg>
