<svg width="34" height="10" viewBox="0 0 34 10" fill="none" xmlns="http://www.w3.org/2000/svg">
<path d="M8.96955 4.7741C8.96955 7.03928 7.15452 8.86663 4.92653 8.86663C2.69855 8.86663 0.883517 7.03928 0.883517 4.7741C0.883517 2.50893 2.69855 0.681582 4.92653 0.681582C7.15452 0.681582 8.96955 2.50893 8.96955 4.7741Z" fill="#20BF90" stroke="black" stroke-width="0.959355"/>
<path d="M21.0753 4.7741C21.0753 7.03928 19.2602 8.86663 17.0322 8.86663C14.8043 8.86663 12.9892 7.03928 12.9892 4.7741C12.9892 2.50893 14.8043 0.681582 17.0322 0.681582C19.2602 0.681582 21.0753 2.50893 21.0753 4.7741Z" fill="#20BF90" stroke="black" stroke-width="0.959355"/>
<path d="M33.1812 4.7741C33.1812 7.03928 31.3662 8.86663 29.1382 8.86663C26.9102 8.86663 25.0952 7.03928 25.0952 4.7741C25.0952 2.50893 26.9102 0.681582 29.1382 0.681582C31.3662 0.681582 33.1812 2.50893 33.1812 4.7741Z" fill="#20BF90" stroke="black" stroke-width="0.959355"/>
</svg>
