<svg width="27" height="26" viewBox="0 0 27 26" fill="none" xmlns="http://www.w3.org/2000/svg">
<path d="M15.3038 21.7625C14.3612 21.2669 13.2351 21.2669 12.2925 21.7625L7.88438 24.08C6.77264 24.6645 5.47329 23.7204 5.68561 22.4825L6.52749 17.574C6.70751 16.5243 6.35953 15.4534 5.59695 14.71L2.03068 11.2338C1.13126 10.3571 1.62757 8.82959 2.87053 8.64897L7.799 7.93283C8.85286 7.77969 9.76389 7.11779 10.2352 6.16283L12.4393 1.69688C12.9951 0.570566 14.6012 0.570565 15.1571 1.69688L17.3612 6.16283C17.8325 7.11779 18.7435 7.77969 19.7974 7.93283L24.7258 8.64897C25.9688 8.82959 26.4651 10.3571 25.5657 11.2338L21.9994 14.71C21.2368 15.4534 20.8889 16.5243 21.0689 17.574L21.9108 22.4825C22.1231 23.7204 20.8237 24.6645 19.712 24.08L15.3038 21.7625Z" fill="#C2FFA0" stroke="#212121" stroke-width="1.72018"/>
</svg>
