<svg width="35" height="10" viewBox="0 0 35 10" fill="none" xmlns="http://www.w3.org/2000/svg">
<path d="M25.4572 4.7741C25.4572 7.03928 27.2723 8.86663 29.5003 8.86663C31.7282 8.86663 33.5433 7.03928 33.5433 4.7741C33.5433 2.50893 31.7282 0.681582 29.5003 0.681582C27.2723 0.681582 25.4572 2.50893 25.4572 4.7741Z" fill="#FF5C35" stroke="black" stroke-width="0.959355"/>
<path d="M13.3515 4.7741C13.3515 7.03928 15.1666 8.86663 17.3945 8.86663C19.6225 8.86663 21.4376 7.03928 21.4376 4.7741C21.4376 2.50893 19.6225 0.681582 17.3945 0.681582C15.1666 0.681582 13.3515 2.50893 13.3515 4.7741Z" fill="#FF5C35" stroke="black" stroke-width="0.959355"/>
<path d="M1.2456 4.7741C1.2456 7.03928 3.06063 8.86663 5.28862 8.86663C7.5166 8.86663 9.33163 7.03928 9.33163 4.7741C9.33163 2.50893 7.5166 0.681582 5.28862 0.681582C3.06063 0.681582 1.2456 2.50893 1.2456 4.7741Z" fill="#FF5C35" stroke="black" stroke-width="0.959355"/>
</svg>
