<svg width="27" height="26" viewBox="0 0 27 26" fill="none" xmlns="http://www.w3.org/2000/svg">
<path d="M12.1229 21.7625C13.0655 21.2669 14.1916 21.2669 15.1342 21.7625L19.5424 24.08C20.6541 24.6645 21.9535 23.7204 21.7411 22.4825L20.8993 17.574C20.7192 16.5243 21.0672 15.4534 21.8298 14.71L25.3961 11.2338C26.2955 10.3571 25.7992 8.82959 24.5562 8.64897L19.6278 7.93283C18.5739 7.77969 17.6629 7.11779 17.1916 6.16283L14.9875 1.69688C14.4316 0.570566 12.8255 0.570565 12.2697 1.69688L10.0656 6.16283C9.59429 7.11779 8.68326 7.77969 7.62939 7.93283L2.70093 8.64897C1.45796 8.82959 0.961655 10.3571 1.86107 11.2338L5.42734 14.71C6.18993 15.4534 6.53791 16.5243 6.35789 17.574L5.516 22.4825C5.30368 23.7204 6.60303 24.6645 7.71477 24.08L12.1229 21.7625Z" fill="#FFC8A0" stroke="#212121" stroke-width="1.72018"/>
</svg>
