<svg width="34" height="10" viewBox="0 0 34 10" fill="none" xmlns="http://www.w3.org/2000/svg">
<path d="M25.4343 5.35882C25.4343 7.624 27.2493 9.45134 29.4773 9.45134C31.7053 9.45134 33.5203 7.624 33.5203 5.35882C33.5203 3.09365 31.7053 1.2663 29.4773 1.2663C27.2493 1.2663 25.4343 3.09365 25.4343 5.35882Z" fill="white" stroke="black" stroke-width="0.959355"/>
<path d="M13.3286 5.35882C13.3286 7.624 15.1436 9.45134 17.3716 9.45134C19.5996 9.45134 21.4146 7.624 21.4146 5.35882C21.4146 3.09365 19.5996 1.2663 17.3716 1.2663C15.1436 1.2663 13.3286 3.09365 13.3286 5.35882Z" fill="white" stroke="black" stroke-width="0.959355"/>
<path d="M1.22262 5.35882C1.22262 7.624 3.03765 9.45134 5.26564 9.45134C7.49362 9.45134 9.30865 7.624 9.30865 5.35882C9.30865 3.09365 7.49362 1.2663 5.26564 1.2663C3.03765 1.2663 1.22262 3.09365 1.22262 5.35882Z" fill="white" stroke="black" stroke-width="0.959355"/>
</svg>
