<svg width="27" height="26" viewBox="0 0 27 26" fill="none" xmlns="http://www.w3.org/2000/svg">
<path d="M12.1229 4.2375C13.0655 4.73306 14.1916 4.73306 15.1342 4.2375L19.5424 1.92C20.6541 1.33552 21.9535 2.27956 21.7412 3.51749L20.8993 8.42605C20.7193 9.47565 21.0672 10.5466 21.8298 11.29L25.3961 14.7662C26.2955 15.6429 25.7992 17.1704 24.5562 17.351L19.6278 18.0672C18.5739 18.2203 17.6629 18.8822 17.1916 19.8372L14.9875 24.3031C14.4316 25.4294 12.8255 25.4294 12.2697 24.3031L10.0656 19.8372C9.5943 18.8822 8.68327 18.2203 7.62941 18.0672L2.70094 17.351C1.45798 17.1704 0.96167 15.6429 1.86109 14.7662L5.42736 11.29C6.18994 10.5466 6.53792 9.47565 6.3579 8.42605L5.51602 3.5175C5.3037 2.27955 6.60305 1.33552 7.71478 1.92L12.1229 4.2375Z" fill="white" stroke="#212121" stroke-width="1.72018"/>
</svg>
