<svg width="104" height="113" viewBox="0 0 104 113" fill="none" xmlns="http://www.w3.org/2000/svg">
<path d="M37.8461 11.6743C38.5397 7.24724 39.7534 2.07944 43.489 0.439143C47.4296 -1.28934 51.9219 2.344 53.372 6.8063C54.8221 11.2686 54.1128 16.1895 53.5454 20.8811C52.9937 25.5903 52.6469 30.6523 54.696 34.7971C57.9746 41.4288 65.903 43.0162 72.6335 42.1872C79.3483 41.3583 86.0788 38.8361 92.7463 40.1589C99.4137 41.4817 105.845 48.8895 103.512 55.9974C101.321 62.6468 93.5974 64.1107 87.261 64.1813C80.9245 64.2518 73.3586 64.7104 70.1116 70.7953C67.7315 75.2576 68.8033 81.0428 70.7105 85.7873C72.6178 90.5318 75.2816 95.0293 76.0224 100.162C76.7633 105.294 74.6984 111.52 70.1746 112.773C64.9731 114.219 60.402 108.504 58.3371 102.966C56.288 97.428 55.0113 90.9551 50.6293 87.4981C45.2071 83.2122 37.5782 85.6462 31.951 89.597C26.3239 93.5478 21.2484 98.9449 14.7858 100.691C8.33906 102.472 -0.0937854 98.2041 0.000788461 90.761C0.0953624 84.1822 6.33724 80.1432 11.8068 77.7269C17.2763 75.3105 23.6758 72.1181 24.7319 65.6275C25.8668 58.696 20.145 52.999 15.1169 48.766C10.0887 44.5154 4.57186 38.3599 6.28995 31.5694C8.10262 24.3733 17.3866 22.7683 22.9822 26.8426C26.9701 29.7528 29.3817 34.5502 31.7146 38.9596C36.727 33.5448 36.6166 19.4701 37.8461 11.6743Z" fill="#622BFF"/>
<path d="M37.8461 11.6743C38.5397 7.24724 39.7534 2.07944 43.489 0.439143C47.4296 -1.28934 51.9219 2.344 53.372 6.8063C54.8221 11.2686 54.1128 16.1895 53.5454 20.8811C52.9937 25.5903 52.6469 30.6523 54.696 34.7971C57.9746 41.4288 65.903 43.0162 72.6335 42.1872C79.3483 41.3583 86.0788 38.8361 92.7463 40.1589C99.4137 41.4817 105.845 48.8895 103.512 55.9974C101.321 62.6468 93.5974 64.1107 87.261 64.1813C80.9245 64.2518 73.3586 64.7104 70.1116 70.7953C67.7315 75.2576 68.8033 81.0428 70.7105 85.7873C72.6178 90.5318 75.2816 95.0293 76.0224 100.162C76.7633 105.294 74.6984 111.52 70.1746 112.773C64.9731 114.219 60.402 108.504 58.3371 102.966C56.288 97.428 55.0113 90.9551 50.6293 87.4981C45.2071 83.2122 37.5782 85.6462 31.951 89.597C26.3239 93.5478 21.2484 98.9449 14.7858 100.691C8.33906 102.472 -0.0937854 98.2041 0.000788461 90.761C0.0953624 84.1822 6.33724 80.1432 11.8068 77.7269C17.2763 75.3105 23.6758 72.1181 24.7319 65.6275C25.8668 58.696 20.145 52.999 15.1169 48.766C10.0887 44.5154 4.57186 38.3599 6.28995 31.5694C8.10262 24.3733 17.3866 22.7683 22.9822 26.8426C26.9701 29.7528 29.3817 34.5502 31.7146 38.9596C36.727 33.5448 36.6166 19.4701 37.8461 11.6743Z" fill="url(#paint0_linear_1_5971)"/>
<defs>
<linearGradient id="paint0_linear_1_5971" x1="2.36" y1="78.3649" x2="120.505" y2="45.8317" gradientUnits="userSpaceOnUse">
<stop stop-color="#4987FF"/>
<stop offset="1" stop-color="#6A0AFE"/>
</linearGradient>
</defs>
</svg>
