<svg width="124" height="100" viewBox="0 0 124 100" fill="none" xmlns="http://www.w3.org/2000/svg">
<path d="M1.0817 49.6663C0.447354 58.3281 1.24029 67.6243 5.78643 74.641C10.3326 81.6775 19.513 85.4039 26.156 80.9639C38.0323 73.0355 33.4333 48.1004 46.1026 41.8964C50.3316 50.7168 46.7017 61.4202 44.182 71.0335C41.6622 80.6468 41.3274 93.2729 49.0277 98.3075C55.7236 102.688 64.6749 97.9903 69.0448 90.7953C73.4147 83.62 74.613 74.6608 76.6041 66.2566C78.5952 57.8326 81.9784 49.032 88.78 44.8894C93.6962 52.8773 91.1588 63.6402 89.7492 73.2535C88.3571 82.847 89.7844 95.2352 97.9604 98.367C102.648 100.151 107.987 97.8912 111.511 93.9865C115.035 90.0619 117.026 84.7696 118.594 79.4773C123.845 61.6581 124.955 42.3126 121.801 23.8789C120.674 17.2983 118.876 10.5789 114.823 5.66323C110.771 0.767396 103.916 -1.7499 98.6476 1.38185C93.5552 4.41449 91.5993 11.2924 88.8153 16.9811C86.0312 22.65 80.1811 28.0612 75.0182 25.2069C70.525 22.7095 69.9787 15.9901 68.851 10.4996C64.6396 -10.0946 56.2698 9.25087 50.0673 12.5015C42.1556 16.6442 37.6447 9.78604 31.0898 6.43626C10.9493 -3.83112 2.42087 31.3119 1.0817 49.6663Z" fill="#E1D5E3"/>
</svg>
