<svg width="139" height="100" viewBox="0 0 139 100" fill="none" xmlns="http://www.w3.org/2000/svg">
<path d="M107.793 47.6366C105.307 50.2167 105.035 54.7632 106.464 58.2172C107.893 61.6711 110.676 64.1927 113.61 66.0755C116.97 68.2411 120.766 69.7941 124.639 69.6845C131.846 69.4926 140.814 59.9458 133.402 53.0362C128.37 48.3348 113.49 41.7331 107.793 47.6366Z" fill="#6CD1FF"/>
<path d="M105.422 10.2562C102.63 12.5894 100.341 16.3236 100.892 20.1933C101.355 23.4705 103.849 26.0835 106.664 27.0429C109.479 28.0022 112.566 27.526 115.337 26.4019C121.19 24.0315 126.86 16.1709 122.249 9.26162C118.483 3.57739 109.552 6.82501 105.422 10.2562Z" fill="#6CD1FF"/>
<path d="M81.301 37.5537C79.6341 40.5801 78.4549 44.1272 78.897 47.6472C79.5386 52.7064 83.834 56.7838 88.3792 56.848C98.1751 56.9787 99.8203 45.3649 97.5827 37.0734C94.9297 27.2191 85.3508 30.1837 81.301 37.5537Z" fill="#6CD1FF"/>
<path d="M68.4052 7.3542C67.1179 10.3002 66.9155 13.883 68.1062 16.8805C72.0684 26.8691 83.7919 21.5005 82.9784 11.5642C82.3169 3.59757 71.9535 -0.780485 68.4052 7.3542Z" fill="#6CD1FF"/>
<path d="M52.7104 35.5876C48.2984 36.9424 44.6185 40.9714 43.2946 45.8879C41.9859 50.7579 43.2913 56.7684 47.1908 59.3308C50.2266 61.3352 54.2362 60.8457 57.2504 58.8034C60.2646 56.7612 62.403 53.375 63.8635 49.7597C65.3996 45.9507 67.3876 41.0192 64.3524 37.7971C61.6351 34.9323 56.0655 34.5477 52.7104 35.5876Z" fill="#6CD1FF"/>
<path d="M81.9724 73.5515C79.0449 72.863 75.8545 73.0447 73.2834 74.7418C70.7124 76.4389 68.9359 79.8698 69.4818 83.1815C70.1954 87.4498 74.1965 89.8824 77.8579 91.2734C80.6769 92.3271 83.6152 93.126 86.569 92.912C89.5228 92.6981 92.5229 91.3781 94.3931 88.8069C100.991 79.8097 87.8001 74.9039 81.9724 73.5515Z" fill="#6CD1FF"/>
<path d="M21.7743 20.3858C19.6761 16.8917 16.166 14.1471 12.414 14.4262C10.5451 14.562 8.72419 15.4459 7.30819 16.816C4.43249 19.6175 3.30404 24.2977 3.949 28.5243C4.59395 32.7509 6.803 36.5162 9.59543 39.4388C11.8587 41.8234 14.6242 43.7551 17.6916 44.1973C31.025 46.1309 25.95 27.3656 21.7743 20.3858Z" fill="#6CD1FF"/>
<path d="M23.1954 60.5179C20.5544 63.8936 21.0194 69.7398 24.1434 72.5487C27.2675 75.3577 32.4386 74.5571 34.7802 70.9112C40.2663 62.4311 29.3042 52.7204 23.1954 60.5179Z" fill="#6CD1FF"/>
</svg>
