<svg width="188" height="52" viewBox="0 0 188 52" fill="none" xmlns="http://www.w3.org/2000/svg">
<g clip-path="url(#clip0_1_14865)">
<path d="M49.7961 37.7236V37.6988C49.7961 37.1948 49.9614 36.7073 50.2629 36.3025L60.1771 23.1166L61.8047 25.021H50.5108V20.7124H62.7672C64.0478 20.7124 65.0888 21.7534 65.0888 23.034C65.0888 23.5338 64.9277 24.0213 64.6261 24.422L54.7615 37.6368L53.105 35.9266H65.3904V40.041H52.1136C50.833 40.041 49.792 39 49.792 37.7194L49.7961 37.7236Z" fill="#33475B"/>
<path d="M72.5703 40.3467C71.4838 40.3467 70.5585 40.1113 69.7943 39.6445C69.0301 39.1735 68.4393 38.5002 68.0263 37.6162C67.6132 36.7322 67.4066 35.6746 67.4066 34.4395V25.3845H71.8515V33.8322C71.8515 34.423 71.9424 34.9269 72.1283 35.3524C72.3142 35.7779 72.5868 36.1043 72.9586 36.3315C73.3262 36.5628 73.7682 36.6743 74.2846 36.6743C74.6729 36.6743 75.024 36.6082 75.3462 36.4802C75.6685 36.3521 75.9452 36.1745 76.1766 35.9432C76.4079 35.7118 76.5855 35.4474 76.7136 35.1418C76.8417 34.8402 76.9077 34.5015 76.9077 34.1338V25.3804H81.3526V40.041H77.1845L76.9904 37.0296L77.8207 36.6991C77.5976 37.3972 77.23 38.021 76.7177 38.5622C76.2014 39.1033 75.5858 39.5371 74.8671 39.8593C74.1483 40.1815 73.3841 40.3426 72.5744 40.3426L72.5703 40.3467Z" fill="#33475B"/>
<path d="M84.0623 48.08V25.3847H88.2593L88.4246 28.6688L87.5943 28.4209C87.7223 27.8137 88.0363 27.2601 88.532 26.7644C89.0277 26.2687 89.6597 25.868 90.4239 25.5623C91.1882 25.2608 91.9937 25.1079 92.8405 25.1079C94.0922 25.1079 95.2076 25.4343 96.1825 26.0869C97.1573 26.7396 97.9257 27.6319 98.4875 28.7638C99.0493 29.8957 99.3302 31.2052 99.3302 32.6964C99.3302 34.1877 99.0493 35.4765 98.4875 36.6167C97.9257 37.7568 97.1532 38.6573 96.1701 39.31C95.1869 39.9627 94.0592 40.2891 92.7868 40.2891C91.9565 40.2891 91.1675 40.1321 90.4115 39.8181C89.6556 39.5042 89.0194 39.0828 88.5072 38.5458C87.9908 38.0129 87.6521 37.4305 87.4868 36.8067L88.5072 36.4184V48.0717H84.0623V48.08ZM91.7087 36.5671C92.3696 36.5671 92.9521 36.406 93.4478 36.0838C93.9435 35.7616 94.3318 35.3154 94.6086 34.7454C94.8853 34.1753 95.0217 33.4937 95.0217 32.7006C95.0217 31.9074 94.8853 31.2506 94.6086 30.6723C94.3318 30.0939 93.9517 29.6395 93.4643 29.3215C92.9768 28.9992 92.3903 28.8381 91.7128 28.8381C91.0353 28.8381 90.4446 28.9951 89.9448 29.3091C89.449 29.623 89.0607 30.0733 88.784 30.664C88.5072 31.2547 88.3709 31.9322 88.3709 32.7047C88.3709 33.4772 88.5072 34.1794 88.784 34.7495C89.0607 35.3196 89.4449 35.7657 89.9448 36.0879C90.4405 36.4101 91.0312 36.5712 91.7128 36.5712L91.7087 36.5671Z" fill="#33475B"/>
<path d="M109.24 40.322C107.621 40.322 106.212 39.9956 105.014 39.343C103.816 38.6903 102.887 37.798 102.226 36.6661C101.565 35.5343 101.23 34.2413 101.23 32.7872C101.23 31.6636 101.416 30.635 101.784 29.6931C102.152 28.7554 102.668 27.9416 103.329 27.2517C103.99 26.5619 104.779 26.029 105.688 25.6489C106.601 25.273 107.596 25.083 108.683 25.083C109.769 25.083 110.657 25.2689 111.512 25.6366C112.367 26.0042 113.111 26.5206 113.735 27.1815C114.359 27.8425 114.838 28.6273 115.172 29.5279C115.503 30.4284 115.652 31.4157 115.614 32.4815L115.585 33.6671H103.907L103.271 31.1803H111.996L111.525 31.7049V31.1513C111.488 30.6928 111.343 30.2797 111.095 29.9203C110.847 29.5609 110.521 29.28 110.116 29.0776C109.711 28.8752 109.253 28.7719 108.736 28.7719C108.018 28.7719 107.406 28.9165 106.898 29.2015C106.39 29.4866 106.01 29.8997 105.754 30.4449C105.498 30.9861 105.366 31.6553 105.366 32.4484C105.366 33.2416 105.535 33.9645 105.878 34.5594C106.216 35.1583 106.716 35.621 107.369 35.9556C108.022 36.2861 108.798 36.4513 109.703 36.4513C110.327 36.4513 110.884 36.3604 111.372 36.1745C111.859 35.9928 112.388 35.6788 112.958 35.2368L115.028 38.1656C114.458 38.6614 113.85 39.0662 113.206 39.3801C112.562 39.6941 111.905 39.9296 111.231 40.0824C110.558 40.2394 109.893 40.3179 109.228 40.3179L109.24 40.322Z" fill="#33475B"/>
<path d="M118.436 40.0452V25.3845H122.633L122.827 30.1599L121.997 29.2469C122.216 28.4538 122.579 27.7474 123.087 27.1195C123.591 26.4958 124.186 25.9959 124.868 25.6283C125.549 25.2606 126.276 25.0747 127.049 25.0747C127.379 25.0747 127.689 25.1036 127.974 25.1573C128.259 25.211 128.523 25.2771 128.759 25.3515L127.544 30.2384C127.342 30.1103 127.069 30.0029 126.731 29.9203C126.388 29.8377 126.037 29.7964 125.669 29.7964C125.264 29.7964 124.888 29.8666 124.537 30.0029C124.186 30.1392 123.893 30.3375 123.653 30.5978C123.414 30.8539 123.223 31.1596 123.087 31.5107C122.951 31.8618 122.881 32.2543 122.881 32.6963V40.0411H118.436V40.0452Z" fill="#33475B"/>
<path d="M131.465 40.0449V20.7163H139.801C141.015 20.7163 142.098 20.9931 143.044 21.5466C143.99 22.1002 144.746 22.8561 145.308 23.8104C145.869 24.7687 146.15 25.8428 146.15 27.0408C146.15 28.2387 145.869 29.4119 145.308 30.3951C144.746 31.3782 143.99 32.159 143.044 32.729C142.094 33.2991 141.015 33.5841 139.801 33.5841H136.158V40.0449H131.465ZM136.075 29.4697H139.14C139.545 29.4697 139.913 29.3706 140.243 29.1682C140.573 28.9658 140.842 28.689 141.044 28.3379C141.247 27.9867 141.35 27.5819 141.35 27.1234C141.35 26.6648 141.247 26.2394 141.044 25.9089C140.842 25.5784 140.573 25.3182 140.243 25.1364C139.913 24.9546 139.545 24.8596 139.14 24.8596H136.075V29.4697Z" fill="#33475B"/>
<path d="M154.66 40.3222C153.132 40.3222 151.777 39.9917 150.587 39.3267C149.401 38.6657 148.459 37.761 147.77 36.6209C147.08 35.4808 146.733 34.1713 146.733 32.7007C146.733 31.23 147.08 29.9205 147.77 28.7804C148.459 27.6403 149.397 26.7397 150.587 26.0746C151.772 25.4137 153.132 25.0791 154.66 25.0791C156.188 25.0791 157.543 25.4096 158.733 26.0746C159.919 26.7356 160.852 27.6403 161.534 28.7804C162.215 29.9205 162.554 31.23 162.554 32.7007C162.554 34.1713 162.211 35.4808 161.534 36.6209C160.852 37.761 159.919 38.6657 158.733 39.3267C157.547 39.9876 156.188 40.3222 154.66 40.3222ZM154.66 36.5094C155.321 36.5094 155.912 36.3441 156.428 36.0137C156.944 35.6832 157.349 35.2329 157.642 34.6628C157.936 34.0928 158.076 33.4401 158.056 32.7007C158.072 31.9654 157.936 31.3044 157.642 30.7261C157.349 30.1477 156.944 29.6892 156.428 29.3587C155.912 29.0283 155.325 28.863 154.66 28.863C153.995 28.863 153.404 29.0283 152.88 29.3587C152.355 29.6892 151.946 30.1436 151.653 30.7261C151.359 31.3044 151.219 31.9654 151.24 32.7007C151.223 33.436 151.359 34.0928 151.653 34.6628C151.946 35.2329 152.355 35.6832 152.88 36.0137C153.404 36.3441 153.999 36.5094 154.66 36.5094Z" fill="#33475B"/>
<path d="M170.399 40.3218C168.961 40.3218 167.697 40.0904 166.603 39.6319C165.508 39.1734 164.636 38.5537 163.992 37.7813L166.669 35.4638C167.239 36.0339 167.883 36.4552 168.602 36.7196C169.321 36.9881 170.002 37.1203 170.647 37.1203C170.903 37.1203 171.134 37.0914 171.337 37.0377C171.539 36.984 171.708 36.9055 171.849 36.8022C171.985 36.7031 172.093 36.5833 172.167 36.4428C172.241 36.3065 172.278 36.1454 172.278 35.9595C172.278 35.5919 172.113 35.3068 171.783 35.1044C171.617 35.0135 171.341 34.902 170.952 34.7739C170.564 34.6459 170.068 34.4972 169.461 34.3319C168.598 34.113 167.846 33.8486 167.21 33.5471C166.574 33.2455 166.053 32.8902 165.648 32.4854C165.281 32.0971 164.996 31.6716 164.793 31.2007C164.591 30.7298 164.487 30.201 164.487 29.6144C164.487 28.9328 164.649 28.3173 164.971 27.7638C165.293 27.2102 165.727 26.7352 166.268 26.3303C166.809 25.9255 167.437 25.6157 168.143 25.405C168.854 25.1943 169.585 25.0869 170.337 25.0869C171.147 25.0869 171.919 25.1778 172.654 25.3637C173.39 25.5496 174.075 25.8057 174.712 26.1362C175.348 26.4666 175.914 26.8632 176.409 27.3217L174.092 29.916C173.761 29.602 173.39 29.3211 172.972 29.0733C172.555 28.8254 172.13 28.6271 171.688 28.4784C171.246 28.3297 170.841 28.2595 170.473 28.2595C170.196 28.2595 169.953 28.2843 169.742 28.3297C169.531 28.3751 169.35 28.4495 169.205 28.5486C169.056 28.6519 168.949 28.7717 168.875 28.908C168.8 29.0443 168.763 29.2055 168.763 29.3913C168.763 29.5772 168.813 29.7507 168.916 29.916C169.015 30.0812 169.16 30.2175 169.345 30.3291C169.531 30.4406 169.825 30.5645 170.229 30.7008C170.634 30.8372 171.188 31.0107 171.886 31.2131C172.749 31.4527 173.497 31.7171 174.121 32.0145C174.745 32.3078 175.244 32.6589 175.612 33.0637C175.905 33.3777 176.128 33.7412 176.273 34.1543C176.422 34.5674 176.492 35.0135 176.492 35.4927C176.492 36.4304 176.228 37.2649 175.707 37.9919C175.187 38.719 174.46 39.289 173.538 39.7021C172.617 40.1152 171.568 40.3218 170.391 40.3218H170.399Z" fill="#33475B"/>
<path d="M177.743 28.2842V24.4176H187.6V28.2842H177.743ZM180.338 40.0449V20.7163H184.754V40.0449H180.338Z" fill="#33475B"/>
<path d="M24.5663 38.9134C25.219 38.5003 25.8634 38.174 26.5119 37.9344C26.6689 37.8807 26.8259 37.827 26.987 37.7816C27.1853 37.7278 27.3877 37.6824 27.5942 37.6452C27.9289 37.5833 28.2717 37.5378 28.6187 37.5172C28.6187 37.5172 29.2879 37.48 30.1761 37.5998C30.8412 37.7072 31.5434 37.9055 32.2994 38.1946C36.1907 39.9462 34.939 45.7666 30.6718 45.7666H23.0502C25.7105 44.7876 26.5202 41.0119 24.5663 38.9093V38.9134Z" fill="#F58345"/>
<path d="M1.9949 42.09C2.13949 43.0359 2.44517 43.9613 2.89544 44.7999C5.721 48.7945 10.013 49.6867 12.8221 49.7941C13.1484 49.8065 13.45 49.8065 13.7309 49.8024C14.3381 49.7322 14.8214 49.4678 14.2885 48.7779C14.177 48.6994 14.0737 48.621 13.9663 48.5425C13.545 48.2327 13.1567 47.9228 12.8097 47.6171C12.7312 47.551 12.661 47.4808 12.5866 47.4147C12.5246 47.3569 12.4627 47.3032 12.4048 47.2454C12.3057 47.1503 12.2107 47.0553 12.1198 46.9603C12.0909 46.9314 12.0578 46.8984 12.0289 46.8694C11.9546 46.791 11.8843 46.7125 11.8141 46.634C11.7687 46.5844 11.7232 46.5348 11.6819 46.4894C11.6324 46.4357 11.591 46.3779 11.5415 46.3242C11.4795 46.2498 11.4175 46.1755 11.3597 46.1011C11.3308 46.0639 11.3019 46.0267 11.2771 45.9896C11.2193 45.9152 11.1614 45.845 11.1119 45.7706C11.0953 45.7458 11.0788 45.721 11.0623 45.6963C8.68287 42.8253 10.232 38.7274 11.7521 37.5046C10.8062 39.3925 10.9136 41.3588 11.4795 43.1434C11.5332 43.3045 11.5869 43.4614 11.6406 43.6225C11.653 43.6556 11.6654 43.6845 11.6778 43.7175C11.81 44.0645 11.9546 44.4033 12.1115 44.7296C12.1115 44.7379 12.1198 44.7461 12.1239 44.7544C12.2437 44.9733 12.3801 45.1799 12.5453 45.3451C12.5577 45.3575 12.5742 45.3658 12.5866 45.3782C12.6527 45.4401 12.7229 45.4938 12.7973 45.5434C13.0369 45.688 13.3178 45.7706 13.6069 45.7706C13.6069 45.7706 13.9457 45.7706 14.4786 45.7706H20.7245C27.9908 44.6883 24.6324 35.4185 16.8208 37.8475V36.6041V36.476C16.1144 36.3521 15.3956 36.1538 14.6727 35.8647C12.1942 34.8732 11.211 33.5389 11.116 32.2914C11.525 33.3117 12.6155 34.299 14.7016 34.9972C15.4204 35.2368 16.1309 35.3896 16.8208 35.4764C16.9984 35.497 17.1761 35.5135 17.3496 35.5259C17.3702 35.5259 17.3909 35.5259 17.4115 35.5301C17.4983 35.5342 17.585 35.5383 17.6883 35.5424C18.626 35.5672 20.2577 35.4887 22.2695 34.8691C22.2984 34.8608 22.3273 34.8526 22.3562 34.8402C22.3686 34.8402 22.3769 34.8319 22.3893 34.8278C22.5132 34.7865 22.6371 34.7411 22.7569 34.6956C22.7776 34.6873 22.7982 34.6791 22.823 34.6708C22.9428 34.6254 23.0585 34.5799 23.17 34.5345C23.1783 34.5345 23.1866 34.5262 23.1989 34.5221C23.3064 34.4767 23.4096 34.4354 23.5129 34.3899C23.5294 34.3817 23.5459 34.3734 23.5666 34.3693C23.6699 34.3238 23.769 34.2784 23.8682 34.2329C23.8888 34.2247 23.9053 34.2164 23.926 34.204C24.0251 34.1586 24.1201 34.1131 24.211 34.0677C24.4465 33.952 24.6489 33.7744 24.81 33.5513C24.8885 33.4398 24.9587 33.32 25.0207 33.192C25.0826 33.0639 25.1281 32.9234 25.1653 32.783C25.314 32.2088 25.2851 31.5355 25.0372 30.9076C24.8554 30.449 24.5828 30.0772 24.2647 29.817C24.1284 29.7055 23.9797 29.6146 23.831 29.5485C23.7814 29.5278 23.7277 29.5072 23.6781 29.4906C23.5253 29.4411 23.3642 29.4122 23.2072 29.4122C23.1122 29.4122 23.0131 29.4245 22.918 29.4452C22.9098 29.4452 22.9015 29.4452 22.8891 29.4493C22.0712 29.6394 21.3111 29.7591 20.613 29.8252C20.3321 29.85 20.0636 29.8666 19.8033 29.8748C19.0184 29.8996 18.3203 29.85 17.7007 29.755C17.3909 29.7054 17.1017 29.6476 16.8291 29.5774V29.1891C16.8291 28.1605 16.9654 27.1649 17.2132 26.2148H17.205C13.3632 25.149 10.4096 20.8694 12.1942 16.8087L12.3429 16.85C11.3886 21.9682 16.9158 26.5164 21.6912 24.2609C25.4296 22.1417 27.4497 24.9384 30.8866 25.5415C42.858 27.1856 46.4561 9.29455 34.6994 6.20462C28.9038 5.27103 23.2857 1.66473 17.3082 2.87509C10.5914 3.78803 6.77851 11.6409 7.85668 16.5732C8.1789 18.2628 8.2987 19.9813 8.19129 21.6956C8.19129 21.7452 8.18303 21.7947 8.18303 21.8443C8.15824 22.2243 8.12107 22.6044 8.07149 22.9803C7.46012 27.7598 5.81601 32.3906 3.24657 36.4843C2.87479 37.0792 2.56084 37.6988 2.32951 38.3597C1.9949 39.3759 1.87097 40.4582 1.94946 41.5282C1.95772 41.648 1.97012 41.7719 1.98664 41.8917C1.9949 41.9578 2.00317 42.0239 2.01143 42.0858L1.9949 42.09ZM24.0045 11.6657C24.0045 12.5084 23.7236 13.2892 23.2526 13.9129C22.3769 13.4874 21.3566 13.2974 20.2949 13.4296C19.3241 13.5494 18.4566 13.9212 17.7461 14.4623C16.9778 13.7725 16.4903 12.7769 16.4903 11.6657C16.4903 9.59198 18.1716 7.90656 20.2495 7.90656C22.3273 7.90656 24.0086 9.58785 24.0086 11.6657H24.0045ZM35.1786 11.8764C35.9015 11.8764 36.4923 12.463 36.4923 13.19C36.4923 13.9171 35.9057 14.5036 35.1786 14.5036C34.4516 14.5036 33.865 13.9171 33.865 13.19C33.865 12.463 34.4516 11.8764 35.1786 11.8764Z" fill="#F58345"/>
<path d="M28.9036 33.0393C29.5068 33.3739 30.0851 33.5888 30.5519 33.5516V36.8191C29.9777 36.6663 29.3085 36.6663 28.6227 36.753V32.8906C28.7136 32.9402 28.8086 32.9856 28.9036 33.0311V33.0393Z" fill="#F58345"/>
<path d="M30.5521 32.2503C29.854 32.1471 28.3256 31.5729 26.2642 30.5195C26.0164 30.3584 25.7437 30.2344 25.4711 30.0733C25.0828 29.8337 24.7275 29.5983 24.4177 29.3752C24.3557 29.3339 24.2979 29.2843 24.2442 29.2348C24.1327 29.1356 24.0335 29.0282 23.9468 28.9084C23.86 28.7886 23.7857 28.6606 23.7237 28.5284C23.5667 28.1938 23.4924 27.8137 23.4965 27.4296C23.5048 26.971 23.6328 26.5001 23.8889 26.087C23.9592 25.9713 24.0376 25.8681 24.1244 25.7689C24.2029 25.678 24.2896 25.5954 24.3805 25.5211C24.5581 25.3723 24.7523 25.2608 24.9588 25.1782C25.0456 25.1451 25.1365 25.1162 25.2315 25.0914C25.4463 25.0419 25.6694 25.0254 25.8924 25.0543C25.9213 25.0543 25.9544 25.0667 25.9833 25.0749C27.2969 25.5004 28.5445 26.4009 30.5521 26.6695C33.2042 26.8967 32.8407 32.4486 30.5521 32.2421V32.2503Z" fill="#F58345"/>
<path d="M35.1787 11.8765C35.9016 11.8765 36.4923 12.4631 36.4923 13.1901C36.4923 13.9171 35.9057 14.5037 35.1787 14.5037C34.4516 14.5037 33.8651 13.9171 33.8651 13.1901C33.8651 12.4631 34.4516 11.8765 35.1787 11.8765Z" fill="#33475B"/>
<path d="M14.6932 34.997C15.412 35.2366 16.1225 35.3894 16.8124 35.4762C16.8124 35.4762 17.0272 35.5092 17.4031 35.5299H17.4114C17.5023 35.534 17.589 35.5381 17.6758 35.5423C18.6135 35.5671 20.2452 35.4886 22.257 34.8689C22.2693 34.8689 22.2817 34.8607 22.2941 34.8565C22.2941 34.8565 19.7412 36.5089 16.8083 36.4717C16.1019 36.3478 15.3831 36.1495 14.6602 35.8604C12.1816 34.8689 11.1985 33.5346 11.1035 32.2871C11.5124 33.3074 12.603 34.2947 14.6891 34.9929L14.6932 34.997Z" fill="#33475B"/>
<path d="M4.91987 49.7981C6.94816 51.0539 9.71588 51.8842 13.4668 51.8718C15.7099 52.2477 17.2218 49.3437 15.4331 47.84H30.6721C33.4191 47.84 35.6498 46.0348 36.2282 43.3497C36.8974 40.3837 35.1335 37.5788 32.2666 36.6865V33.8362C33.9768 32.6919 34.5717 29.7176 33.8322 27.5778C46.13 25.818 47.1875 8.04266 35.1169 4.89077C29.4989 3.95305 24.2196 0.735061 18.4032 1.32165C18.2173 1.33818 18.0356 1.35883 17.8497 1.37122C17.5564 1.39188 16.978 1.44558 16.2221 1.60668C15.4537 0.689619 14.3012 0.103027 13.0082 0.103027C10.6866 0.103027 8.80707 1.9826 8.80707 4.30418C8.80707 4.62639 8.84838 4.94447 8.91861 5.24603C8.50552 5.12623 8.06764 5.06014 7.61737 5.06014C5.0562 5.06014 2.98247 7.13386 2.98247 9.69504C2.98247 11.4424 3.94911 12.9626 5.37428 13.7516C3.01965 13.9747 1.17725 15.9534 1.17725 18.3659C1.17725 20.4354 2.5322 22.187 4.40351 22.7818C2.49089 23.1577 1.04506 24.8473 1.04506 26.8714C1.04506 28.6188 2.11911 30.1101 3.64342 30.7338C1.69362 30.7338 0.115607 32.316 0.115607 34.2658C0.115607 35.0507 0.375856 35.7777 0.813734 36.3643C0.644366 36.765 0.503915 37.1781 0.400641 37.5994C-0.210736 40.1358 -0.817981 45.9356 4.91987 49.8105V49.7981ZM23.0546 45.7745C25.715 44.7955 26.5246 41.0198 24.5707 38.9172C25.2234 38.5041 25.8678 38.1778 26.5164 37.9382C27.673 37.5168 28.8545 37.3888 30.1805 37.6036C30.8456 37.711 31.5478 37.9093 32.3038 38.1984C36.1951 39.9499 34.9434 45.7704 30.6762 45.7704H23.0546V45.7745ZM2.30913 38.3595C2.52807 37.6986 2.82962 37.0666 3.22619 36.4841C5.79563 32.3903 7.43974 27.7596 8.05111 22.9801C8.10069 22.6 8.13373 22.2241 8.16265 21.8441C8.16265 21.7945 8.17091 21.7449 8.17091 21.6954C8.27832 19.9852 8.15852 18.2626 7.83631 16.573C6.75814 11.6407 10.571 3.78782 17.2879 2.87488C23.2653 1.66452 28.8792 5.27082 34.6791 6.20441C46.4357 9.29434 42.8376 27.1895 30.8662 25.5413C27.4293 24.9382 25.4093 22.1415 21.6708 24.2607C16.8954 26.5162 11.3682 21.968 12.3225 16.8498L12.1738 16.8085C10.3892 20.8733 13.3428 25.1488 17.1846 26.2146C17.197 26.2146 17.2135 26.2229 17.2259 26.227C18.6552 26.6153 20.2043 26.5616 21.679 25.88C22.2615 25.5124 22.7779 25.2686 23.2571 25.1034C24.3187 24.7357 25.1655 24.8101 25.9793 25.0745C27.293 25.5 28.5405 26.4005 30.5481 26.669C33.2002 26.8962 32.8367 32.4482 30.5481 32.2416C29.85 32.1384 28.3216 31.5642 26.2602 30.5108C25.9752 30.3662 25.6984 30.2133 25.4382 30.0646C25.4341 30.0646 25.4258 30.0564 25.4217 30.0564C25.434 30.1431 25.7356 30.4942 26.19 30.9404C26.8757 31.6096 27.9167 32.4854 28.904 33.0348C29.5071 33.3694 30.0855 33.5842 30.5523 33.547V36.8146C29.9781 36.6617 29.3089 36.6617 28.6231 36.7485C28.5198 36.7609 28.4207 36.7774 28.3174 36.7939C27.2888 36.9674 26.252 37.3392 25.4795 37.744C24.9012 38.0456 24.4633 38.3637 24.2939 38.6322C22.9514 37.3433 21.5758 36.9054 20.3737 36.86C20.1878 36.8517 20.0143 36.86 19.8408 36.8641C19.7003 36.8683 19.5599 36.8765 19.4277 36.8889C19.2583 36.9054 19.0889 36.922 18.932 36.9468C18.9237 36.9468 18.9154 36.9468 18.9072 36.9468C18.0975 37.0831 17.4944 37.3351 17.1474 37.5457C16.9409 37.6697 16.8211 37.7812 16.8169 37.839C24.6327 35.41 27.9911 44.6798 20.7207 45.7621H14.4747C13.9418 45.7621 13.6031 45.7621 13.6031 45.7621C13.2809 45.7704 13.0165 45.6795 12.7934 45.5349C12.7191 45.4854 12.6488 45.4317 12.5827 45.3697C12.5703 45.3573 12.5538 45.3491 12.5414 45.3367C12.3762 45.1714 12.2399 44.969 12.1201 44.7459C11.9218 44.3824 11.7772 43.9776 11.6368 43.6141C11.5789 43.4571 11.5252 43.296 11.4757 43.1349C10.9097 41.3503 10.8023 39.384 11.7483 37.4962C10.2281 38.7189 8.67901 42.8168 11.0584 45.6878C11.1287 45.7869 11.203 45.8819 11.2774 45.9811C11.3063 46.0183 11.3311 46.0554 11.36 46.0926C11.4178 46.167 11.4798 46.2413 11.5417 46.3157C11.5872 46.3694 11.6326 46.4272 11.6822 46.4809C11.7235 46.5305 11.7731 46.5801 11.8144 46.6255C11.8846 46.704 11.9548 46.7825 12.0292 46.861C12.0581 46.8899 12.0912 46.9229 12.1201 46.9519C12.211 47.0469 12.306 47.1419 12.4051 47.2369C12.4629 47.2947 12.529 47.3484 12.5869 47.4063C12.6612 47.4724 12.7315 47.5426 12.8099 47.6087C13.1569 47.9144 13.5452 48.2201 13.9666 48.534C14.074 48.6125 14.1773 48.691 14.2888 48.7695C14.8217 49.4593 14.3384 49.7237 13.7311 49.7939C13.4172 49.8311 13.0743 49.8187 12.8223 49.7857C10.0133 49.6783 5.72127 48.786 2.89572 44.7914C2.42893 43.9487 2.1315 43.0233 1.99518 42.0815C1.98692 42.0154 1.97865 41.9493 1.97039 41.8873C1.95387 41.7675 1.94148 41.6436 1.93321 41.5238C1.8506 40.4539 1.97452 39.3716 2.31326 38.3554L2.30913 38.3595Z" fill="#33475B"/>
<path d="M16.4861 11.6654C16.4861 12.7766 16.9735 13.7763 17.7419 14.462C18.4524 13.9209 19.324 13.5491 20.2906 13.4293C21.3523 13.2971 22.3726 13.4871 23.2484 13.9126C23.7193 13.2847 24.0002 12.5081 24.0002 11.6654C24.0002 9.59167 22.3189 7.90625 20.2411 7.90625C18.1632 7.90625 16.4819 9.58754 16.4819 11.6654H16.4861Z" fill="#33475B"/>
<path d="M16.8129 36.4758C19.7459 36.5088 22.2988 34.8606 22.2988 34.8606C22.2864 34.8606 22.274 34.8688 22.2616 34.873C22.2905 34.8647 22.3195 34.8565 22.3484 34.8441C22.3608 34.8441 22.369 34.8358 22.3814 34.8317C22.5053 34.7904 22.6293 34.7449 22.7491 34.6995C22.7697 34.6912 22.7904 34.683 22.8152 34.6747C22.935 34.6293 23.0506 34.5838 23.1622 34.5384C23.1704 34.5384 23.1787 34.5301 23.1911 34.526C23.2985 34.4805 23.4018 34.4392 23.505 34.3938C23.5215 34.3855 23.5381 34.3773 23.5587 34.3731C23.662 34.3277 23.7611 34.2823 23.8603 34.2368C23.8809 34.2286 23.8975 34.2203 23.9181 34.2079C24.0173 34.1625 24.1123 34.117 24.2032 34.0716C24.4386 33.9559 24.641 33.7783 24.8021 33.5552C24.8806 33.4437 24.9509 33.3239 25.0128 33.1958C25.0748 33.0678 25.1202 32.9273 25.1574 32.7869C25.3061 32.2127 25.2772 31.5393 25.0293 30.9114C24.8476 30.4529 24.5749 30.0811 24.2569 29.8209C24.1205 29.7093 23.9718 29.6184 23.8231 29.5523C23.7735 29.5317 23.7198 29.511 23.6703 29.4945C23.5174 29.4449 23.3563 29.416 23.1993 29.416C23.1043 29.416 23.0052 29.4284 22.9102 29.4491C22.9019 29.4491 22.8937 29.4491 22.8813 29.4532C22.0633 29.6432 21.3032 29.763 20.6051 29.8291C20.3242 29.8539 20.0557 29.8704 19.7955 29.8787C19.0106 29.9035 18.3125 29.8539 17.6928 29.7589C17.383 29.7093 17.0938 29.6515 16.8212 29.5813V29.193C16.8212 28.1644 16.9575 27.1688 17.2054 26.2187C17.2178 26.2187 17.226 26.2228 17.2384 26.227C18.6677 26.6153 20.2168 26.5616 21.6915 25.88C21.9105 25.7891 22.1212 25.6899 22.3277 25.5825L22.8771 25.2768C23.0011 25.2107 23.1332 25.157 23.2654 25.1033C24.3271 24.7357 25.1739 24.81 25.9877 25.0744C25.9588 25.0703 25.9258 25.0579 25.8968 25.0538C25.6779 25.0249 25.4548 25.0372 25.2359 25.0909C25.145 25.1116 25.0541 25.1405 24.9632 25.1777C24.7567 25.2562 24.5625 25.3718 24.3849 25.5206C24.294 25.5949 24.2073 25.6775 24.1288 25.7684C24.0421 25.8634 23.9636 25.9708 23.8933 26.0865C23.6331 26.4996 23.505 26.9664 23.5009 27.4291C23.4926 27.8132 23.5711 28.1891 23.7281 28.5279C23.7901 28.6642 23.8644 28.7881 23.9512 28.9079C24.0379 29.0277 24.1371 29.1351 24.2486 29.2343C24.3023 29.2838 24.3601 29.3293 24.4221 29.3747C24.736 29.5978 25.0913 29.8332 25.4755 30.0728C25.459 30.0646 25.4424 30.0563 25.4259 30.0439C25.4259 30.0439 25.4342 30.0522 25.4466 30.0687C25.4424 30.0687 25.4342 30.0604 25.43 30.0604C25.4424 30.1472 25.744 30.4983 26.1984 30.9445C26.7726 31.5517 27.6236 32.3407 28.6274 32.8984V36.7608C28.5241 36.7732 28.425 36.7897 28.3217 36.8063C27.1237 36.955 26.1777 37.3433 25.4837 37.7564C24.9054 38.0579 24.4675 38.376 24.2982 38.6445C22.9556 37.3557 21.58 36.9178 20.3779 36.8723C20.3531 36.8723 20.3325 36.8723 20.3077 36.8723C20.159 36.8723 20.0103 36.8723 19.8657 36.8765C19.8574 36.8765 19.8492 36.8765 19.845 36.8765C19.7046 36.8806 19.5641 36.8889 19.4319 36.9013C19.2543 36.9137 19.0932 36.9343 18.9362 36.9591C18.928 36.9591 18.9197 36.9591 18.9114 36.9591C17.9985 37.0954 17.4532 37.3515 17.1517 37.5581C16.9451 37.682 16.8253 37.7935 16.8212 37.8514V36.608V36.4799L16.8129 36.4758Z" fill="white"/>
<path d="M17.3417 35.5261C17.3417 35.5261 17.383 35.5261 17.4036 35.5303C17.0277 35.5096 16.8129 35.4766 16.8129 35.4766C16.9906 35.4972 17.1682 35.5137 17.3417 35.5261Z" fill="white"/>
<path d="M17.4037 35.5303C17.4905 35.5344 17.5772 35.5385 17.6805 35.5427C17.5938 35.5427 17.5029 35.5385 17.4161 35.5303C17.4161 35.5303 17.4079 35.5303 17.4037 35.5303Z" fill="white"/>
<path d="M19.853 11.2442C20.4231 11.1657 20.8238 10.6411 20.7453 10.071C20.6668 9.50098 20.1422 9.10028 19.5721 9.17876C19.0021 9.25725 18.6014 9.78188 18.6799 10.3519C18.7584 10.922 19.283 11.3227 19.853 11.2442Z" fill="white"/>
<path d="M21.679 12.2689C22.026 12.2235 22.2656 11.9054 22.2201 11.5584C22.1747 11.2114 21.8566 10.9718 21.5096 11.0172C21.1626 11.0627 20.923 11.3808 20.9685 11.7278C21.0139 12.0748 21.332 12.3144 21.679 12.2689Z" fill="white"/>
</g>
<defs>
<clipPath id="clip0_1_14865">
<rect width="188" height="52" fill="white"/>
</clipPath>
</defs>
</svg>
