<svg width="24" height="24" viewBox="0 0 24 24" fill="none" xmlns="http://www.w3.org/2000/svg">
<path d="M8 22.9H16C17.8535 22.9 19.3333 22.3663 20.3498 21.3498C21.3663 20.3333 21.9 18.8535 21.9 17V7C21.9 5.14653 21.3663 3.66666 20.3498 2.65018C19.3333 1.63371 17.8535 1.1 16 1.1H8C6.14653 1.1 4.66666 1.63371 3.65018 2.65018C2.63371 3.66666 2.1 5.14653 2.1 7V17C2.1 18.8535 2.63371 20.3333 3.65018 21.3498C4.66666 22.3663 6.14653 22.9 8 22.9ZM3.9 7C3.9 5.59205 4.24215 4.57498 4.90857 3.90857C5.57498 3.24215 6.59205 2.9 8 2.9H16C17.408 2.9 18.425 3.24215 19.0914 3.90857C19.7579 4.57498 20.1 5.59205 20.1 7V17C20.1 18.408 19.7579 19.425 19.0914 20.0914C18.425 20.7579 17.408 21.1 16 21.1H8C6.59205 21.1 5.57498 20.7579 4.90857 20.0914C4.24215 19.425 3.9 18.408 3.9 17V7Z" fill="white" stroke="white" stroke-width="0.3"/>
<path d="M16.5 9.4H18.5C18.9928 9.4 19.4 8.99284 19.4 8.5C19.4 8.00716 18.9928 7.6 18.5 7.6H16.5C15.8928 7.6 15.4 7.10716 15.4 6.5V4.5C15.4 4.00716 14.9928 3.6 14.5 3.6C14.0072 3.6 13.6 4.00716 13.6 4.5V6.5C13.6 8.10284 14.8972 9.4 16.5 9.4Z" fill="white" stroke="white" stroke-width="0.3"/>
<path d="M9.65957 18C9.65957 18.4928 10.0667 18.9 10.5596 18.9C11.0524 18.9 11.4596 18.4928 11.4596 18V13C11.4596 12.5072 11.0524 12.1 10.5596 12.1C10.0667 12.1 9.65957 12.5072 9.65957 13V18Z" fill="white" stroke="white" stroke-width="0.3"/>
<path d="M8 16.4H13C13.4928 16.4 13.9 15.9928 13.9 15.5C13.9 15.0072 13.4928 14.6 13 14.6H8C7.50716 14.6 7.1 15.0072 7.1 15.5C7.1 15.9928 7.50716 16.4 8 16.4Z" fill="white" stroke="white" stroke-width="0.3"/>
</svg>
