<svg width="742" height="604" viewBox="0 0 742 604" fill="none" xmlns="http://www.w3.org/2000/svg">
<g filter="url(#filter0_d_1_6576)">
<g clip-path="url(#clip0_1_6576)">
<rect x="103.465" y="121" width="605.534" height="375.484" rx="13.2213" fill="white"/>
<g clip-path="url(#clip1_1_6576)">
<rect x="135.195" y="152.731" width="542.072" height="124.28" rx="13.2213" fill="white"/>
<rect x="135.195" y="152.731" width="542.072" height="124.28" rx="13.2213" fill="#6F69FA"/>
<rect x="135.195" y="152.731" width="542.072" height="124.28" rx="13.2213" fill="url(#paint0_linear_1_6576)"/>
<mask id="mask0_1_6576" style="mask-type:alpha" maskUnits="userSpaceOnUse" x="135" y="152" width="543" height="126">
<rect x="135.195" y="152.731" width="542.072" height="124.28" rx="13.2213" fill="#706AFA"/>
</mask>
<g mask="url(#mask0_1_6576)">
<path d="M166.421 212.974H171.668L171.414 220.632H166.675L166.421 212.974ZM166.675 244.959H171.371L171.625 252.321H166.421L166.675 244.959ZM174.333 226.893C173.91 226.075 173.43 225.356 172.895 224.736C172.387 224.115 171.823 223.65 171.202 223.34C170.582 223.001 169.891 222.832 169.129 222.832C168.368 222.832 167.733 222.959 167.225 223.213C166.746 223.438 166.379 223.748 166.125 224.143C165.9 224.538 165.787 224.99 165.787 225.497C165.787 226.343 166.097 227.02 166.718 227.528C167.366 228.036 168.198 228.487 169.214 228.882C170.257 229.249 171.371 229.658 172.556 230.109C173.571 230.475 174.53 230.927 175.433 231.463C176.336 231.97 177.139 232.591 177.845 233.324C178.55 234.058 179.1 234.918 179.495 235.905C179.918 236.864 180.129 237.992 180.129 239.29C180.129 241.123 179.664 242.703 178.733 244.028C177.802 245.326 176.491 246.313 174.798 246.99C173.106 247.667 171.089 248.005 168.748 248.005C166.971 248.005 165.279 247.667 163.671 246.99C162.092 246.285 160.696 245.368 159.483 244.24C158.27 243.111 157.353 241.87 156.733 240.517L161.768 236.963C162.473 238.147 163.178 239.135 163.883 239.924C164.588 240.714 165.35 241.306 166.168 241.701C167.014 242.096 167.944 242.294 168.96 242.294C169.806 242.294 170.483 242.181 170.991 241.955C171.527 241.729 171.921 241.405 172.175 240.982C172.457 240.531 172.598 239.995 172.598 239.374C172.598 238.585 172.316 237.936 171.752 237.428C171.216 236.892 170.483 236.427 169.552 236.032C168.65 235.637 167.62 235.214 166.464 234.763C165.73 234.509 164.898 234.156 163.968 233.705C163.065 233.225 162.191 232.619 161.344 231.886C160.526 231.152 159.835 230.278 159.271 229.263C158.735 228.219 158.467 226.978 158.467 225.54C158.467 224.101 158.905 222.775 159.779 221.563C160.682 220.35 161.909 219.377 163.46 218.643C165.039 217.91 166.859 217.543 168.918 217.543C170.977 217.543 172.683 217.839 174.037 218.432C175.419 219.024 176.561 219.8 177.464 220.759C178.366 221.718 179.114 222.733 179.706 223.805L174.333 226.893ZM192.021 233.24V230.024C192.839 230.024 193.572 229.925 194.221 229.728C194.898 229.502 195.476 229.206 195.955 228.84C196.463 228.473 196.844 228.05 197.098 227.57C197.352 227.091 197.478 226.583 197.478 226.047C197.478 225.483 197.352 224.975 197.098 224.524C196.844 224.073 196.477 223.734 195.998 223.509C195.518 223.255 194.898 223.128 194.136 223.128C193.008 223.128 192.077 223.452 191.344 224.101C190.61 224.75 190.244 225.596 190.244 226.64H183.686C183.686 224.891 184.109 223.325 184.955 221.943C185.83 220.533 187.057 219.433 188.636 218.643C190.216 217.825 192.049 217.416 194.136 217.416C196.364 217.416 198.254 217.783 199.805 218.516C201.357 219.25 202.527 220.237 203.317 221.478C204.135 222.719 204.544 224.101 204.544 225.624C204.544 227.316 203.98 228.727 202.852 229.855C201.752 230.983 200.257 231.829 198.367 232.393C196.477 232.958 194.362 233.24 192.021 233.24ZM193.798 248.259C192.021 248.259 190.427 247.991 189.017 247.455C187.607 246.919 186.408 246.172 185.421 245.213C184.462 244.254 183.714 243.168 183.178 241.955C182.671 240.742 182.417 239.487 182.417 238.19H189.44C189.44 239.149 189.652 239.952 190.075 240.601C190.498 241.25 191.062 241.729 191.767 242.04C192.5 242.35 193.262 242.505 194.052 242.505C194.898 242.505 195.631 242.378 196.252 242.124C196.9 241.87 197.408 241.461 197.775 240.897C198.141 240.333 198.325 239.642 198.325 238.824C198.325 238.204 198.198 237.64 197.944 237.132C197.69 236.624 197.295 236.187 196.759 235.82C196.252 235.426 195.603 235.129 194.813 234.932C194.023 234.734 193.093 234.636 192.021 234.636V230.997C193.967 230.997 195.744 231.167 197.352 231.505C198.987 231.815 200.412 232.323 201.625 233.028C202.838 233.705 203.768 234.579 204.417 235.651C205.066 236.723 205.39 238.006 205.39 239.501C205.39 241.222 204.925 242.745 203.994 244.07C203.063 245.368 201.738 246.397 200.017 247.159C198.296 247.892 196.223 248.259 193.798 248.259Z" fill="white"/>
<path d="M160.592 188.481C160.592 189.496 160.804 190.406 161.227 191.21C161.664 191.999 162.263 192.62 163.025 193.071C163.786 193.523 164.654 193.748 165.627 193.748C166.614 193.748 167.481 193.523 168.229 193.071C168.99 192.62 169.583 191.999 170.006 191.21C170.443 190.406 170.661 189.496 170.661 188.481C170.661 187.465 170.45 186.563 170.027 185.773C169.604 184.969 169.011 184.342 168.25 183.89C167.502 183.439 166.628 183.214 165.627 183.214C164.654 183.214 163.786 183.439 163.025 183.89C162.263 184.342 161.664 184.969 161.227 185.773C160.804 186.563 160.592 187.465 160.592 188.481ZM157.948 188.481C157.948 187.367 158.138 186.344 158.519 185.414C158.9 184.483 159.436 183.679 160.127 183.002C160.832 182.311 161.65 181.775 162.581 181.394C163.525 181.013 164.541 180.823 165.627 180.823C166.741 180.823 167.763 181.013 168.694 181.394C169.625 181.775 170.436 182.311 171.127 183.002C171.832 183.679 172.375 184.483 172.756 185.414C173.136 186.344 173.327 187.367 173.327 188.481C173.327 189.581 173.136 190.603 172.756 191.548C172.375 192.493 171.839 193.311 171.148 194.002C170.457 194.693 169.639 195.236 168.694 195.631C167.763 196.012 166.741 196.202 165.627 196.202C164.527 196.202 163.504 196.012 162.559 195.631C161.615 195.236 160.797 194.693 160.106 194.002C159.429 193.311 158.9 192.493 158.519 191.548C158.138 190.603 157.948 189.581 157.948 188.481ZM177.912 192.077C177.912 192.768 178.06 193.304 178.356 193.685C178.653 194.066 179.104 194.256 179.71 194.256C180.147 194.256 180.528 194.171 180.853 194.002C181.177 193.819 181.431 193.565 181.614 193.241C181.797 192.902 181.889 192.514 181.889 192.077V186.154H184.174V195.885H181.889V194.383C181.579 194.947 181.177 195.377 180.683 195.673C180.204 195.955 179.626 196.096 178.949 196.096C177.863 196.096 177.024 195.758 176.431 195.081C175.853 194.404 175.564 193.487 175.564 192.331V186.154H177.912V192.077ZM189.355 186.154V195.885H187.091V186.154H189.355ZM192.253 188.587C192.041 188.417 191.844 188.29 191.661 188.206C191.477 188.121 191.245 188.079 190.963 188.079C190.582 188.079 190.271 188.178 190.032 188.375C189.792 188.573 189.616 188.848 189.503 189.2C189.404 189.539 189.355 189.94 189.355 190.406L188.593 189.962C188.593 189.186 188.734 188.502 189.016 187.91C189.312 187.303 189.686 186.824 190.137 186.471C190.603 186.119 191.082 185.942 191.576 185.942C191.929 185.942 192.26 185.999 192.57 186.112C192.88 186.21 193.141 186.394 193.353 186.662L192.253 188.587ZM201.453 181.077H203.949V195.885H201.453V181.077ZM202.934 183.277V181.077H205.917C206.989 181.077 207.919 181.267 208.709 181.648C209.513 182.015 210.133 182.544 210.571 183.235C211.008 183.912 211.226 184.722 211.226 185.667C211.226 186.612 211.008 187.43 210.571 188.121C210.133 188.812 209.513 189.348 208.709 189.729C207.919 190.096 206.989 190.279 205.917 190.279H202.934V188.079H205.917C206.777 188.079 207.468 187.874 207.99 187.465C208.512 187.056 208.773 186.457 208.773 185.667C208.773 184.878 208.512 184.285 207.99 183.89C207.468 183.481 206.777 183.277 205.917 183.277H202.934ZM215.343 186.154V195.885H213.079V186.154H215.343ZM218.241 188.587C218.029 188.417 217.832 188.29 217.649 188.206C217.465 188.121 217.233 188.079 216.951 188.079C216.57 188.079 216.26 188.178 216.02 188.375C215.78 188.573 215.604 188.848 215.491 189.2C215.392 189.539 215.343 189.94 215.343 190.406L214.581 189.962C214.581 189.186 214.722 188.502 215.004 187.91C215.301 187.303 215.674 186.824 216.126 186.471C216.591 186.119 217.07 185.942 217.564 185.942C217.917 185.942 218.248 185.999 218.558 186.112C218.869 186.21 219.129 186.394 219.341 186.662L218.241 188.587ZM220.824 182.283C220.824 181.888 220.965 181.556 221.247 181.288C221.543 181.021 221.882 180.887 222.263 180.887C222.672 180.887 223.01 181.021 223.278 181.288C223.56 181.556 223.701 181.888 223.701 182.283C223.701 182.663 223.56 182.995 223.278 183.277C223.01 183.545 222.672 183.679 222.263 183.679C221.882 183.679 221.543 183.545 221.247 183.277C220.965 182.995 220.824 182.663 220.824 182.283ZM221.142 186.154H223.384V195.885H221.142V186.154ZM228.051 191.019C228.051 191.64 228.185 192.183 228.453 192.648C228.721 193.099 229.08 193.459 229.532 193.727C229.997 193.995 230.512 194.129 231.076 194.129C231.541 194.129 231.986 194.058 232.409 193.917C232.832 193.776 233.206 193.579 233.53 193.325C233.854 193.071 234.094 192.789 234.249 192.479V194.996C233.911 195.335 233.452 195.603 232.874 195.8C232.296 195.998 231.661 196.096 230.97 196.096C229.969 196.096 229.066 195.885 228.263 195.462C227.473 195.025 226.845 194.425 226.38 193.664C225.929 192.888 225.703 192.007 225.703 191.019C225.703 190.018 225.929 189.137 226.38 188.375C226.845 187.614 227.473 187.021 228.263 186.598C229.066 186.161 229.969 185.942 230.97 185.942C231.661 185.942 232.296 186.041 232.874 186.239C233.452 186.436 233.911 186.704 234.249 187.042V189.56C234.094 189.235 233.847 188.953 233.509 188.714C233.184 188.46 232.811 188.262 232.388 188.121C231.964 187.98 231.527 187.91 231.076 187.91C230.512 187.91 229.997 188.044 229.532 188.312C229.08 188.58 228.721 188.946 228.453 189.412C228.185 189.877 228.051 190.413 228.051 191.019ZM236.69 182.283C236.69 181.888 236.831 181.556 237.113 181.288C237.409 181.021 237.747 180.887 238.128 180.887C238.537 180.887 238.876 181.021 239.144 181.288C239.426 181.556 239.567 181.888 239.567 182.283C239.567 182.663 239.426 182.995 239.144 183.277C238.876 183.545 238.537 183.679 238.128 183.679C237.747 183.679 237.409 183.545 237.113 183.277C236.831 182.995 236.69 182.663 236.69 182.283ZM237.007 186.154H239.249V195.885H237.007V186.154ZM248.655 189.962C248.655 189.242 248.507 188.699 248.211 188.333C247.915 187.966 247.456 187.783 246.836 187.783C246.413 187.783 246.039 187.874 245.715 188.058C245.39 188.227 245.136 188.481 244.953 188.819C244.77 189.144 244.678 189.524 244.678 189.962V195.885H242.393V186.154H244.678V187.656C244.988 187.078 245.383 186.648 245.863 186.365C246.356 186.083 246.942 185.942 247.618 185.942C248.718 185.942 249.558 186.281 250.136 186.958C250.714 187.621 251.003 188.537 251.003 189.708V195.885H248.655V189.962ZM253.371 196.541H255.634C255.648 196.978 255.768 197.373 255.994 197.725C256.234 198.078 256.558 198.353 256.967 198.55C257.376 198.748 257.848 198.846 258.384 198.846C258.864 198.846 259.322 198.734 259.759 198.508C260.196 198.282 260.549 197.937 260.817 197.471C261.099 197.006 261.24 196.407 261.24 195.673V186.154H263.482V195.673C263.482 196.844 263.243 197.81 262.763 198.571C262.298 199.333 261.684 199.897 260.923 200.264C260.161 200.644 259.336 200.835 258.448 200.835C257.39 200.835 256.487 200.651 255.74 200.285C254.993 199.932 254.414 199.432 254.005 198.783C253.61 198.134 253.399 197.387 253.371 196.541ZM253.18 190.977C253.18 189.891 253.399 188.982 253.836 188.248C254.273 187.501 254.851 186.93 255.571 186.535C256.304 186.14 257.087 185.942 257.919 185.942C258.737 185.942 259.449 186.147 260.055 186.556C260.676 186.951 261.162 187.522 261.515 188.269C261.882 189.017 262.065 189.919 262.065 190.977C262.065 192.021 261.882 192.916 261.515 193.664C261.162 194.411 260.676 194.989 260.055 195.398C259.449 195.793 258.737 195.991 257.919 195.991C257.087 195.991 256.304 195.793 255.571 195.398C254.851 195.003 254.273 194.432 253.836 193.685C253.399 192.937 253.18 192.035 253.18 190.977ZM255.55 190.977C255.55 191.626 255.684 192.176 255.951 192.627C256.219 193.078 256.572 193.424 257.009 193.664C257.46 193.889 257.947 194.002 258.469 194.002C258.906 194.002 259.336 193.889 259.759 193.664C260.196 193.438 260.549 193.099 260.817 192.648C261.099 192.183 261.24 191.626 261.24 190.977C261.24 190.469 261.155 190.032 260.986 189.665C260.831 189.285 260.619 188.967 260.352 188.714C260.084 188.446 259.78 188.248 259.442 188.121C259.118 187.994 258.793 187.931 258.469 187.931C257.947 187.931 257.46 188.051 257.009 188.29C256.572 188.516 256.219 188.855 255.951 189.306C255.684 189.757 255.55 190.314 255.55 190.977Z" fill="white"/>
<path opacity="0.1" d="M422.336 364.32L592.852 67.2549L686.308 67.2549L694.178 364.32H422.336Z" fill="url(#paint1_linear_1_6576)"/>
</g>
<g clip-path="url(#clip2_1_6576)">
<path d="M632.314 187.106C630.86 187.106 629.67 188.296 629.67 189.75C629.67 191.205 630.86 192.395 632.314 192.395C633.769 192.395 634.958 191.205 634.958 189.75C634.958 188.296 633.769 187.106 632.314 187.106ZM648.18 187.106C646.725 187.106 645.535 188.296 645.535 189.75C645.535 191.205 646.725 192.395 648.18 192.395C649.634 192.395 650.824 191.205 650.824 189.75C650.824 188.296 649.634 187.106 648.18 187.106ZM640.247 187.106C638.793 187.106 637.603 188.296 637.603 189.75C637.603 191.205 638.793 192.395 640.247 192.395C641.701 192.395 642.891 191.205 642.891 189.75C642.891 188.296 641.701 187.106 640.247 187.106Z" fill="white"/>
</g>
<path d="M571.496 242.122C572.503 247.154 576.515 256.519 585.838 255.82C595.16 255.121 596.276 232.059 612.595 232.059C628.914 232.059 628.914 258.655 656.112 235.653" stroke="white" stroke-width="2.8025" stroke-linecap="round" stroke-linejoin="round"/>
</g>
<path d="M144.617 413.541C128.787 425.851 107.681 415.251 99.1066 408.412L47.6599 605.517L725.371 627.5C729.658 537.862 732.692 355.216 710.531 341.733C682.829 324.88 668.978 356.388 664.031 365.913C659.084 375.439 642.265 382.766 628.414 379.835C614.563 376.904 584.882 413.541 564.105 422.334C543.329 431.127 514.637 382.766 501.776 374.706C488.914 366.646 478.031 384.232 473.084 382.766C468.138 381.301 447.361 335.139 432.521 335.871C417.68 336.604 404.819 379.835 393.936 374.706C383.053 369.577 371.18 408.412 334.574 434.058C297.968 459.703 283.127 336.604 263.34 330.742C243.553 324.88 237.617 350.526 217.83 374.706C198.043 398.887 189.138 380.568 183.202 374.706C177.266 368.844 164.404 398.154 144.617 413.541Z" fill="url(#paint2_linear_1_6576)"/>
<path d="M144.617 413.541C128.787 425.851 107.681 415.251 99.1066 408.412L47.6599 605.517L725.371 627.5C729.658 537.862 732.692 355.216 710.531 341.733C682.829 324.88 668.978 356.388 664.031 365.913C659.084 375.439 642.265 382.766 628.414 379.835C614.563 376.904 584.882 413.541 564.105 422.334C543.329 431.127 514.637 382.766 501.776 374.706C488.914 366.646 478.031 384.232 473.084 382.766C468.138 381.301 447.361 335.139 432.521 335.871C417.68 336.604 404.819 379.835 393.936 374.706C383.053 369.577 371.18 408.412 334.574 434.058C297.968 459.703 283.127 336.604 263.34 330.742C243.553 324.88 237.617 350.526 217.83 374.706C198.043 398.887 189.138 380.568 183.202 374.706C177.266 368.844 164.404 398.154 144.617 413.541Z" stroke="url(#paint3_linear_1_6576)" stroke-width="5.28851" stroke-linecap="round" stroke-linejoin="round"/>
<g filter="url(#filter1_d_1_6576)">
<rect x="333" y="232" width="185.417" height="178" rx="17.8" fill="white"/>
</g>
<rect x="356.733" y="255.733" width="138.692" height="80.1" rx="11.8667" fill="url(#paint4_linear_1_6576)"/>
<path d="M433.893 294.553C434.766 295.141 434.766 296.426 433.893 297.014L418.749 307.207C417.764 307.87 416.438 307.164 416.438 305.976V285.591C416.438 284.403 417.764 283.697 418.749 284.36L433.893 294.553Z" fill="white"/>
<rect x="356.733" y="349.183" width="76.3917" height="11.8667" rx="5.93333" fill="#7670FA"/>
<rect x="356.733" y="372.917" width="134.983" height="5.93333" rx="2.96667" fill="#E4DDFC"/>
<rect x="356.733" y="386.267" width="118.667" height="5.93333" rx="2.96667" fill="#E4DDFC"/>
</g>
</g>
<g filter="url(#filter2_d_1_6576)">
<rect x="22" y="289" width="75.4851" height="75.4851" rx="11" fill="white"/>
<rect x="22.5" y="289.5" width="74.4851" height="74.4851" rx="10.5" stroke="#E7E7E7"/>
</g>
<g clip-path="url(#clip3_1_6576)">
<path d="M73.889 340.897V340.896H73.8961V330.514C73.8961 325.436 72.8027 321.523 66.8654 321.523C64.0111 321.523 62.0956 323.09 61.3137 324.575H61.2311V321.998H55.6016V340.896H61.4635V331.538C61.4635 329.074 61.9305 326.692 64.9818 326.692C67.9882 326.692 68.033 329.504 68.033 331.696V340.897H73.889Z" fill="#0077B5"/>
<path d="M46.0547 321.998H51.9237V340.896H46.0547V321.998Z" fill="#0077B5"/>
<path d="M48.9929 312.59C47.1164 312.59 45.5938 314.113 45.5938 315.989C45.5938 317.866 47.1164 319.42 48.9929 319.42C50.8694 319.42 52.3921 317.866 52.3921 315.989C52.3909 314.113 50.8683 312.59 48.9929 312.59V312.59Z" fill="#0077B5"/>
</g>
<path d="M97 326.074L148 326.074" stroke="#FF5D36" stroke-width="1.61754" stroke-linecap="round" stroke-linejoin="round" stroke-dasharray="4.31 5.39"/>
<g filter="url(#filter3_d_1_6576)">
<rect x="353.465" y="86" width="166.898" height="98.9024" rx="16" fill="white"/>
</g>
<path fill-rule="evenodd" clip-rule="evenodd" d="M372.781 135.451C372.781 120.089 385.235 107.635 400.597 107.635C415.96 107.635 428.414 120.089 428.414 135.451C428.414 150.814 415.96 163.268 400.597 163.268C385.235 163.268 372.781 150.814 372.781 135.451ZM416.051 135.451C416.051 126.916 409.133 119.997 400.598 119.997C392.063 119.997 385.144 126.916 385.144 135.451C385.144 143.986 392.063 150.904 400.598 150.904C409.133 150.904 416.051 143.986 416.051 135.451Z" fill="#74A2D6"/>
<path d="M372.984 138.824L385.257 137.34C386.187 145.036 392.763 150.905 400.598 150.905C409.133 150.905 416.051 143.986 416.051 135.451C416.051 126.916 409.133 119.998 400.598 119.998V107.635C415.96 107.635 428.414 120.089 428.414 135.451C428.414 150.814 415.96 163.268 400.598 163.268C386.377 163.268 374.648 152.596 372.984 138.824Z" fill="#6FDFF7"/>
<path d="M416.879 157.858C423.867 152.805 428.414 144.585 428.414 135.303C428.414 119.94 415.96 107.486 400.597 107.486V119.849C409.132 119.849 416.051 126.768 416.051 135.303C416.051 140.335 413.644 144.942 409.635 147.84L416.879 157.858Z" fill="#5C8AFF"/>
<path d="M400.597 141.632C404.011 141.632 406.779 138.865 406.779 135.451C406.779 132.037 404.011 129.27 400.597 129.27C397.183 129.27 394.416 132.037 394.416 135.451C394.416 138.865 397.183 141.632 400.597 141.632Z" fill="#ECEDF3"/>
<rect x="443.867" y="119.998" width="60.2687" height="12.3628" rx="6.1814" fill="#ECEDF3"/>
<rect x="443.867" y="139.314" width="27.8163" height="12.3628" rx="6.1814" fill="#ECEDF3"/>
<rect x="137.965" y="442.207" width="228.414" height="71.3792" rx="11.8965" fill="white"/>
<rect x="159.379" y="470.759" width="185.586" height="14.2759" rx="7.13793" fill="#716BFA"/>
<rect x="159.379" y="470.759" width="185.586" height="14.2759" rx="7.13793" fill="url(#paint5_linear_1_6576)"/>
<rect x="254.584" y="522.621" width="228.414" height="71.3792" rx="11.8965" fill="white"/>
<rect x="275.998" y="551.173" width="185.586" height="14.2759" rx="7.13793" fill="#F7EDFE"/>
<path fill-rule="evenodd" clip-rule="evenodd" d="M598.362 584.187C595.237 584.187 592.111 583.413 589.336 581.845L586.543 580.269C542.647 555.578 515.384 508.963 515.384 458.604V457.267C515.384 450.638 518.98 444.479 524.77 441.206L589.327 404.899C594.905 401.764 601.829 401.755 607.389 404.889L671.937 441.197C677.745 444.479 681.341 450.638 681.341 457.267V458.604C681.341 508.963 654.078 555.578 610.182 580.269L607.398 581.836C604.613 583.404 601.488 584.187 598.362 584.187Z" fill="#03133D"/>
<mask id="mask1_1_6576" style="mask-type:luminance" maskUnits="userSpaceOnUse" x="515" y="402" width="167" height="183">
<path fill-rule="evenodd" clip-rule="evenodd" d="M598.362 584.187C595.237 584.187 592.111 583.413 589.336 581.845L586.543 580.269C542.647 555.578 515.384 508.963 515.384 458.604V457.267C515.384 450.638 518.98 444.479 524.77 441.206L589.327 404.899C594.905 401.764 601.829 401.755 607.389 404.889L671.937 441.197C677.745 444.479 681.341 450.638 681.341 457.267V458.604C681.341 508.963 654.078 555.578 610.182 580.269L607.398 581.836C604.613 583.404 601.488 584.187 598.362 584.187Z" fill="white"/>
</mask>
<g mask="url(#mask1_1_6576)">
<rect x="487.724" y="382.725" width="221.276" height="221.276" rx="11.8965" fill="url(#paint6_linear_1_6576)"/>
<rect x="487.724" y="382.725" width="221.276" height="221.276" rx="11.8965" fill="url(#paint7_linear_1_6576)"/>
</g>
<path fill-rule="evenodd" clip-rule="evenodd" d="M614.204 484.77L597.357 506.897C596.664 507.808 595.591 508.347 594.448 508.354H594.422C593.29 508.354 592.22 507.831 591.519 506.938L582.55 495.48C581.296 493.879 581.577 491.559 583.181 490.305C584.782 489.048 587.105 489.328 588.359 490.936L594.381 498.629L608.336 480.304C609.568 478.685 611.88 478.368 613.507 479.603C615.126 480.839 615.439 483.151 614.204 484.77ZM598.364 456.723C577.996 456.723 561.485 473.234 561.485 493.603C561.485 513.967 577.996 530.482 598.364 530.482C618.732 530.482 635.243 513.967 635.243 493.603C635.243 473.234 618.732 456.723 598.364 456.723Z" fill="#231F20"/>
<mask id="mask2_1_6576" style="mask-type:luminance" maskUnits="userSpaceOnUse" x="561" y="456" width="75" height="75">
<path fill-rule="evenodd" clip-rule="evenodd" d="M614.204 484.77L597.357 506.897C596.664 507.808 595.591 508.347 594.448 508.354H594.422C593.29 508.354 592.22 507.831 591.519 506.938L582.55 495.48C581.296 493.879 581.577 491.559 583.181 490.305C584.782 489.048 587.105 489.328 588.359 490.936L594.381 498.629L608.336 480.304C609.568 478.685 611.88 478.368 613.507 479.603C615.126 480.839 615.439 483.151 614.204 484.77ZM598.364 456.723C577.996 456.723 561.485 473.234 561.485 493.603C561.485 513.967 577.996 530.482 598.364 530.482C618.732 530.482 635.243 513.967 635.243 493.603C635.243 473.234 618.732 456.723 598.364 456.723Z" fill="white"/>
</mask>
<g mask="url(#mask2_1_6576)">
<rect x="554.107" y="449.346" width="88.5103" height="88.5103" fill="white"/>
</g>
<g filter="url(#filter4_d_1_6576)">
<rect x="654.943" y="14" width="65.7251" height="65.7251" rx="11" fill="white"/>
<rect x="655.413" y="14.4695" width="64.7862" height="64.7862" rx="10.5305" stroke="#E7E7E7" stroke-width="0.93893"/>
</g>
<g clip-path="url(#clip4_1_6576)">
<path d="M700.888 41.0423C700.888 40.7451 700.877 40.4562 700.864 40.1714C702.2 39.2225 703.324 38.0381 704.24 36.6743V36.6729C703.017 37.2083 701.717 37.5643 700.358 37.7368C701.755 36.903 702.822 35.5926 703.323 34.0138C702.021 34.7902 700.583 35.3379 699.051 35.6446C697.814 34.3274 696.052 33.5126 694.129 33.5126C690.4 33.5126 687.397 36.5401 687.397 40.2508C687.397 40.7848 687.442 41.2983 687.553 41.7872C681.952 41.5133 676.996 38.8295 673.666 34.7395C673.085 35.7487 672.743 36.903 672.743 38.1449C672.743 40.4781 673.944 42.5457 675.736 43.7438C674.653 43.7233 673.592 43.4084 672.692 42.9141V42.988C672.692 46.2619 675.027 48.9813 678.09 49.6084C677.06 49.8905 675.792 49.8796 675.049 49.7152C675.921 52.3826 678.399 54.3448 681.343 54.4091C679.051 56.2015 676.14 57.2819 672.989 57.2819C672.437 57.2819 671.907 57.2572 671.378 57.1901C674.363 59.1139 677.898 60.2135 681.713 60.2135C694.11 60.2135 700.888 49.9439 700.888 41.0423Z" fill="#55ACEE"/>
</g>
<path d="M654.946 44.9848H608V137" stroke="#FF5D36" stroke-width="1.87786" stroke-linecap="round" stroke-linejoin="round" stroke-dasharray="3.76 4.69"/>
<g filter="url(#filter5_d_1_6576)">
<rect x="70.9999" y="520.926" width="54.2295" height="54.2295" rx="11" fill="white"/>
<rect x="71.3152" y="521.242" width="53.5989" height="53.5989" rx="10.6847" stroke="#E7E7E7" stroke-width="0.630575"/>
</g>
<g clip-path="url(#clip5_1_6576)">
<path d="M86.2505 536.329C84.1197 538.542 84.5558 540.893 84.5558 548.036C84.5558 553.967 83.5209 559.913 88.9371 561.313C90.6284 561.748 105.614 561.748 107.303 561.311C109.558 560.729 111.393 558.9 111.643 555.71C111.678 555.265 111.678 540.814 111.642 540.36C111.376 536.963 109.284 535.005 106.529 534.608C105.897 534.517 105.771 534.49 102.531 534.484C91.0374 534.49 88.518 533.978 86.2505 536.329Z" fill="url(#paint8_linear_1_6576)"/>
<path d="M98.1149 538.031C94.0127 538.031 90.1172 537.666 88.6293 541.485C88.0147 543.062 88.104 545.11 88.104 548.043C88.104 550.617 88.0215 553.036 88.6293 554.6C90.1138 558.421 94.041 558.055 98.1127 558.055C102.041 558.055 106.091 558.464 107.597 554.6C108.213 553.007 108.123 550.989 108.123 548.043C108.123 544.132 108.338 541.607 106.441 539.711C104.521 537.79 101.923 538.031 98.1104 538.031H98.1149ZM97.2179 539.835C105.775 539.822 106.864 538.87 106.263 552.085C106.049 556.759 102.491 556.246 98.1161 556.246C90.1398 556.246 89.9105 556.018 89.9105 548.038C89.9105 539.966 90.5432 539.84 97.2179 539.833V539.835ZM103.459 541.497C102.796 541.497 102.258 542.035 102.258 542.698C102.258 543.361 102.796 543.899 103.459 543.899C104.122 543.899 104.66 543.361 104.66 542.698C104.66 542.035 104.122 541.497 103.459 541.497ZM98.1149 542.901C95.2758 542.901 92.9744 545.204 92.9744 548.043C92.9744 550.882 95.2758 553.184 98.1149 553.184C100.954 553.184 103.254 550.882 103.254 548.043C103.254 545.204 100.954 542.901 98.1149 542.901ZM98.1149 544.706C102.527 544.706 102.532 551.38 98.1149 551.38C93.7043 551.38 93.6975 544.706 98.1149 544.706Z" fill="white"/>
</g>
<path d="M122.39 548.124H188.6V531.016H234.947V508" stroke="#FF5D36" stroke-width="1.26115" stroke-linecap="round" stroke-linejoin="round" stroke-dasharray="2.52 3.15"/>
<g filter="url(#filter6_d_1_6576)">
<rect x="84" y="47" width="49.7436" height="49.7436" rx="11" fill="white"/>
<rect x="84.4145" y="47.4145" width="48.9146" height="48.9146" rx="10.5855" stroke="#E7E7E7" stroke-width="0.82906"/>
</g>
<g clip-path="url(#clip6_1_6576)">
<path d="M116.865 61.2127H100.876C99.4056 61.2127 98.2109 62.4074 98.2109 63.8775V79.8666C98.2109 81.3358 99.4056 82.5314 100.876 82.5314H116.865C118.334 82.5314 119.53 81.3358 119.53 79.8666V63.8775C119.53 62.4074 118.334 61.2127 116.865 61.2127Z" fill="#3B5999"/>
<path d="M112.868 71.8721V69.2072C112.868 68.4717 113.465 68.541 114.2 68.541H115.532V65.21H112.868C110.659 65.21 108.87 66.999 108.87 69.2072V71.8721H106.206V75.2031H108.87V82.5314H112.868V75.2031H114.866L116.199 71.8721H112.868Z" fill="white"/>
</g>
<path d="M136.231 70.2133H190.543V98.6796H277.172V136.538" stroke="#FF5D36" stroke-width="1.65812" stroke-linecap="round" stroke-linejoin="round" stroke-dasharray="3.32 4.15"/>
<defs>
<filter id="filter0_d_1_6576" x="70.5135" y="104.524" width="671.436" height="441.386" filterUnits="userSpaceOnUse" color-interpolation-filters="sRGB">
<feFlood flood-opacity="0" result="BackgroundImageFix"/>
<feColorMatrix in="SourceAlpha" type="matrix" values="0 0 0 0 0 0 0 0 0 0 0 0 0 0 0 0 0 0 127 0" result="hardAlpha"/>
<feOffset dy="16.4755"/>
<feGaussianBlur stdDeviation="16.4755"/>
<feColorMatrix type="matrix" values="0 0 0 0 0 0 0 0 0 0 0 0 0 0 0.262745 0 0 0 0.05 0"/>
<feBlend mode="normal" in2="BackgroundImageFix" result="effect1_dropShadow_1_6576"/>
<feBlend mode="normal" in="SourceGraphic" in2="effect1_dropShadow_1_6576" result="shape"/>
</filter>
<filter id="filter1_d_1_6576" x="303.333" y="217.167" width="244.75" height="237.333" filterUnits="userSpaceOnUse" color-interpolation-filters="sRGB">
<feFlood flood-opacity="0" result="BackgroundImageFix"/>
<feColorMatrix in="SourceAlpha" type="matrix" values="0 0 0 0 0 0 0 0 0 0 0 0 0 0 0 0 0 0 127 0" result="hardAlpha"/>
<feOffset dy="14.8333"/>
<feGaussianBlur stdDeviation="14.8333"/>
<feColorMatrix type="matrix" values="0 0 0 0 0 0 0 0 0 0 0 0 0 0 0.262745 0 0 0 0.05 0"/>
<feBlend mode="normal" in2="BackgroundImageFix" result="effect1_dropShadow_1_6576"/>
<feBlend mode="normal" in="SourceGraphic" in2="effect1_dropShadow_1_6576" result="shape"/>
</filter>
<filter id="filter2_d_1_6576" x="0.432837" y="273.903" width="118.619" height="118.619" filterUnits="userSpaceOnUse" color-interpolation-filters="sRGB">
<feFlood flood-opacity="0" result="BackgroundImageFix"/>
<feColorMatrix in="SourceAlpha" type="matrix" values="0 0 0 0 0 0 0 0 0 0 0 0 0 0 0 0 0 0 127 0" result="hardAlpha"/>
<feOffset dy="6.47015"/>
<feGaussianBlur stdDeviation="10.7836"/>
<feColorMatrix type="matrix" values="0 0 0 0 0.11 0 0 0 0 0.14137 0 0 0 0 0.4125 0 0 0 0.05 0"/>
<feBlend mode="normal" in2="BackgroundImageFix" result="effect1_dropShadow_1_6576"/>
<feBlend mode="normal" in="SourceGraphic" in2="effect1_dropShadow_1_6576" result="shape"/>
</filter>
<filter id="filter3_d_1_6576" x="321.465" y="86" width="230.898" height="162.902" filterUnits="userSpaceOnUse" color-interpolation-filters="sRGB">
<feFlood flood-opacity="0" result="BackgroundImageFix"/>
<feColorMatrix in="SourceAlpha" type="matrix" values="0 0 0 0 0 0 0 0 0 0 0 0 0 0 0 0 0 0 127 0" result="hardAlpha"/>
<feOffset dy="32"/>
<feGaussianBlur stdDeviation="16"/>
<feColorMatrix type="matrix" values="0 0 0 0 0 0 0 0 0 0.0392172 0 0 0 0 0.138685 0 0 0 0.0768795 0"/>
<feBlend mode="normal" in2="BackgroundImageFix" result="effect1_dropShadow_1_6576"/>
<feBlend mode="normal" in="SourceGraphic" in2="effect1_dropShadow_1_6576" result="shape"/>
</filter>
<filter id="filter4_d_1_6576" x="636.165" y="0.854974" width="103.282" height="103.282" filterUnits="userSpaceOnUse" color-interpolation-filters="sRGB">
<feFlood flood-opacity="0" result="BackgroundImageFix"/>
<feColorMatrix in="SourceAlpha" type="matrix" values="0 0 0 0 0 0 0 0 0 0 0 0 0 0 0 0 0 0 127 0" result="hardAlpha"/>
<feOffset dy="5.63358"/>
<feGaussianBlur stdDeviation="9.3893"/>
<feColorMatrix type="matrix" values="0 0 0 0 0.11 0 0 0 0 0.14137 0 0 0 0 0.4125 0 0 0 0.05 0"/>
<feBlend mode="normal" in2="BackgroundImageFix" result="effect1_dropShadow_1_6576"/>
<feBlend mode="normal" in="SourceGraphic" in2="effect1_dropShadow_1_6576" result="shape"/>
</filter>
<filter id="filter5_d_1_6576" x="58.3884" y="512.098" width="79.4525" height="79.4525" filterUnits="userSpaceOnUse" color-interpolation-filters="sRGB">
<feFlood flood-opacity="0" result="BackgroundImageFix"/>
<feColorMatrix in="SourceAlpha" type="matrix" values="0 0 0 0 0 0 0 0 0 0 0 0 0 0 0 0 0 0 127 0" result="hardAlpha"/>
<feOffset dy="3.78345"/>
<feGaussianBlur stdDeviation="6.30575"/>
<feColorMatrix type="matrix" values="0 0 0 0 0.11 0 0 0 0 0.14137 0 0 0 0 0.4125 0 0 0 0.05 0"/>
<feBlend mode="normal" in2="BackgroundImageFix" result="effect1_dropShadow_1_6576"/>
<feBlend mode="normal" in="SourceGraphic" in2="effect1_dropShadow_1_6576" result="shape"/>
</filter>
<filter id="filter6_d_1_6576" x="67.4188" y="35.3932" width="82.906" height="82.906" filterUnits="userSpaceOnUse" color-interpolation-filters="sRGB">
<feFlood flood-opacity="0" result="BackgroundImageFix"/>
<feColorMatrix in="SourceAlpha" type="matrix" values="0 0 0 0 0 0 0 0 0 0 0 0 0 0 0 0 0 0 127 0" result="hardAlpha"/>
<feOffset dy="4.97436"/>
<feGaussianBlur stdDeviation="8.2906"/>
<feColorMatrix type="matrix" values="0 0 0 0 0.11 0 0 0 0 0.14137 0 0 0 0 0.4125 0 0 0 0.05 0"/>
<feBlend mode="normal" in2="BackgroundImageFix" result="effect1_dropShadow_1_6576"/>
<feBlend mode="normal" in="SourceGraphic" in2="effect1_dropShadow_1_6576" result="shape"/>
</filter>
<linearGradient id="paint0_linear_1_6576" x1="135.195" y1="214.871" x2="677.267" y2="214.871" gradientUnits="userSpaceOnUse">
<stop stop-color="#FF5858"/>
<stop offset="1" stop-color="#F09819"/>
</linearGradient>
<linearGradient id="paint1_linear_1_6576" x1="600.23" y1="24.125" x2="563.075" y2="341.399" gradientUnits="userSpaceOnUse">
<stop stop-color="white"/>
<stop offset="0.0001" stop-color="white"/>
<stop offset="1" stop-color="white" stop-opacity="0"/>
</linearGradient>
<linearGradient id="paint2_linear_1_6576" x1="421.453" y1="289.64" x2="421.453" y2="621.749" gradientUnits="userSpaceOnUse">
<stop stop-color="#F3F0FF"/>
<stop offset="1" stop-color="#F1EDFF" stop-opacity="0"/>
</linearGradient>
<linearGradient id="paint3_linear_1_6576" x1="47.6599" y1="478.698" x2="728.403" y2="478.698" gradientUnits="userSpaceOnUse">
<stop stop-color="#271EF9"/>
<stop offset="1" stop-color="#5750FA"/>
</linearGradient>
<linearGradient id="paint4_linear_1_6576" x1="356.733" y1="255.733" x2="356.733" y2="335.833" gradientUnits="userSpaceOnUse">
<stop stop-color="#CDD1F5"/>
<stop offset="1" stop-color="#E8F0FF" stop-opacity="0"/>
</linearGradient>
<linearGradient id="paint5_linear_1_6576" x1="159.379" y1="477.897" x2="344.965" y2="477.897" gradientUnits="userSpaceOnUse">
<stop stop-color="#FF5858"/>
<stop offset="1" stop-color="#F09819"/>
</linearGradient>
<linearGradient id="paint6_linear_1_6576" x1="487.724" y1="382.725" x2="709" y2="604" gradientUnits="userSpaceOnUse">
<stop stop-color="#AC60E5"/>
<stop offset="1" stop-color="#0C87F0"/>
</linearGradient>
<linearGradient id="paint7_linear_1_6576" x1="487.724" y1="493.362" x2="709" y2="493.362" gradientUnits="userSpaceOnUse">
<stop stop-color="#FF5858"/>
<stop offset="1" stop-color="#F09819"/>
</linearGradient>
<linearGradient id="paint8_linear_1_6576" x1="86.3025" y1="559.867" x2="111.503" y2="538.056" gradientUnits="userSpaceOnUse">
<stop stop-color="#FFDD55"/>
<stop offset="0.5" stop-color="#FF543E"/>
<stop offset="1" stop-color="#C837AB"/>
</linearGradient>
<clipPath id="clip0_1_6576">
<rect x="103.465" y="121" width="605.534" height="375.484" rx="13.2213" fill="white"/>
</clipPath>
<clipPath id="clip1_1_6576">
<rect x="135.195" y="152.731" width="542.072" height="124.28" rx="13.2213" fill="white"/>
</clipPath>
<clipPath id="clip2_1_6576">
<rect width="31.731" height="31.731" fill="white" transform="translate(624.383 173.885)"/>
</clipPath>
<clipPath id="clip3_1_6576">
<rect width="28.3069" height="28.3069" fill="white" transform="translate(45.5859 312.59)"/>
</clipPath>
<clipPath id="clip4_1_6576">
<rect width="32.8626" height="32.8626" fill="white" transform="translate(671.378 30.4312)"/>
</clipPath>
<clipPath id="clip5_1_6576">
<rect width="27.1147" height="27.1147" fill="white" transform="translate(84.5588 534.484)"/>
</clipPath>
<clipPath id="clip6_1_6576">
<rect width="21.3187" height="21.3187" fill="white" transform="translate(98.2109 61.2127)"/>
</clipPath>
</defs>
</svg>
