<svg width="32" height="33" viewBox="0 0 32 33" fill="none" xmlns="http://www.w3.org/2000/svg">
<path d="M20.555 15.9673L14.555 11.9673C14.4044 11.8668 14.2293 11.8091 14.0484 11.8003C13.8675 11.7916 13.6877 11.8321 13.528 11.9176C13.3684 12.003 13.2349 12.1302 13.1419 12.2856C13.0489 12.441 12.9999 12.6187 13 12.7998V20.7998C12.9999 20.9809 13.0489 21.1586 13.1419 21.314C13.2349 21.4694 13.3684 21.5966 13.528 21.6821C13.6877 21.7675 13.8675 21.8081 14.0484 21.7993C14.2293 21.7905 14.4044 21.7328 14.555 21.6323L20.555 17.6323C20.6922 17.541 20.8047 17.4173 20.8825 17.272C20.9603 17.1268 21.001 16.9646 21.001 16.7998C21.001 16.635 20.9603 16.4728 20.8825 16.3276C20.8047 16.1824 20.6922 16.0586 20.555 15.9673ZM15 18.9311V14.6748L18.1975 16.7998L15 18.9311ZM29.2913 9.48981C29.1735 9.02899 28.9478 8.60279 28.6329 8.24635C28.318 7.88991 27.9228 7.61346 27.48 7.43981C23.195 5.78481 16.375 5.79981 16 5.79981C15.625 5.79981 8.805 5.78481 4.52 7.43981C4.0772 7.61346 3.68204 7.88991 3.36712 8.24635C3.05219 8.60279 2.82653 9.02899 2.70875 9.48981C2.385 10.7373 2 13.0173 2 16.7998C2 20.5823 2.385 22.8623 2.70875 24.1098C2.82636 24.5709 3.05194 24.9973 3.36687 25.354C3.68181 25.7106 4.07706 25.9873 4.52 26.1611C8.625 27.7448 15.05 27.7998 15.9175 27.7998H16.0825C16.95 27.7998 23.3787 27.7448 27.48 26.1611C27.9229 25.9873 28.3182 25.7106 28.6331 25.354C28.9481 24.9973 29.1736 24.5709 29.2913 24.1098C29.615 22.8598 30 20.5823 30 16.7998C30 13.0173 29.615 10.7373 29.2913 9.48981ZM27.355 23.6148C27.3169 23.7682 27.243 23.9103 27.1394 24.0296C27.0357 24.1489 26.9053 24.2419 26.7588 24.3011C22.8025 25.8286 16.0738 25.8011 16.0088 25.8011H16C15.9325 25.8011 9.20875 25.8261 5.25 24.3011C5.10346 24.2419 4.97303 24.1489 4.86938 24.0296C4.76574 23.9103 4.69184 23.7682 4.65375 23.6148C4.35 22.4736 4 20.3711 4 16.7998C4 13.2286 4.35 11.1261 4.645 9.99106C4.68239 9.83679 4.75596 9.69363 4.85965 9.57343C4.96333 9.45323 5.09413 9.35943 5.24125 9.29981C9.05625 7.82606 15.4487 7.79981 15.9725 7.79981H16.0063C16.0738 7.79981 22.8038 7.77731 26.7563 9.29981C26.9028 9.35895 27.0332 9.45198 27.1369 9.57126C27.2405 9.69055 27.3144 9.8327 27.3525 9.98606C27.65 11.1261 28 13.2286 28 16.7998C28 20.3711 27.65 22.4736 27.355 23.6086V23.6148Z" fill="white"/>
</svg>
