<svg width="32" height="33" viewBox="0 0 32 33" fill="none" xmlns="http://www.w3.org/2000/svg">
<path d="M30.9237 9.41732C30.8481 9.23458 30.72 9.07838 30.5555 8.96846C30.3911 8.85855 30.1978 8.79986 30 8.79982H26.1963C25.6644 7.89505 24.9076 7.14327 23.9992 6.61758C23.0909 6.09189 22.0619 5.81017 21.0125 5.79982C20.2306 5.78957 19.4546 5.93579 18.7301 6.22988C18.0056 6.52398 17.3472 6.96001 16.7937 7.51232C16.2241 8.07135 15.7719 8.73863 15.4639 9.47493C15.1559 10.2112 14.9981 11.0017 15 11.7998V12.5611C9.9675 11.2336 5.85125 7.13982 5.8075 7.09607C5.67334 6.96072 5.5033 6.86653 5.3174 6.82458C5.1315 6.78263 4.93748 6.79468 4.7582 6.8593C4.57891 6.92392 4.42183 7.03842 4.30544 7.18933C4.18905 7.34023 4.11821 7.52125 4.10125 7.71107C3.5625 13.6848 5.2975 17.6823 6.85125 19.9836C7.60885 21.1212 8.53048 22.1405 9.58625 23.0086C7.6825 25.1998 4.685 26.3511 4.6525 26.3636C4.51139 26.4164 4.38405 26.5005 4.27999 26.6095C4.17594 26.7184 4.09785 26.8495 4.05158 26.9929C4.0053 27.1363 3.99203 27.2883 4.01275 27.4376C4.03347 27.5868 4.08765 27.7295 4.17125 27.8548C4.265 27.9948 4.64 28.4861 5.55625 28.9448C6.68875 29.5123 8.185 29.7998 10 29.7998C18.8337 29.7998 26.215 22.9973 26.9688 14.2448L30.7075 10.5073C30.8473 10.3674 30.9425 10.1891 30.981 9.99512C31.0195 9.8011 30.9995 9.60002 30.9237 9.41732ZM25.2987 13.0936C25.1273 13.2654 25.0242 13.4938 25.0088 13.7361C24.5 21.6223 17.91 27.7998 10 27.7998C8.68 27.7998 7.75 27.6248 7.0975 27.4148C8.53625 26.6336 10.5425 25.2898 11.8325 23.3548C11.9082 23.241 11.9598 23.1129 11.9841 22.9785C12.0083 22.844 12.0048 22.7059 11.9736 22.5728C11.9425 22.4398 11.8844 22.3145 11.8029 22.2048C11.7214 22.095 11.6184 22.0032 11.5 21.9348C11.4412 21.9011 6.01125 18.6423 6 9.93482C8 11.5598 11.6562 14.0811 15.8337 14.7836C15.9769 14.8077 16.1236 14.8004 16.2637 14.7621C16.4037 14.7238 16.5338 14.6555 16.6448 14.5619C16.7558 14.4683 16.845 14.3516 16.9064 14.22C16.9677 14.0884 16.9997 13.945 17 13.7998V11.7998C16.9989 11.2664 17.1045 10.7381 17.3105 10.2461C17.5166 9.75406 17.819 9.30823 18.2 8.93482C18.5652 8.56894 19 8.27999 19.4788 8.08504C19.9576 7.89009 20.4706 7.79311 20.9875 7.79982C22.57 7.81982 24.0487 8.78482 24.6675 10.2011C24.7455 10.3791 24.8737 10.5306 25.0364 10.6369C25.1992 10.7433 25.3894 10.7999 25.5837 10.7998H27.5837L25.2987 13.0936Z" fill="white"/>
</svg>
