<svg width="32" height="33" viewBox="0 0 32 33" fill="none" xmlns="http://www.w3.org/2000/svg">
<path d="M27 3.7998H5C4.46957 3.7998 3.96086 4.01052 3.58579 4.38559C3.21071 4.76066 3 5.26937 3 5.7998V27.7998C3 28.3302 3.21071 28.8389 3.58579 29.214C3.96086 29.5891 4.46957 29.7998 5 29.7998H27C27.5304 29.7998 28.0391 29.5891 28.4142 29.214C28.7893 28.8389 29 28.3302 29 27.7998V5.7998C29 5.26937 28.7893 4.76066 28.4142 4.38559C28.0391 4.01052 27.5304 3.7998 27 3.7998ZM27 27.7998H5V5.7998H27V27.7998ZM12 14.7998V22.7998C12 23.065 11.8946 23.3194 11.7071 23.5069C11.5196 23.6944 11.2652 23.7998 11 23.7998C10.7348 23.7998 10.4804 23.6944 10.2929 23.5069C10.1054 23.3194 10 23.065 10 22.7998V14.7998C10 14.5346 10.1054 14.2802 10.2929 14.0927C10.4804 13.9052 10.7348 13.7998 11 13.7998C11.2652 13.7998 11.5196 13.9052 11.7071 14.0927C11.8946 14.2802 12 14.5346 12 14.7998ZM23 18.2998V22.7998C23 23.065 22.8946 23.3194 22.7071 23.5069C22.5196 23.6944 22.2652 23.7998 22 23.7998C21.7348 23.7998 21.4804 23.6944 21.2929 23.5069C21.1054 23.3194 21 23.065 21 22.7998V18.2998C21 17.6368 20.7366 17.0009 20.2678 16.532C19.7989 16.0632 19.163 15.7998 18.5 15.7998C17.837 15.7998 17.2011 16.0632 16.7322 16.532C16.2634 17.0009 16 17.6368 16 18.2998V22.7998C16 23.065 15.8946 23.3194 15.7071 23.5069C15.5196 23.6944 15.2652 23.7998 15 23.7998C14.7348 23.7998 14.4804 23.6944 14.2929 23.5069C14.1054 23.3194 14 23.065 14 22.7998V14.7998C14.0012 14.5549 14.0923 14.3189 14.256 14.1367C14.4197 13.9544 14.6446 13.8386 14.888 13.8112C15.1314 13.7837 15.3764 13.8466 15.5765 13.9878C15.7767 14.129 15.918 14.3388 15.9738 14.5773C16.6502 14.1184 17.4389 13.8524 18.2552 13.808C19.0714 13.7635 19.8844 13.9422 20.6067 14.3249C21.329 14.7076 21.9335 15.2798 22.3551 15.9801C22.7768 16.6804 22.9997 17.4824 23 18.2998ZM12.5 11.2998C12.5 11.5965 12.412 11.8865 12.2472 12.1332C12.0824 12.3798 11.8481 12.5721 11.574 12.6856C11.2999 12.7992 10.9983 12.8289 10.7074 12.771C10.4164 12.7131 10.1491 12.5702 9.93934 12.3605C9.72956 12.1507 9.5867 11.8834 9.52882 11.5924C9.47094 11.3015 9.50065 10.9999 9.61418 10.7258C9.72771 10.4517 9.91997 10.2174 10.1666 10.0526C10.4133 9.88778 10.7033 9.7998 11 9.7998C11.3978 9.7998 11.7794 9.95784 12.0607 10.2391C12.342 10.5204 12.5 10.902 12.5 11.2998Z" fill="white"/>
</svg>
