<svg width="32" height="33" viewBox="0 0 32 33" fill="none" xmlns="http://www.w3.org/2000/svg">
<path d="M16 10.7998C14.8133 10.7998 13.6533 11.1517 12.6666 11.811C11.6799 12.4703 10.9108 13.4073 10.4567 14.5037C10.0026 15.6001 9.88378 16.8065 10.1153 17.9703C10.3468 19.1342 10.9182 20.2033 11.7574 21.0424C12.5965 21.8816 13.6656 22.453 14.8295 22.6845C15.9933 22.916 17.1997 22.7972 18.2961 22.3431C19.3925 21.889 20.3295 21.1199 20.9888 20.1332C21.6481 19.1465 22 17.9865 22 16.7998C21.9983 15.209 21.3657 13.6839 20.2408 12.559C19.116 11.4341 17.5908 10.8015 16 10.7998ZM16 20.7998C15.2089 20.7998 14.4355 20.5652 13.7777 20.1257C13.1199 19.6862 12.6072 19.0614 12.3045 18.3305C12.0017 17.5996 11.9225 16.7954 12.0769 16.0194C12.2312 15.2435 12.6122 14.5308 13.1716 13.9714C13.731 13.412 14.4437 13.031 15.2196 12.8767C15.9956 12.7223 16.7998 12.8015 17.5307 13.1043C18.2616 13.407 18.8864 13.9197 19.3259 14.5775C19.7654 15.2353 20 16.0087 20 16.7998C20 17.8607 19.5786 18.8781 18.8284 19.6282C18.0783 20.3784 17.0609 20.7998 16 20.7998ZM22 3.7998H10C8.14409 3.80179 6.36477 4.53993 5.05245 5.85225C3.74012 7.16457 3.00199 8.9439 3 10.7998V22.7998C3.00199 24.6557 3.74012 26.435 5.05245 27.7474C6.36477 29.0597 8.14409 29.7978 10 29.7998H22C23.8559 29.7978 25.6352 29.0597 26.9476 27.7474C28.2599 26.435 28.998 24.6557 29 22.7998V10.7998C28.998 8.9439 28.2599 7.16457 26.9476 5.85225C25.6352 4.53993 23.8559 3.80179 22 3.7998ZM27 22.7998C27 24.1259 26.4732 25.3977 25.5355 26.3353C24.5979 27.273 23.3261 27.7998 22 27.7998H10C8.67392 27.7998 7.40215 27.273 6.46447 26.3353C5.52678 25.3977 5 24.1259 5 22.7998V10.7998C5 9.47372 5.52678 8.20195 6.46447 7.26427C7.40215 6.32659 8.67392 5.7998 10 5.7998H22C23.3261 5.7998 24.5979 6.32659 25.5355 7.26427C26.4732 8.20195 27 9.47372 27 10.7998V22.7998ZM24 10.2998C24 10.5965 23.912 10.8865 23.7472 11.1332C23.5824 11.3798 23.3481 11.5721 23.074 11.6856C22.7999 11.7992 22.4983 11.8289 22.2074 11.771C21.9164 11.7131 21.6491 11.5702 21.4393 11.3605C21.2296 11.1507 21.0867 10.8834 21.0288 10.5924C20.9709 10.3015 21.0007 9.99987 21.1142 9.72578C21.2277 9.45169 21.42 9.21742 21.6666 9.0526C21.9133 8.88778 22.2033 8.7998 22.5 8.7998C22.8978 8.7998 23.2794 8.95784 23.5607 9.23914C23.842 9.52045 24 9.90198 24 10.2998Z" fill="white"/>
</svg>
