<svg width="32" height="33" viewBox="0 0 32 33" fill="none" xmlns="http://www.w3.org/2000/svg">
<path d="M16 3.7998C13.4288 3.7998 10.9154 4.56224 8.77759 5.9907C6.63975 7.41916 4.97351 9.44948 3.98957 11.8249C3.00563 14.2004 2.74819 16.8142 3.2498 19.336C3.75141 21.8577 4.98953 24.1741 6.80762 25.9922C8.6257 27.8103 10.9421 29.0484 13.4638 29.55C15.9856 30.0516 18.5995 29.7942 20.9749 28.8102C23.3503 27.8263 25.3807 26.1601 26.8091 24.0222C28.2376 21.8844 29 19.371 29 16.7998C28.9964 13.3531 27.6256 10.0486 25.1884 7.61144C22.7512 5.17425 19.4467 3.80344 16 3.7998ZM17 27.7536V19.7998H20C20.2652 19.7998 20.5196 19.6944 20.7071 19.5069C20.8946 19.3194 21 19.065 21 18.7998C21 18.5346 20.8946 18.2802 20.7071 18.0927C20.5196 17.9052 20.2652 17.7998 20 17.7998H17V14.7998C17 14.2694 17.2107 13.7607 17.5858 13.3856C17.9609 13.0105 18.4696 12.7998 19 12.7998H21C21.2652 12.7998 21.5196 12.6944 21.7071 12.5069C21.8946 12.3194 22 12.065 22 11.7998C22 11.5346 21.8946 11.2802 21.7071 11.0927C21.5196 10.9052 21.2652 10.7998 21 10.7998H19C17.9391 10.7998 16.9217 11.2212 16.1716 11.9714C15.4214 12.7215 15 13.7389 15 14.7998V17.7998H12C11.7348 17.7998 11.4804 17.9052 11.2929 18.0927C11.1054 18.2802 11 18.5346 11 18.7998C11 19.065 11.1054 19.3194 11.2929 19.5069C11.4804 19.6944 11.7348 19.7998 12 19.7998H15V27.7536C12.181 27.4962 9.56971 26.162 7.7093 24.0285C5.8489 21.895 4.8826 19.1264 5.0114 16.2986C5.1402 13.4708 6.35419 10.8015 8.40085 8.84594C10.4475 6.89038 13.1693 5.7991 16 5.7991C18.8307 5.7991 21.5525 6.89038 23.5992 8.84594C25.6458 10.8015 26.8598 13.4708 26.9886 16.2986C27.1174 19.1264 26.1511 21.895 24.2907 24.0285C22.4303 26.162 19.819 27.4962 17 27.7536Z" fill="white"/>
</svg>
