<svg width="338" height="277" viewBox="0 0 338 277" fill="none" xmlns="http://www.w3.org/2000/svg">
<g filter="url(#filter0_d_1_7016)">
<rect x="22" y="19" width="45.8428" height="45.8428" rx="11.7182" fill="white"/>
<rect x="22.4416" y="19.4416" width="44.9596" height="44.9596" rx="11.2766" stroke="#E7E7E7" stroke-width="0.883191"/>
<g clip-path="url(#clip0_1_7016)">
<path d="M50.7193 32.8044H53.8112L47.0562 40.5286L55.0034 51.0373H48.7811L43.9081 44.663L38.331 51.0373H35.2375L42.463 42.7753L34.8392 32.8053H41.2195L45.6245 38.6316L50.7193 32.8044ZM49.6347 49.1866H51.3478L40.2886 34.5586H38.4503L49.6347 49.1866Z" fill="black"/>
</g>
</g>
<path d="M69.2889 40.9633H89.3695C96.2016 40.9633 101.74 46.5018 101.74 53.3339V53.3339C101.74 60.9645 108.581 66.7756 116.111 65.5416L119.062 65.0582C128.138 63.5709 136.383 70.575 136.383 79.7723V90.4704" stroke="#FF5D36" stroke-width="1.76638" stroke-linecap="round" stroke-linejoin="round" stroke-dasharray="3.53 4.42"/>
<g filter="url(#filter1_d_1_7016)">
<rect x="270.157" y="17" width="45.8428" height="45.8428" rx="11.7182" fill="white"/>
<rect x="270.599" y="17.4416" width="44.9596" height="44.9596" rx="11.2766" stroke="#E7E7E7" stroke-width="0.883191"/>
<g clip-path="url(#clip1_1_7016)">
<path d="M303.158 50.0077V50.0068H303.163V42.6088C303.163 38.9896 302.384 36.2017 298.155 36.2017C296.122 36.2017 294.757 37.3178 294.2 38.376H294.141V36.5395H290.131V50.0068H294.307V43.3383C294.307 41.5825 294.64 39.8847 296.813 39.8847C298.955 39.8847 298.987 41.8885 298.987 43.4509V50.0077H303.158Z" fill="#0077B5"/>
<path d="M283.331 36.5399H287.511V50.0072H283.331V36.5399Z" fill="#0077B5"/>
<path d="M285.423 29.8354C284.087 29.8354 283.002 30.9205 283.002 32.2578C283.002 33.595 284.087 34.7028 285.423 34.7028C286.76 34.7028 287.845 33.595 287.845 32.2578C287.844 30.9205 286.759 29.8354 285.423 29.8354V29.8354Z" fill="#0077B5"/>
</g>
</g>
<path d="M269.229 38.9633H249.148C242.316 38.9633 236.777 44.5018 236.777 51.3339V51.3339C236.777 58.9645 229.936 64.7756 222.406 63.5416L219.456 63.0582C210.38 61.5709 202.134 68.575 202.134 77.7723V88.4704" stroke="#FF5D36" stroke-width="1.76638" stroke-linecap="round" stroke-linejoin="round" stroke-dasharray="3.53 4.42"/>
<g filter="url(#filter2_d_1_7016)">
<rect x="270.16" y="78" width="45.84" height="45.84" rx="14.3146" fill="white"/>
<rect x="270.699" y="78.5394" width="44.7611" height="44.7611" rx="13.7751" stroke="#E7E7E7" stroke-width="1.07888"/>
<g clip-path="url(#clip2_1_7016)">
<path d="M304.851 94.9621C304.71 94.44 304.434 93.9641 304.052 93.5816C303.669 93.1992 303.193 92.9236 302.671 92.7823C300.76 92.261 293.068 92.261 293.068 92.261C293.068 92.261 285.375 92.2768 283.463 92.798C282.941 92.9393 282.465 93.215 282.083 93.5974C281.7 93.9799 281.425 94.4559 281.284 94.978C280.705 98.374 280.481 103.549 281.299 106.809C281.441 107.331 281.716 107.807 282.099 108.19C282.481 108.572 282.957 108.848 283.479 108.989C285.391 109.51 293.083 109.51 293.083 109.51C293.083 109.51 300.776 109.51 302.687 108.989C303.209 108.848 303.685 108.572 304.068 108.19C304.45 107.807 304.726 107.331 304.867 106.809C305.477 103.408 305.665 98.2366 304.851 94.9621Z" fill="#FF0000"/>
<path d="M290.619 104.582L297.001 100.886L290.619 97.1893V104.582Z" fill="white"/>
</g>
</g>
<path d="M269.255 99.9633H250.27C242.833 99.9633 236.803 105.992 236.803 113.43V113.43C236.803 120.867 230.774 126.897 223.337 126.897H211.16" stroke="#FF5D36" stroke-width="1.76638" stroke-linecap="round" stroke-linejoin="round" stroke-dasharray="3.53 4.42"/>
<g filter="url(#filter3_d_1_7016)">
<rect x="270.16" y="151" width="45.84" height="45.84" rx="14.3146" fill="white"/>
<rect x="270.699" y="151.539" width="44.7611" height="44.7611" rx="13.7751" stroke="#E7E7E7" stroke-width="1.07888"/>
<g clip-path="url(#clip3_1_7016)">
<path d="M299.018 170.016C300.815 171.3 303.017 172.055 305.394 172.055V167.482C304.944 167.482 304.496 167.435 304.055 167.342V170.942C301.678 170.942 299.477 170.186 297.679 168.903V178.235C297.679 182.903 293.893 186.687 289.222 186.687C287.48 186.687 285.86 186.161 284.514 185.258C286.05 186.827 288.192 187.801 290.561 187.801C295.232 187.801 299.018 184.016 299.018 179.348V170.016H299.018ZM300.67 165.402C299.752 164.4 299.149 163.104 299.018 161.671V161.083H297.749C298.069 162.904 299.158 164.459 300.67 165.402ZM287.468 181.675C286.955 181.003 286.678 180.18 286.679 179.334C286.679 177.199 288.411 175.468 290.548 175.468C290.946 175.468 291.342 175.529 291.721 175.649V170.974C291.278 170.913 290.83 170.887 290.383 170.897V174.536C290.003 174.416 289.607 174.354 289.209 174.355C287.072 174.355 285.34 176.086 285.34 178.221C285.34 179.731 286.206 181.038 287.468 181.675Z" fill="#FF004F"/>
<path d="M297.679 168.902C299.477 170.186 301.678 170.942 304.055 170.942V167.342C302.728 167.06 301.553 166.366 300.67 165.402C299.158 164.459 298.069 162.904 297.749 161.083H294.416V179.348C294.409 181.477 292.68 183.201 290.548 183.201C289.291 183.201 288.175 182.603 287.468 181.675C286.206 181.038 285.34 179.731 285.34 178.221C285.34 176.086 287.072 174.355 289.209 174.355C289.618 174.355 290.013 174.419 290.383 174.536V170.897C285.794 170.992 282.104 174.739 282.104 179.348C282.104 181.648 283.023 183.734 284.514 185.258C285.86 186.161 287.48 186.687 289.222 186.687C293.893 186.687 297.679 182.903 297.679 178.235L297.679 168.902Z" fill="black"/>
<path d="M304.055 167.342V166.369C302.859 166.371 301.685 166.036 300.67 165.402C301.569 166.386 302.752 167.064 304.055 167.342M297.749 161.083C297.719 160.909 297.695 160.733 297.679 160.557V159.969H293.077V178.235C293.07 180.364 291.341 182.088 289.208 182.088C288.604 182.089 288.008 181.947 287.468 181.675C288.175 182.603 289.291 183.201 290.547 183.201C292.679 183.201 294.409 181.477 294.416 179.348V161.083L297.749 161.083ZM290.383 170.897V169.861C289.998 169.808 289.611 169.782 289.222 169.782C284.551 169.782 280.765 173.567 280.765 178.235C280.765 181.161 282.253 183.74 284.514 185.258C283.023 183.734 282.104 181.648 282.104 179.348C282.104 174.739 285.794 170.992 290.383 170.897Z" fill="#00F2EA"/>
</g>
</g>
<path d="M269.254 174.933H250.27C242.832 174.933 236.803 168.904 236.803 161.467V161.467C236.803 154.029 230.774 148 223.337 148H211.16" stroke="#FF5D36" stroke-width="1.76638" stroke-linecap="round" stroke-linejoin="round" stroke-dasharray="3.53 4.42"/>
<g filter="url(#filter4_d_1_7016)">
<rect x="22" y="78" width="45.84" height="45.84" rx="14.3146" fill="white"/>
<rect x="22.5394" y="78.5394" width="44.7611" height="44.7611" rx="13.7751" stroke="#E7E7E7" stroke-width="1.07888"/>
<g clip-path="url(#clip4_1_7016)">
<path d="M32.605 100.92C32.605 105.963 35.6374 110.295 39.9766 112.2C39.9419 111.34 39.9704 110.308 40.1909 109.372C40.4277 108.372 41.7755 102.661 41.7755 102.661C41.7755 102.661 41.3821 101.875 41.3821 100.713C41.3821 98.8879 42.4399 97.5249 43.7572 97.5249C44.8774 97.5249 45.4185 98.3663 45.4185 99.3738C45.4185 100.5 44.7003 102.184 44.331 103.744C44.0224 105.051 44.986 106.116 46.2747 106.116C48.608 106.116 50.1795 103.119 50.1795 99.5685C50.1795 96.8694 48.3616 94.8492 45.0552 94.8492C41.3195 94.8492 38.9922 97.635 38.9922 100.747C38.9922 101.82 39.3086 102.576 39.8041 103.162C40.0319 103.431 40.0635 103.54 39.9811 103.849C39.922 104.075 39.7864 104.621 39.7302 104.837C39.6482 105.149 39.3955 105.26 39.1136 105.145C37.3929 104.443 36.5916 102.559 36.5916 100.44C36.5916 96.942 39.542 92.7472 45.3931 92.7472C50.095 92.7472 53.1896 96.1496 53.1896 99.8019C53.1896 104.633 50.5038 108.242 46.5447 108.242C45.2152 108.242 43.9645 107.523 43.5361 106.707C43.5361 106.707 42.8211 109.545 42.6697 110.092C42.4086 111.042 41.8975 111.991 41.4302 112.731C42.5633 113.066 43.7388 113.236 44.9205 113.236C51.721 113.236 57.2351 107.722 57.2351 100.92C57.2351 94.1187 51.721 88.605 44.9205 88.605C38.1192 88.605 32.605 94.1187 32.605 100.92Z" fill="#CB1F27"/>
</g>
</g>
<path d="M68.7455 99.9633H87.73C95.1674 99.9633 101.197 105.992 101.197 113.43V113.43C101.197 120.867 107.226 126.897 114.663 126.897H126.84" stroke="#FF5D36" stroke-width="1.76638" stroke-linecap="round" stroke-linejoin="round" stroke-dasharray="3.53 4.42"/>
<g filter="url(#filter5_d_1_7016)">
<rect x="22" y="151" width="45.84" height="45.84" rx="14.3146" fill="white"/>
<rect x="22.5394" y="151.539" width="44.7611" height="44.7611" rx="13.7751" stroke="#E7E7E7" stroke-width="1.07888"/>
<g clip-path="url(#clip5_1_7016)">
<path fill-rule="evenodd" clip-rule="evenodd" d="M38.198 166.349C39.7856 164.657 42.0875 163.657 44.9374 163.657C49.6223 163.657 52.7287 166.358 53.7119 170.099C53.781 170.363 53.7427 170.643 53.6054 170.878C53.468 171.113 53.243 171.284 52.9796 171.353C52.7163 171.422 52.4363 171.384 52.2012 171.246C51.9661 171.109 51.7952 170.884 51.7261 170.621C50.98 167.785 48.6925 165.71 44.9364 165.71C42.5904 165.71 40.8519 166.52 39.6964 167.752C38.5305 168.996 37.8809 170.752 37.8809 172.765V175.075C37.8809 177.088 38.5305 178.844 39.6964 180.087C40.8519 181.321 42.5904 182.13 44.9364 182.13C46.6348 182.13 47.9823 181.736 49.0168 181.099C50.0584 180.457 50.6793 179.606 50.8538 178.63C51.0539 177.506 50.8076 176.734 50.3837 176.177C50.1509 175.877 49.8683 175.62 49.5484 175.416C49.4098 176.185 49.1625 176.91 48.7889 177.479C47.4117 179.572 44.7784 179.751 43.0419 179.058C42.1019 178.684 41.2963 177.659 41.0459 176.559C40.8951 175.929 40.9457 175.268 41.1906 174.668C41.4625 174.015 41.9664 173.459 42.6838 173.036C43.3939 172.617 44.4489 172.424 45.4947 172.395C46.1248 172.378 46.8083 172.42 47.4959 172.531C47.3522 171.864 47.109 171.367 46.835 171.111C46.3383 170.649 45.5152 170.324 44.6901 170.329C43.8927 170.335 43.2164 170.642 42.8121 171.289C42.6678 171.519 42.4378 171.684 42.1726 171.745C41.9074 171.806 41.6287 171.759 41.3979 171.615C41.1671 171.471 41.003 171.241 40.9418 170.976C40.8806 170.71 40.9273 170.432 41.0715 170.201C41.9305 168.828 43.3457 168.287 44.6768 168.277C45.9801 168.267 47.3224 168.761 48.2337 169.609C49.1553 170.467 49.5514 171.874 49.6541 173.153C50.551 173.544 51.3987 174.118 52.0196 174.936C52.8211 175.993 53.1659 177.356 52.8744 178.991C52.5768 180.657 51.5249 181.965 50.0933 182.846C48.6894 183.71 46.9571 184.182 44.9364 184.182C42.0875 184.182 39.7846 183.183 38.1991 181.491C36.6227 179.81 35.8284 177.525 35.8284 175.075V172.765C35.8284 170.315 36.6227 168.03 38.1991 166.349H38.198ZM47.5882 174.638C46.9189 174.493 46.2347 174.429 45.5501 174.447C44.6357 174.472 43.9943 174.646 43.7264 174.804C43.3324 175.037 43.162 175.274 43.0861 175.457C43.0052 175.663 42.9915 175.89 43.0471 176.104C43.1723 176.654 43.5859 177.066 43.8024 177.152C44.9579 177.613 46.4039 177.369 47.0741 176.351C47.3152 175.984 47.5072 175.366 47.5872 174.638H47.5882Z" fill="black"/>
</g>
</g>
<path d="M68.7455 174.933H87.73C95.1674 174.933 101.197 168.904 101.197 161.467V161.467C101.197 154.029 107.226 148 114.663 148H126.84" stroke="#FF5D36" stroke-width="1.76638" stroke-linecap="round" stroke-linejoin="round" stroke-dasharray="3.53 4.42"/>
<g filter="url(#filter6_d_1_7016)">
<rect x="22" y="206.902" width="45.8428" height="45.8428" rx="11.7182" fill="white"/>
<rect x="22.4416" y="207.343" width="44.9596" height="44.9596" rx="11.2766" stroke="#E7E7E7" stroke-width="0.883191"/>
<g clip-path="url(#clip6_1_7016)">
<path d="M52.4826 219.738H37.3605C35.9701 219.738 34.8401 220.868 34.8401 222.259V237.387C34.8401 238.777 35.9701 239.909 37.3605 239.909H52.4826C53.8722 239.909 55.003 238.777 55.003 237.387V222.259C55.003 220.868 53.8722 219.738 52.4826 219.738Z" fill="#3B5999"/>
<path d="M48.7018 229.823V227.302C48.7018 226.606 49.2664 226.672 49.962 226.672H51.2222V223.52H48.7018C46.6133 223.52 44.9213 225.213 44.9213 227.302V229.823H42.4009V232.975H44.9213V239.909H48.7018V232.975H50.5921L51.8523 229.823H48.7018Z" fill="white"/>
</g>
</g>
<path d="M69.2889 231.507H89.3695C96.2016 231.507 101.74 225.969 101.74 219.136V219.136C101.74 211.506 108.581 205.695 116.111 206.929L119.062 207.412C128.138 208.899 136.383 201.895 136.383 192.698V182" stroke="#FF5D36" stroke-width="1.76638" stroke-linecap="round" stroke-linejoin="round" stroke-dasharray="3.53 4.42"/>
<g filter="url(#filter7_d_1_7016)">
<rect x="270.157" y="207.901" width="45.8428" height="45.8428" rx="11.7182" fill="white"/>
<rect x="270.599" y="208.342" width="44.9596" height="44.9596" rx="11.2766" stroke="#E7E7E7" stroke-width="0.883191"/>
<g clip-path="url(#clip7_1_7016)">
<path d="M284.255 222.109C282.67 223.755 282.995 225.504 282.995 230.818C282.995 235.23 282.225 239.654 286.253 240.695C287.511 241.019 298.655 241.019 299.911 240.694C301.588 240.261 302.952 238.9 303.139 236.527C303.165 236.196 303.165 225.445 303.138 225.108C302.939 222.58 301.384 221.124 299.335 220.829C298.865 220.76 298.771 220.74 296.362 220.736C287.815 220.74 285.941 220.36 284.255 222.109Z" fill="url(#paint0_linear_1_7016)"/>
<path d="M293.078 223.375C290.027 223.375 287.13 223.103 286.023 225.944C285.566 227.117 285.633 228.641 285.633 230.823C285.633 232.738 285.571 234.537 286.023 235.701C287.127 238.544 290.048 238.272 293.076 238.272C295.997 238.272 299.009 238.576 300.129 235.701C300.587 234.516 300.52 233.015 300.52 230.823C300.52 227.913 300.68 226.035 299.27 224.624C297.841 223.196 295.91 223.375 293.074 223.375H293.078ZM292.41 224.717C298.774 224.707 299.584 223.999 299.137 233.83C298.978 237.308 296.332 236.926 293.078 236.926C287.147 236.926 286.976 236.756 286.976 230.82C286.976 224.814 287.447 224.72 292.41 224.715V224.717ZM297.052 225.953C296.558 225.953 296.158 226.353 296.158 226.847C296.158 227.34 296.558 227.74 297.052 227.74C297.545 227.74 297.945 227.34 297.945 226.847C297.945 226.353 297.545 225.953 297.052 225.953ZM293.078 226.998C290.966 226.998 289.255 228.711 289.255 230.823C289.255 232.935 290.966 234.647 293.078 234.647C295.189 234.647 296.9 232.935 296.9 230.823C296.9 228.711 295.189 226.998 293.078 226.998ZM293.078 228.34C296.358 228.34 296.363 233.306 293.078 233.306C289.798 233.306 289.793 228.34 293.078 228.34Z" fill="white"/>
</g>
</g>
<path d="M269.228 232.507H249.148C242.316 232.507 236.777 226.969 236.777 220.137V220.137C236.777 212.506 229.936 206.695 222.406 207.929L219.456 208.412C210.379 209.9 202.134 202.895 202.134 193.698V183" stroke="#FF5D36" stroke-width="1.76638" stroke-linecap="round" stroke-linejoin="round" stroke-dasharray="3.53 4.42"/>
<g filter="url(#filter8_d_1_7016)">
<rect x="130" y="92" width="78.3863" height="87.8721" rx="12" fill="white"/>
<rect x="130.269" y="92.2688" width="77.8487" height="87.3345" rx="11.7312" stroke="#E7E7E7" stroke-width="0.537568"/>
<path d="M172.357 150.856C173.111 150.379 173.856 150.002 174.605 149.725C174.786 149.663 174.968 149.6 175.154 149.548C175.383 149.486 175.617 149.433 175.855 149.39C176.242 149.319 176.638 149.266 177.039 149.242C177.039 149.242 177.812 149.199 178.838 149.338C179.607 149.462 180.418 149.691 181.291 150.025C185.787 152.05 184.341 158.777 179.411 158.777H170.605C173.679 157.645 174.614 153.282 172.357 150.851V150.856Z" fill="#F58345"/>
<path d="M146.279 154.528C146.447 155.621 146.8 156.691 147.32 157.66C150.584 162.277 155.543 163.308 158.789 163.432C159.166 163.447 159.514 163.447 159.839 163.442C160.54 163.361 161.098 163.055 160.483 162.258C160.354 162.167 160.235 162.076 160.111 161.986C159.624 161.627 159.175 161.269 158.774 160.916C158.684 160.84 158.602 160.758 158.516 160.682C158.445 160.615 158.373 160.553 158.306 160.486C158.192 160.377 158.082 160.267 157.977 160.157C157.944 160.123 157.906 160.085 157.872 160.052C157.786 159.961 157.705 159.87 157.624 159.78C157.572 159.722 157.519 159.665 157.471 159.613C157.414 159.551 157.366 159.484 157.309 159.422C157.237 159.336 157.166 159.25 157.099 159.164C157.066 159.121 157.032 159.078 157.004 159.035C156.937 158.949 156.87 158.868 156.813 158.782C156.794 158.753 156.774 158.725 156.755 158.696C154.006 155.378 155.796 150.641 157.552 149.228C156.459 151.41 156.584 153.683 157.237 155.745C157.299 155.931 157.362 156.113 157.424 156.299C157.438 156.337 157.452 156.371 157.467 156.409C157.619 156.81 157.786 157.202 157.968 157.579C157.968 157.588 157.977 157.598 157.982 157.607C158.12 157.86 158.278 158.099 158.469 158.29C158.483 158.304 158.502 158.314 158.516 158.328C158.593 158.4 158.674 158.462 158.76 158.519C159.037 158.686 159.361 158.782 159.695 158.782C159.695 158.782 160.087 158.782 160.702 158.782H167.919C176.314 157.531 172.433 146.817 163.408 149.624V148.187V148.039C162.592 147.896 161.762 147.667 160.927 147.333C158.063 146.187 156.927 144.645 156.817 143.203C157.29 144.382 158.55 145.523 160.96 146.33C161.791 146.607 162.611 146.784 163.408 146.884C163.614 146.908 163.819 146.927 164.019 146.941C164.043 146.941 164.067 146.941 164.091 146.946C164.191 146.951 164.291 146.955 164.411 146.96C165.494 146.989 167.379 146.898 169.704 146.182C169.737 146.172 169.77 146.163 169.804 146.149C169.818 146.149 169.828 146.139 169.842 146.134C169.985 146.087 170.128 146.034 170.267 145.982C170.291 145.972 170.314 145.962 170.343 145.953C170.481 145.9 170.615 145.848 170.744 145.795C170.753 145.795 170.763 145.786 170.777 145.781C170.901 145.728 171.021 145.681 171.14 145.628C171.159 145.619 171.178 145.609 171.202 145.604C171.321 145.552 171.436 145.499 171.551 145.447C171.574 145.437 171.593 145.428 171.617 145.413C171.732 145.361 171.842 145.308 171.947 145.256C172.219 145.122 172.453 144.917 172.639 144.659C172.729 144.53 172.811 144.392 172.882 144.244C172.954 144.096 173.006 143.933 173.049 143.771C173.221 143.107 173.188 142.329 172.901 141.603C172.691 141.073 172.376 140.644 172.009 140.343C171.851 140.214 171.679 140.109 171.508 140.033C171.45 140.009 171.388 139.985 171.331 139.966C171.154 139.908 170.968 139.875 170.787 139.875C170.677 139.875 170.563 139.889 170.453 139.913C170.443 139.913 170.434 139.913 170.419 139.918C169.474 140.138 168.596 140.276 167.79 140.352C167.465 140.381 167.155 140.4 166.854 140.41C165.947 140.438 165.141 140.381 164.425 140.271C164.067 140.214 163.733 140.147 163.418 140.066V139.617C163.418 138.428 163.575 137.278 163.862 136.18H163.852C159.414 134.948 156.001 130.001 158.063 125.308L158.235 125.356C157.132 131.271 163.518 136.528 169.035 133.921C173.355 131.472 175.688 134.704 179.659 135.401C193.49 137.302 197.647 116.623 184.064 113.052C177.368 111.973 170.878 107.805 163.972 109.204C156.211 110.259 151.806 119.335 153.052 125.036C153.424 126.989 153.563 128.975 153.438 130.956C153.438 131.014 153.429 131.071 153.429 131.128C153.4 131.567 153.357 132.007 153.3 132.441C152.594 137.965 150.694 143.317 147.726 148.049C147.296 148.736 146.933 149.453 146.666 150.216C146.279 151.391 146.136 152.642 146.227 153.878C146.237 154.017 146.251 154.16 146.27 154.299C146.279 154.375 146.289 154.451 146.299 154.523L146.279 154.528ZM171.708 119.364C171.708 120.338 171.383 121.24 170.839 121.961C169.828 121.469 168.649 121.25 167.422 121.403C166.301 121.541 165.298 121.971 164.477 122.596C163.59 121.799 163.027 120.648 163.027 119.364C163.027 116.967 164.969 115.019 167.37 115.019C169.77 115.019 171.713 116.962 171.713 119.364H171.708ZM184.618 119.607C185.453 119.607 186.136 120.285 186.136 121.126C186.136 121.966 185.458 122.644 184.618 122.644C183.778 122.644 183.1 121.966 183.1 121.126C183.1 120.285 183.778 119.607 184.618 119.607Z" fill="#F58345"/>
<path d="M177.369 144.067C178.066 144.454 178.734 144.702 179.274 144.659V148.436C178.61 148.259 177.837 148.259 177.044 148.359V143.895C177.149 143.952 177.259 144.005 177.369 144.057V144.067Z" fill="#F58345"/>
<path d="M179.273 143.155C178.466 143.036 176.7 142.372 174.319 141.155C174.033 140.968 173.718 140.825 173.403 140.639C172.954 140.362 172.544 140.09 172.186 139.832C172.114 139.784 172.047 139.727 171.985 139.67C171.856 139.555 171.742 139.431 171.641 139.293C171.541 139.154 171.455 139.006 171.384 138.853C171.202 138.467 171.117 138.027 171.121 137.583C171.131 137.053 171.279 136.509 171.575 136.032C171.656 135.898 171.746 135.779 171.847 135.664C171.937 135.559 172.038 135.463 172.143 135.377C172.348 135.206 172.572 135.077 172.811 134.981C172.911 134.943 173.016 134.91 173.126 134.881C173.374 134.824 173.632 134.805 173.889 134.838C173.923 134.838 173.961 134.852 173.994 134.862C175.512 135.354 176.953 136.394 179.273 136.705C182.337 136.967 181.917 143.384 179.273 143.146V143.155Z" fill="#F58345"/>
<path d="M184.618 119.607C185.453 119.607 186.135 120.285 186.135 121.126C186.135 121.966 185.458 122.644 184.618 122.644C183.778 122.644 183.1 121.966 183.1 121.126C183.1 120.285 183.778 119.607 184.618 119.607Z" fill="#33475B"/>
<path d="M160.95 146.33C161.781 146.607 162.601 146.784 163.398 146.884C163.398 146.884 163.647 146.922 164.081 146.946H164.091C164.196 146.951 164.296 146.956 164.396 146.96C165.479 146.989 167.365 146.898 169.689 146.182C169.703 146.182 169.717 146.172 169.732 146.168C169.732 146.168 166.782 148.078 163.394 148.035C162.578 147.891 161.747 147.662 160.912 147.328C158.048 146.182 156.913 144.64 156.803 143.198C157.275 144.377 158.535 145.518 160.945 146.325L160.95 146.33Z" fill="#33475B"/>
<path d="M149.659 163.437C152.002 164.888 155.2 165.848 159.533 165.834C162.125 166.268 163.871 162.912 161.805 161.174H179.411C182.585 161.174 185.162 159.087 185.83 155.984C186.603 152.556 184.566 149.314 181.253 148.283V144.988C183.229 143.666 183.916 140.228 183.062 137.755C197.27 135.721 198.492 115.177 184.546 111.534C178.056 110.45 171.956 106.73 165.236 107.408C165.022 107.428 164.812 107.451 164.597 107.466C164.258 107.49 163.59 107.552 162.716 107.738C161.829 106.678 160.497 106 159.003 106C156.321 106 154.15 108.172 154.15 110.856C154.15 111.228 154.197 111.596 154.278 111.944C153.801 111.806 153.295 111.729 152.775 111.729C149.816 111.729 147.42 114.126 147.42 117.086C147.42 119.106 148.537 120.863 150.184 121.775C147.463 122.033 145.335 124.32 145.335 127.108C145.335 129.5 146.9 131.524 149.062 132.212C146.852 132.646 145.182 134.599 145.182 136.939C145.182 138.958 146.423 140.682 148.184 141.403C145.931 141.403 144.108 143.231 144.108 145.485C144.108 146.392 144.409 147.232 144.915 147.91C144.719 148.373 144.557 148.851 144.437 149.338C143.731 152.269 143.029 158.973 149.659 163.451V163.437ZM170.61 158.787C173.684 157.655 174.619 153.291 172.362 150.861C173.116 150.383 173.861 150.006 174.61 149.729C175.946 149.242 177.311 149.094 178.843 149.343C179.612 149.467 180.423 149.696 181.296 150.03C185.792 152.055 184.346 158.782 179.416 158.782H170.61V158.787ZM146.642 150.216C146.895 149.452 147.244 148.722 147.702 148.049C150.67 143.317 152.57 137.965 153.276 132.441C153.333 132.002 153.372 131.567 153.405 131.128C153.405 131.071 153.415 131.013 153.415 130.956C153.539 128.98 153.4 126.989 153.028 125.036C151.782 119.335 156.187 110.259 163.948 109.204C170.854 107.805 177.34 111.973 184.041 113.052C197.623 116.623 193.466 137.306 179.635 135.401C175.665 134.704 173.331 131.472 169.012 133.921C163.494 136.528 157.109 131.271 158.211 125.356L158.039 125.308C155.977 130.006 159.39 134.948 163.828 136.179C163.843 136.179 163.862 136.189 163.876 136.194C165.528 136.643 167.317 136.58 169.021 135.793C169.694 135.368 170.291 135.086 170.844 134.895C172.071 134.47 173.049 134.556 173.989 134.862C175.507 135.353 176.948 136.394 179.268 136.705C182.332 136.967 181.912 143.384 179.268 143.145C178.461 143.026 176.695 142.362 174.314 141.145C173.985 140.978 173.665 140.801 173.364 140.629C173.359 140.629 173.35 140.62 173.345 140.62C173.359 140.72 173.708 141.126 174.233 141.641C175.025 142.415 176.228 143.427 177.368 144.062C178.065 144.449 178.733 144.697 179.273 144.654V148.431C178.609 148.254 177.836 148.254 177.044 148.354C176.925 148.369 176.81 148.388 176.691 148.407C175.502 148.607 174.304 149.037 173.412 149.505C172.744 149.853 172.238 150.221 172.042 150.531C170.491 149.042 168.902 148.536 167.513 148.483C167.298 148.474 167.098 148.483 166.897 148.488C166.735 148.493 166.573 148.502 166.42 148.517C166.224 148.536 166.029 148.555 165.847 148.583C165.838 148.583 165.828 148.583 165.819 148.583C164.883 148.741 164.186 149.032 163.785 149.276C163.547 149.419 163.408 149.548 163.404 149.615C172.433 146.807 176.314 157.521 167.914 158.772H160.698C160.082 158.772 159.691 158.772 159.691 158.772C159.318 158.782 159.013 158.677 158.755 158.51C158.669 158.452 158.588 158.39 158.512 158.319C158.497 158.304 158.478 158.295 158.464 158.28C158.273 158.089 158.116 157.856 157.977 157.598C157.748 157.178 157.581 156.71 157.419 156.289C157.352 156.108 157.29 155.922 157.233 155.736C156.579 153.673 156.455 151.4 157.548 149.218C155.791 150.632 154.002 155.368 156.751 158.686C156.832 158.801 156.918 158.911 157.004 159.025C157.037 159.068 157.066 159.111 157.099 159.154C157.166 159.24 157.237 159.326 157.309 159.412C157.362 159.474 157.414 159.541 157.471 159.603C157.519 159.66 157.576 159.718 157.624 159.77C157.705 159.861 157.786 159.951 157.872 160.042C157.906 160.076 157.944 160.114 157.977 160.147C158.082 160.257 158.192 160.367 158.307 160.477C158.373 160.544 158.45 160.606 158.517 160.672C158.602 160.749 158.684 160.83 158.774 160.906C159.175 161.26 159.624 161.613 160.111 161.976C160.235 162.067 160.354 162.157 160.483 162.248C161.099 163.045 160.54 163.351 159.839 163.432C159.476 163.475 159.08 163.461 158.789 163.423C155.543 163.298 150.584 162.267 147.32 157.65C146.781 156.676 146.437 155.607 146.28 154.518C146.27 154.442 146.26 154.365 146.251 154.294C146.232 154.155 146.217 154.012 146.208 153.874C146.112 152.637 146.256 151.386 146.647 150.212L146.642 150.216Z" fill="#33475B"/>
<path d="M163.022 119.364C163.022 120.648 163.585 121.803 164.473 122.596C165.294 121.97 166.301 121.541 167.417 121.402C168.644 121.249 169.823 121.469 170.835 121.961C171.379 121.235 171.703 120.338 171.703 119.364C171.703 116.967 169.761 115.019 167.36 115.019C164.96 115.019 163.017 116.962 163.017 119.364H163.022Z" fill="#33475B"/>
<path d="M163.399 148.039C166.788 148.077 169.737 146.172 169.737 146.172C169.723 146.172 169.709 146.182 169.694 146.187C169.728 146.177 169.761 146.168 169.795 146.153C169.809 146.153 169.818 146.144 169.833 146.139C169.976 146.091 170.119 146.039 170.258 145.986C170.281 145.977 170.305 145.967 170.334 145.958C170.472 145.905 170.606 145.853 170.735 145.8C170.744 145.8 170.754 145.79 170.768 145.786C170.892 145.733 171.012 145.685 171.131 145.633C171.15 145.623 171.169 145.614 171.193 145.609C171.312 145.557 171.427 145.504 171.541 145.451C171.565 145.442 171.584 145.432 171.608 145.418C171.723 145.366 171.832 145.313 171.937 145.26C172.21 145.127 172.443 144.922 172.63 144.664C172.72 144.535 172.801 144.396 172.873 144.248C172.945 144.1 172.997 143.938 173.04 143.776C173.212 143.112 173.178 142.334 172.892 141.608C172.682 141.078 172.367 140.648 172 140.348C171.842 140.219 171.67 140.114 171.498 140.037C171.441 140.013 171.379 139.989 171.322 139.97C171.145 139.913 170.959 139.88 170.778 139.88C170.668 139.88 170.553 139.894 170.444 139.918C170.434 139.918 170.425 139.918 170.41 139.923C169.465 140.142 168.587 140.281 167.781 140.357C167.456 140.386 167.146 140.405 166.845 140.414C165.938 140.443 165.132 140.386 164.416 140.276C164.058 140.219 163.724 140.152 163.409 140.071V139.622C163.409 138.433 163.566 137.282 163.853 136.184C163.867 136.184 163.877 136.189 163.891 136.194C165.542 136.643 167.332 136.581 169.036 135.793C169.289 135.688 169.532 135.573 169.771 135.449L170.405 135.096C170.549 135.019 170.701 134.957 170.854 134.895C172.081 134.47 173.059 134.556 173.999 134.862C173.966 134.857 173.928 134.843 173.894 134.838C173.641 134.804 173.384 134.819 173.131 134.881C173.026 134.905 172.921 134.938 172.816 134.981C172.577 135.072 172.353 135.205 172.147 135.377C172.042 135.463 171.942 135.559 171.852 135.664C171.751 135.774 171.661 135.898 171.58 136.031C171.279 136.509 171.131 137.048 171.126 137.583C171.117 138.027 171.207 138.462 171.389 138.853C171.46 139.011 171.546 139.154 171.646 139.292C171.747 139.431 171.861 139.555 171.99 139.67C172.052 139.727 172.119 139.779 172.19 139.832C172.553 140.09 172.964 140.362 173.407 140.639C173.388 140.629 173.369 140.62 173.35 140.605C173.35 140.605 173.36 140.615 173.374 140.634C173.369 140.634 173.36 140.624 173.355 140.624C173.369 140.725 173.718 141.131 174.243 141.646C174.906 142.348 175.889 143.26 177.049 143.905V148.369C176.93 148.383 176.815 148.402 176.696 148.421C175.312 148.593 174.219 149.042 173.417 149.519C172.749 149.868 172.243 150.235 172.047 150.546C170.496 149.056 168.907 148.55 167.518 148.498C167.489 148.498 167.466 148.498 167.437 148.498C167.265 148.498 167.093 148.498 166.926 148.502C166.917 148.502 166.907 148.502 166.902 148.502C166.74 148.507 166.578 148.517 166.425 148.531C166.22 148.545 166.034 148.569 165.852 148.598C165.843 148.598 165.833 148.598 165.824 148.598C164.769 148.755 164.139 149.051 163.791 149.29C163.552 149.433 163.414 149.562 163.409 149.629V148.192V148.044L163.399 148.039Z" fill="white"/>
<path d="M164.01 146.941C164.01 146.941 164.058 146.941 164.082 146.946C163.648 146.922 163.399 146.884 163.399 146.884C163.605 146.908 163.81 146.927 164.01 146.941Z" fill="white"/>
<path d="M164.082 146.946C164.182 146.951 164.282 146.955 164.401 146.96C164.301 146.96 164.196 146.955 164.096 146.946C164.096 146.946 164.086 146.946 164.082 146.946Z" fill="white"/>
<path d="M166.912 118.877C167.571 118.786 168.034 118.18 167.944 117.521C167.853 116.862 167.246 116.399 166.588 116.489C165.929 116.58 165.466 117.187 165.556 117.845C165.647 118.504 166.253 118.967 166.912 118.877Z" fill="white"/>
<path d="M169.021 120.061C169.422 120.008 169.699 119.641 169.647 119.24C169.594 118.839 169.227 118.562 168.826 118.614C168.425 118.667 168.148 119.034 168.2 119.436C168.253 119.837 168.62 120.113 169.021 120.061Z" fill="white"/>
</g>
<path d="M169 61V85" stroke="#FF5D36" stroke-width="1.76638" stroke-linecap="round" stroke-linejoin="round" stroke-dasharray="3.53 4.42"/>
<g filter="url(#filter9_d_1_7016)">
<rect x="146" y="16" width="45.84" height="45.84" rx="14.3146" fill="white"/>
<rect x="146.539" y="16.5394" width="44.7611" height="44.7611" rx="13.7751" stroke="#E7E7E7" stroke-width="1.07888"/>
<path d="M160.71 46.1038C160.71 46.954 161.399 47.6432 162.249 47.6432H169.42L160.71 38.9329V46.1038Z" fill="#2196F3"/>
<path d="M160.71 34.8149V38.9328L169.42 47.6431H176.104C176.954 47.6431 177.643 46.9539 177.643 46.1037V34.8149H160.71Z" fill="#1E88E5"/>
<path d="M164.174 36.4159C164.174 37.8014 163.055 38.92 161.67 38.92C160.289 38.92 159.171 37.8014 159.171 36.4159V36.3544H164.168C164.174 36.3749 164.174 36.3954 164.174 36.4159Z" fill="#81ACEA"/>
<path d="M169.177 36.3544V36.4159C169.177 37.8014 168.058 38.92 166.673 38.92C165.292 38.92 164.174 37.8014 164.174 36.4159C164.174 36.3954 164.174 36.3749 164.179 36.3544H169.177Z" fill="#3F51B5"/>
<path d="M174.18 36.4159C174.18 37.8014 173.061 38.92 171.675 38.92C170.295 38.92 169.177 37.8014 169.177 36.4159V36.3544H174.174C174.18 36.3749 174.18 36.3954 174.18 36.4159Z" fill="#81ACEA"/>
<path d="M179.183 36.3544V36.4159C179.183 37.8014 178.064 38.92 176.678 38.92C175.298 38.92 174.18 37.8014 174.18 36.4159C174.18 36.3954 174.18 36.3749 174.185 36.3544H179.183Z" fill="#3F51B5"/>
<path d="M161.512 30.1969C161.04 30.1969 160.63 30.5176 160.516 30.9748L159.176 36.3441C159.171 36.3493 159.171 36.3493 159.171 36.3544H164.182L164.951 30.1969H161.512Z" fill="#82B1FF"/>
<path d="M164.952 30.1969L164.182 36.3544H169.177V30.1969H164.952Z" fill="#5C6BC0"/>
<path d="M179.183 36.3544C179.183 36.3493 179.183 36.3493 179.177 36.3441L177.837 30.9748C177.723 30.5176 177.313 30.1969 176.842 30.1969H173.402L174.172 36.3544H179.183Z" fill="#5C6BC0"/>
<path d="M173.402 30.1969H169.177V36.3544H174.172L173.402 30.1969Z" fill="#82B1FF"/>
<path d="M173.871 46.2571C172.556 46.2571 171.486 45.1868 171.486 43.8716C171.486 42.5565 172.556 41.4856 173.871 41.4856C174.421 41.4856 174.958 41.6775 175.383 42.0264L174.732 42.8202C174.487 42.6181 174.189 42.5118 173.871 42.5118C173.121 42.5118 172.512 43.1214 172.512 43.8711C172.512 44.6208 173.121 45.2304 173.871 45.2304C174.439 45.2304 174.927 44.8799 175.13 44.3842H174.052V43.358H176.257V43.8711C176.257 45.1868 175.187 46.2571 173.871 46.2571Z" fill="#EDEDED"/>
</g>
<defs>
<filter id="filter0_d_1_7016" x="4.33618" y="6.63533" width="81.1704" height="81.1704" filterUnits="userSpaceOnUse" color-interpolation-filters="sRGB">
<feFlood flood-opacity="0" result="BackgroundImageFix"/>
<feColorMatrix in="SourceAlpha" type="matrix" values="0 0 0 0 0 0 0 0 0 0 0 0 0 0 0 0 0 0 127 0" result="hardAlpha"/>
<feOffset dy="5.29915"/>
<feGaussianBlur stdDeviation="8.83191"/>
<feColorMatrix type="matrix" values="0 0 0 0 0.11 0 0 0 0 0.14137 0 0 0 0 0.4125 0 0 0 0.05 0"/>
<feBlend mode="normal" in2="BackgroundImageFix" result="effect1_dropShadow_1_7016"/>
<feBlend mode="normal" in="SourceGraphic" in2="effect1_dropShadow_1_7016" result="shape"/>
</filter>
<filter id="filter1_d_1_7016" x="252.493" y="4.63533" width="81.1704" height="81.1704" filterUnits="userSpaceOnUse" color-interpolation-filters="sRGB">
<feFlood flood-opacity="0" result="BackgroundImageFix"/>
<feColorMatrix in="SourceAlpha" type="matrix" values="0 0 0 0 0 0 0 0 0 0 0 0 0 0 0 0 0 0 127 0" result="hardAlpha"/>
<feOffset dy="5.29915"/>
<feGaussianBlur stdDeviation="8.83191"/>
<feColorMatrix type="matrix" values="0 0 0 0 0.11 0 0 0 0 0.14137 0 0 0 0 0.4125 0 0 0 0.05 0"/>
<feBlend mode="normal" in2="BackgroundImageFix" result="effect1_dropShadow_1_7016"/>
<feBlend mode="normal" in="SourceGraphic" in2="effect1_dropShadow_1_7016" result="shape"/>
</filter>
<filter id="filter2_d_1_7016" x="248.582" y="62.8957" width="88.9951" height="88.995" filterUnits="userSpaceOnUse" color-interpolation-filters="sRGB">
<feFlood flood-opacity="0" result="BackgroundImageFix"/>
<feColorMatrix in="SourceAlpha" type="matrix" values="0 0 0 0 0 0 0 0 0 0 0 0 0 0 0 0 0 0 127 0" result="hardAlpha"/>
<feOffset dy="6.47326"/>
<feGaussianBlur stdDeviation="10.7888"/>
<feColorMatrix type="matrix" values="0 0 0 0 0.11 0 0 0 0 0.14137 0 0 0 0 0.4125 0 0 0 0.05 0"/>
<feBlend mode="normal" in2="BackgroundImageFix" result="effect1_dropShadow_1_7016"/>
<feBlend mode="normal" in="SourceGraphic" in2="effect1_dropShadow_1_7016" result="shape"/>
</filter>
<filter id="filter3_d_1_7016" x="248.582" y="135.896" width="88.9951" height="88.995" filterUnits="userSpaceOnUse" color-interpolation-filters="sRGB">
<feFlood flood-opacity="0" result="BackgroundImageFix"/>
<feColorMatrix in="SourceAlpha" type="matrix" values="0 0 0 0 0 0 0 0 0 0 0 0 0 0 0 0 0 0 127 0" result="hardAlpha"/>
<feOffset dy="6.47326"/>
<feGaussianBlur stdDeviation="10.7888"/>
<feColorMatrix type="matrix" values="0 0 0 0 0.11 0 0 0 0 0.14137 0 0 0 0 0.4125 0 0 0 0.05 0"/>
<feBlend mode="normal" in2="BackgroundImageFix" result="effect1_dropShadow_1_7016"/>
<feBlend mode="normal" in="SourceGraphic" in2="effect1_dropShadow_1_7016" result="shape"/>
</filter>
<filter id="filter4_d_1_7016" x="0.422461" y="62.8957" width="88.9951" height="88.995" filterUnits="userSpaceOnUse" color-interpolation-filters="sRGB">
<feFlood flood-opacity="0" result="BackgroundImageFix"/>
<feColorMatrix in="SourceAlpha" type="matrix" values="0 0 0 0 0 0 0 0 0 0 0 0 0 0 0 0 0 0 127 0" result="hardAlpha"/>
<feOffset dy="6.47326"/>
<feGaussianBlur stdDeviation="10.7888"/>
<feColorMatrix type="matrix" values="0 0 0 0 0.11 0 0 0 0 0.14137 0 0 0 0 0.4125 0 0 0 0.05 0"/>
<feBlend mode="normal" in2="BackgroundImageFix" result="effect1_dropShadow_1_7016"/>
<feBlend mode="normal" in="SourceGraphic" in2="effect1_dropShadow_1_7016" result="shape"/>
</filter>
<filter id="filter5_d_1_7016" x="0.422461" y="135.896" width="88.9951" height="88.995" filterUnits="userSpaceOnUse" color-interpolation-filters="sRGB">
<feFlood flood-opacity="0" result="BackgroundImageFix"/>
<feColorMatrix in="SourceAlpha" type="matrix" values="0 0 0 0 0 0 0 0 0 0 0 0 0 0 0 0 0 0 127 0" result="hardAlpha"/>
<feOffset dy="6.47326"/>
<feGaussianBlur stdDeviation="10.7888"/>
<feColorMatrix type="matrix" values="0 0 0 0 0.11 0 0 0 0 0.14137 0 0 0 0 0.4125 0 0 0 0.05 0"/>
<feBlend mode="normal" in2="BackgroundImageFix" result="effect1_dropShadow_1_7016"/>
<feBlend mode="normal" in="SourceGraphic" in2="effect1_dropShadow_1_7016" result="shape"/>
</filter>
<filter id="filter6_d_1_7016" x="4.33618" y="194.537" width="81.1704" height="81.1704" filterUnits="userSpaceOnUse" color-interpolation-filters="sRGB">
<feFlood flood-opacity="0" result="BackgroundImageFix"/>
<feColorMatrix in="SourceAlpha" type="matrix" values="0 0 0 0 0 0 0 0 0 0 0 0 0 0 0 0 0 0 127 0" result="hardAlpha"/>
<feOffset dy="5.29915"/>
<feGaussianBlur stdDeviation="8.83191"/>
<feColorMatrix type="matrix" values="0 0 0 0 0.11 0 0 0 0 0.14137 0 0 0 0 0.4125 0 0 0 0.05 0"/>
<feBlend mode="normal" in2="BackgroundImageFix" result="effect1_dropShadow_1_7016"/>
<feBlend mode="normal" in="SourceGraphic" in2="effect1_dropShadow_1_7016" result="shape"/>
</filter>
<filter id="filter7_d_1_7016" x="252.493" y="195.536" width="81.1704" height="81.1704" filterUnits="userSpaceOnUse" color-interpolation-filters="sRGB">
<feFlood flood-opacity="0" result="BackgroundImageFix"/>
<feColorMatrix in="SourceAlpha" type="matrix" values="0 0 0 0 0 0 0 0 0 0 0 0 0 0 0 0 0 0 127 0" result="hardAlpha"/>
<feOffset dy="5.29915"/>
<feGaussianBlur stdDeviation="8.83191"/>
<feColorMatrix type="matrix" values="0 0 0 0 0.11 0 0 0 0 0.14137 0 0 0 0 0.4125 0 0 0 0.05 0"/>
<feBlend mode="normal" in2="BackgroundImageFix" result="effect1_dropShadow_1_7016"/>
<feBlend mode="normal" in="SourceGraphic" in2="effect1_dropShadow_1_7016" result="shape"/>
</filter>
<filter id="filter8_d_1_7016" x="92" y="62" width="154.386" height="163.872" filterUnits="userSpaceOnUse" color-interpolation-filters="sRGB">
<feFlood flood-opacity="0" result="BackgroundImageFix"/>
<feColorMatrix in="SourceAlpha" type="matrix" values="0 0 0 0 0 0 0 0 0 0 0 0 0 0 0 0 0 0 127 0" result="hardAlpha"/>
<feMorphology radius="2" operator="erode" in="SourceAlpha" result="effect1_dropShadow_1_7016"/>
<feOffset dy="8"/>
<feGaussianBlur stdDeviation="20"/>
<feColorMatrix type="matrix" values="0 0 0 0 0.8125 0 0 0 0 0.597526 0 0 0 0 0.382552 0 0 0 0.13 0"/>
<feBlend mode="normal" in2="BackgroundImageFix" result="effect1_dropShadow_1_7016"/>
<feBlend mode="normal" in="SourceGraphic" in2="effect1_dropShadow_1_7016" result="shape"/>
</filter>
<filter id="filter9_d_1_7016" x="124.422" y="0.895722" width="88.9951" height="88.995" filterUnits="userSpaceOnUse" color-interpolation-filters="sRGB">
<feFlood flood-opacity="0" result="BackgroundImageFix"/>
<feColorMatrix in="SourceAlpha" type="matrix" values="0 0 0 0 0 0 0 0 0 0 0 0 0 0 0 0 0 0 127 0" result="hardAlpha"/>
<feOffset dy="6.47326"/>
<feGaussianBlur stdDeviation="10.7888"/>
<feColorMatrix type="matrix" values="0 0 0 0 0.11 0 0 0 0 0.14137 0 0 0 0 0.4125 0 0 0 0.05 0"/>
<feBlend mode="normal" in2="BackgroundImageFix" result="effect1_dropShadow_1_7016"/>
<feBlend mode="normal" in="SourceGraphic" in2="effect1_dropShadow_1_7016" result="shape"/>
</filter>
<linearGradient id="paint0_linear_1_7016" x1="284.294" y1="239.62" x2="303.04" y2="223.401" gradientUnits="userSpaceOnUse">
<stop stop-color="#FFDD55"/>
<stop offset="0.5" stop-color="#FF543E"/>
<stop offset="1" stop-color="#C837AB"/>
</linearGradient>
<clipPath id="clip0_1_7016">
<rect width="20.1641" height="20.1719" fill="white" transform="translate(34.8393 31.8354)"/>
</clipPath>
<clipPath id="clip1_1_7016">
<rect width="20.1641" height="20.1719" fill="white" transform="translate(282.997 29.8354)"/>
</clipPath>
<clipPath id="clip2_1_7016">
<rect width="24.63" height="17.318" fill="white" transform="translate(280.765 92.261)"/>
</clipPath>
<clipPath id="clip3_1_7016">
<rect width="24.63" height="27.9012" fill="white" transform="translate(280.765 159.969)"/>
</clipPath>
<clipPath id="clip4_1_7016">
<rect width="24.63" height="24.63" fill="white" transform="translate(32.605 88.605)"/>
</clipPath>
<clipPath id="clip5_1_7016">
<rect width="24.63" height="24.63" fill="white" transform="translate(32.605 161.605)"/>
</clipPath>
<clipPath id="clip6_1_7016">
<rect width="20.1629" height="20.1707" fill="white" transform="translate(34.8401 219.738)"/>
</clipPath>
<clipPath id="clip7_1_7016">
<rect width="20.1641" height="20.1719" fill="white" transform="translate(282.997 220.736)"/>
</clipPath>
</defs>
</svg>
