<svg width="372" height="286" viewBox="0 0 372 286" fill="none" xmlns="http://www.w3.org/2000/svg">
<g filter="url(#filter0_d_1_7472)">
<rect x="93.1896" y="56.3993" width="223.81" height="168.516" rx="7.89919" fill="white"/>
</g>
<rect opacity="0.4" x="173.498" y="199.901" width="21.0645" height="7.89919" rx="3.9496" fill="#B4B6C4"/>
<rect opacity="0.4" x="215.627" y="199.901" width="21.0645" height="7.89919" rx="3.9496" fill="#B4B6C4"/>
<rect opacity="0.4" x="257.756" y="199.901" width="21.0645" height="7.89919" rx="3.9496" fill="#B4B6C4"/>
<rect opacity="0.4" x="131.369" y="199.901" width="21.0645" height="7.89919" rx="3.9496" fill="#B4B6C4"/>
<rect x="131.369" y="139.341" width="21.0645" height="47.3952" fill="#FF5C35"/>
<rect x="215.627" y="134.075" width="21.0645" height="52.6613" fill="#FF5C35"/>
<rect x="257.756" y="107.744" width="21.0645" height="78.9919" fill="#FFDC60"/>
<rect x="173.498" y="116.96" width="21.0645" height="69.7762" fill="#FFDC60"/>
<path d="M270.353 116.087C269.798 116.55 268.992 116.55 268.437 116.087L257.784 107.21C255.633 105.417 256.9 101.916 259.701 101.916L279.09 101.916C281.89 101.916 283.157 105.417 281.006 107.21L270.353 116.087Z" fill="#FF5C35"/>
<rect x="222" y="60" width="104.79" height="50.8981" rx="5.98802" fill="#FF5C35"/>
<rect opacity="0.4" x="233.976" y="95.9281" width="41.9161" height="4.49101" rx="2.24551" fill="white"/>
<path d="M234.395 85.0479L242.527 73.3114H243.26V87.9821H241.479V84.2934V84.0629V77.2725L237.329 83.4761H242.213H242.569H245.566V85.0479H234.395ZM248.814 80.6467C248.814 81.499 248.898 82.2885 249.066 83.015C249.234 83.7276 249.478 84.3493 249.8 84.8803C250.121 85.3972 250.505 85.8024 250.952 86.0958C251.413 86.3753 251.923 86.515 252.482 86.515C253.055 86.515 253.565 86.3753 254.012 86.0958C254.459 85.8024 254.843 85.3972 255.165 84.8803C255.486 84.3493 255.731 83.7276 255.898 83.015C256.066 82.2885 256.15 81.499 256.15 80.6467C256.15 79.7944 256.066 79.012 255.898 78.2994C255.731 77.5729 255.486 76.9511 255.165 76.4342C254.843 75.9032 254.459 75.498 254.012 75.2186C253.565 74.9252 253.055 74.7785 252.482 74.7785C251.923 74.7785 251.413 74.9252 250.952 75.2186C250.505 75.498 250.121 75.9032 249.8 76.4342C249.478 76.9511 249.234 77.5729 249.066 78.2994C248.898 79.012 248.814 79.7944 248.814 80.6467ZM247.033 80.6467C247.033 79.1797 247.264 77.8803 247.725 76.7485C248.186 75.6168 248.821 74.7296 249.632 74.0869C250.456 73.4302 251.406 73.1018 252.482 73.1018C253.558 73.1018 254.501 73.4302 255.311 74.0869C256.136 74.7296 256.779 75.6168 257.24 76.7485C257.701 77.8803 257.931 79.1797 257.931 80.6467C257.931 82.1138 257.701 83.4132 257.24 84.5449C256.779 85.6767 256.136 86.5709 255.311 87.2276C254.501 87.8703 253.558 88.1916 252.482 88.1916C251.406 88.1916 250.456 87.8703 249.632 87.2276C248.821 86.5709 248.186 85.6767 247.725 84.5449C247.264 83.4132 247.033 82.1138 247.033 80.6467ZM259.495 76.4551C259.495 75.8264 259.628 75.2605 259.893 74.7575C260.173 74.2545 260.564 73.8563 261.067 73.5629C261.57 73.2555 262.15 73.1018 262.806 73.1018C263.477 73.1018 264.057 73.2555 264.546 73.5629C265.049 73.8563 265.433 74.2545 265.698 74.7575C265.978 75.2605 266.118 75.8264 266.118 76.4551C266.118 77.0699 265.978 77.6358 265.698 78.1527C265.433 78.6557 265.049 79.0609 264.546 79.3683C264.057 79.6617 263.477 79.8084 262.806 79.8084C262.15 79.8084 261.57 79.6617 261.067 79.3683C260.564 79.0609 260.173 78.6557 259.893 78.1527C259.628 77.6358 259.495 77.0699 259.495 76.4551ZM260.983 76.4551C260.983 76.8044 261.053 77.1328 261.193 77.4402C261.346 77.7475 261.556 77.992 261.821 78.1737C262.101 78.3553 262.429 78.4461 262.806 78.4461C263.197 78.4461 263.526 78.3553 263.791 78.1737C264.057 77.992 264.259 77.7475 264.399 77.4402C264.553 77.1328 264.63 76.8044 264.63 76.4551C264.63 76.0919 264.553 75.7635 264.399 75.4701C264.259 75.1627 264.057 74.9182 263.791 74.7366C263.526 74.5549 263.197 74.4641 262.806 74.4641C262.429 74.4641 262.101 74.5549 261.821 74.7366C261.556 74.9182 261.346 75.1627 261.193 75.4701C261.053 75.7635 260.983 76.0919 260.983 76.4551ZM267.145 84.8383C267.145 84.2096 267.277 83.6437 267.543 83.1407C267.822 82.6378 268.213 82.2395 268.716 81.9461C269.219 81.6388 269.799 81.4851 270.456 81.4851C271.127 81.4851 271.706 81.6388 272.195 81.9461C272.698 82.2395 273.083 82.6378 273.348 83.1407C273.628 83.6437 273.767 84.2096 273.767 84.8383C273.767 85.4531 273.628 86.019 273.348 86.5359C273.083 87.0389 272.698 87.4441 272.195 87.7515C271.706 88.0449 271.127 88.1916 270.456 88.1916C269.799 88.1916 269.219 88.0449 268.716 87.7515C268.213 87.4441 267.822 87.0389 267.543 86.5359C267.277 86.019 267.145 85.4531 267.145 84.8383ZM268.633 84.8383C268.633 85.1876 268.702 85.516 268.842 85.8234C268.996 86.1308 269.205 86.3753 269.471 86.5569C269.75 86.7385 270.079 86.8294 270.456 86.8294C270.847 86.8294 271.176 86.7385 271.441 86.5569C271.706 86.3753 271.909 86.1308 272.049 85.8234C272.202 85.516 272.279 85.1876 272.279 84.8383C272.279 84.4751 272.202 84.1467 272.049 83.8533C271.909 83.5459 271.706 83.3014 271.441 83.1198C271.176 82.9382 270.847 82.8473 270.456 82.8473C270.079 82.8473 269.75 82.9382 269.471 83.1198C269.205 83.3014 268.996 83.5459 268.842 83.8533C268.702 84.1467 268.633 84.4751 268.633 84.8383ZM270.561 73.3114H272.133L262.701 87.9821H261.13L270.561 73.3114Z" fill="white"/>
<circle cx="304.335" cy="83.952" r="10.479" fill="white"/>
<path d="M305.104 81.3217C304.708 80.8993 303.962 80.8993 303.566 81.3217L299.645 85.5099C299.122 86.0678 299.582 86.8993 300.413 86.8993L308.257 86.8993C309.088 86.8993 309.548 86.0678 309.026 85.5099L305.104 81.3217Z" fill="#38E7B2"/>
<g filter="url(#filter1_d_1_7472)">
<rect x="44.7643" y="23" width="94.3889" height="94.3889" rx="9.76437" fill="white"/>
<path d="M35 90.6958C35 90.6958 46.8251 72.6812 59.2425 70.3063C71.66 67.9313 70.8588 85.2062 77.8285 81.2852C84.7982 77.3642 88.029 56.5152 96.4145 52.2695C105.707 47.5642 109.469 70.9638 119.849 63.2484C132.509 53.8379 152.172 55.4064 152.172 55.4064" stroke="#FFD43D" stroke-width="3.25479" stroke-linecap="round" stroke-linejoin="round"/>
<rect x="56.1559" y="34.3918" width="19.5287" height="19.5287" rx="3.25479" fill="#9374FF"/>
<rect opacity="0.4" x="100.096" y="94.6053" width="26.0383" height="9.76437" rx="4.88218" fill="#B4B6C4"/>
</g>
<defs>
<filter id="filter0_d_1_7472" x="43.1614" y="16.9033" width="323.867" height="268.573" filterUnits="userSpaceOnUse" color-interpolation-filters="sRGB">
<feFlood flood-opacity="0" result="BackgroundImageFix"/>
<feColorMatrix in="SourceAlpha" type="matrix" values="0 0 0 0 0 0 0 0 0 0 0 0 0 0 0 0 0 0 127 0" result="hardAlpha"/>
<feMorphology radius="2.63306" operator="erode" in="SourceAlpha" result="effect1_dropShadow_1_7472"/>
<feOffset dy="10.5323"/>
<feGaussianBlur stdDeviation="26.3306"/>
<feColorMatrix type="matrix" values="0 0 0 0 0.8125 0 0 0 0 0.597526 0 0 0 0 0.382552 0 0 0 0.13 0"/>
<feBlend mode="normal" in2="BackgroundImageFix" result="effect1_dropShadow_1_7472"/>
<feBlend mode="normal" in="SourceGraphic" in2="effect1_dropShadow_1_7472" result="shape"/>
</filter>
<filter id="filter1_d_1_7472" x="0.824516" y="0.216477" width="185.523" height="159.485" filterUnits="userSpaceOnUse" color-interpolation-filters="sRGB">
<feFlood flood-opacity="0" result="BackgroundImageFix"/>
<feColorMatrix in="SourceAlpha" type="matrix" values="0 0 0 0 0 0 0 0 0 0 0 0 0 0 0 0 0 0 127 0" result="hardAlpha"/>
<feOffset dy="9.76437"/>
<feGaussianBlur stdDeviation="16.2739"/>
<feColorMatrix type="matrix" values="0 0 0 0 0.11 0 0 0 0 0.14137 0 0 0 0 0.4125 0 0 0 0.05 0"/>
<feBlend mode="normal" in2="BackgroundImageFix" result="effect1_dropShadow_1_7472"/>
<feBlend mode="normal" in="SourceGraphic" in2="effect1_dropShadow_1_7472" result="shape"/>
</filter>
</defs>
</svg>
